<svg width="500" height="500" viewBox="0 0 500 500" fill="none" xmlns="http://www.w3.org/2000/svg">
<path d="M193.948 116.417H68.7324V200.257H193.948V116.417Z" fill="white"/>
<path d="M193.949 200.257C193.949 200.257 193.936 199.733 193.93 198.732C193.925 197.725 193.919 196.243 193.91 194.309C193.9 190.429 193.884 184.736 193.864 177.447C193.841 162.881 193.809 141.943 193.77 116.418L193.949 116.597C159.445 116.61 115.918 116.625 68.7428 116.642H68.7328L68.9568 116.418C68.9498 146.286 68.9438 174.689 68.9378 200.258L68.7328 200.053C105.594 200.094 136.871 200.129 158.943 200.154C169.988 200.178 178.727 200.196 184.716 200.209C187.706 200.22 190.008 200.228 191.571 200.234C192.345 200.239 192.935 200.243 193.341 200.246C193.74 200.249 193.949 200.257 193.949 200.257C193.949 200.257 193.756 200.265 193.365 200.269C192.964 200.272 192.382 200.276 191.618 200.281C190.064 200.287 187.776 200.295 184.804 200.306C178.826 200.319 170.103 200.337 159.078 200.361C136.973 200.386 105.649 200.421 68.7328 200.462H68.5268V200.256C68.5208 174.687 68.5148 146.285 68.5078 116.416V116.192H68.7328H68.7428C115.918 116.209 159.445 116.225 193.949 116.237H194.129V116.416C194.09 141.988 194.057 162.964 194.035 177.557C194.015 184.828 194 190.507 193.989 194.378C193.98 196.298 193.973 197.768 193.969 198.768C193.962 199.758 193.949 200.257 193.949 200.257Z" fill="#E0E0E0"/>
<path d="M68.7324 123.9C68.7324 123.776 96.7424 123.675 131.285 123.675C165.841 123.675 193.844 123.776 193.844 123.9C193.844 124.024 165.84 124.124 131.285 124.124C96.7424 124.124 68.7324 124.024 68.7324 123.9Z" fill="#E0E0E0"/>
<g opacity="0.3">
<path d="M73.674 120.125C73.674 120.679 73.225 121.128 72.67 121.128C72.116 121.128 71.666 120.679 71.666 120.125C71.666 119.571 72.115 119.121 72.67 119.121C73.224 119.121 73.674 119.571 73.674 120.125Z" fill="#E0E0E0"/>
</g>
<g opacity="0.3">
<path d="M76.1094 121.128C76.6634 121.128 77.1124 120.679 77.1124 120.125C77.1124 119.571 76.6634 119.122 76.1094 119.122C75.5555 119.122 75.1064 119.571 75.1064 120.125C75.1064 120.679 75.5555 121.128 76.1094 121.128Z" fill="#E0E0E0"/>
</g>
<g opacity="0.3">
<path d="M80.5021 120.125C80.5021 120.679 80.0531 121.128 79.4991 121.128C78.9451 121.128 78.4951 120.679 78.4951 120.125C78.4951 119.571 78.9441 119.121 79.4991 119.121C80.0521 119.121 80.5021 119.571 80.5021 120.125Z" fill="#E0E0E0"/>
</g>
<path d="M112.899 132.643H79.498V166.044H112.899V132.643Z" fill="#E0E0E0"/>
<path d="M176.778 142.083C176.778 142.207 163.751 142.307 147.685 142.307C131.614 142.307 118.589 142.207 118.589 142.083C118.589 141.959 131.613 141.859 147.685 141.859C163.751 141.859 176.778 141.959 176.778 142.083Z" fill="#E0E0E0"/>
<path d="M176.778 148.29C176.778 148.414 163.751 148.515 147.685 148.515C131.614 148.515 118.589 148.414 118.589 148.29C118.589 148.166 131.613 148.066 147.685 148.066C163.751 148.066 176.778 148.166 176.778 148.29Z" fill="#E0E0E0"/>
<path d="M176.778 154.497C176.778 154.621 163.751 154.721 147.685 154.721C131.614 154.721 118.589 154.621 118.589 154.497C118.589 154.373 131.613 154.273 147.685 154.273C163.751 154.273 176.778 154.373 176.778 154.497Z" fill="#E0E0E0"/>
<path d="M152.98 160.704C152.98 160.735 152.499 160.765 151.629 160.791C150.679 160.809 149.438 160.833 147.944 160.862C144.832 160.903 140.534 160.928 135.786 160.928C131.037 160.928 126.738 160.903 123.626 160.862C122.132 160.833 120.892 160.809 119.941 160.791C119.071 160.764 118.59 160.735 118.59 160.704C118.59 160.673 119.071 160.644 119.941 160.617C120.891 160.599 122.131 160.575 123.626 160.546C126.738 160.505 131.037 160.48 135.786 160.48C140.534 160.48 144.832 160.505 147.944 160.546C149.439 160.575 150.679 160.599 151.629 160.617C152.499 160.644 152.98 160.673 152.98 160.704Z" fill="#E0E0E0"/>
<path d="M97.2849 177.306H81.5879V193.003H97.2849V177.306Z" fill="#E0E0E0"/>
<path d="M125.752 177.306H110.055V193.003H125.752V177.306Z" fill="#E0E0E0"/>
<path d="M154.218 177.306H138.521V193.003H154.218V177.306Z" fill="#E0E0E0"/>
<path d="M182.686 177.306H166.989V193.003H182.686V177.306Z" fill="#E0E0E0"/>
<path d="M428.089 143.668C427.322 144.726 426.424 145.662 425.429 146.462L426.121 149.971L420.711 152.371L418.574 149.503C417.313 149.704 416.017 149.742 414.717 149.6L412.726 152.57L407.204 150.441L407.721 146.903C406.662 146.136 405.727 145.238 404.927 144.242L401.418 144.934L399.018 139.525L401.886 137.388C401.685 136.127 401.648 134.831 401.79 133.531L398.82 131.54L400.948 126.017L404.486 126.534C405.253 125.476 406.151 124.54 407.147 123.74L406.455 120.23L411.865 117.83L414 120.701C415.261 120.5 416.557 120.463 417.857 120.604L419.848 117.635L425.37 119.763L424.853 123.301C425.911 124.068 426.848 124.966 427.647 125.962L431.157 125.27L433.557 130.679L430.689 132.816C430.89 134.077 430.927 135.373 430.786 136.673L433.756 138.664L431.628 144.186L428.089 143.668ZM422.114 137.635C423.375 134.364 421.745 130.689 418.473 129.428C415.201 128.167 411.527 129.797 410.266 133.069C409.005 136.341 410.635 140.015 413.907 141.276C417.179 142.537 420.853 140.907 422.114 137.635Z" fill="black"/>
<path d="M422.114 137.635C422.114 137.635 421.99 138.195 421.428 139.051C420.876 139.888 419.774 141.026 417.994 141.566C417.116 141.826 416.082 141.941 415.012 141.741C413.951 141.538 412.836 141.081 411.916 140.265C411.447 139.872 411.034 139.39 410.691 138.849C410.34 138.313 410.066 137.708 409.896 137.063C409.528 135.779 409.596 134.331 410.094 133.005C410.614 131.688 411.535 130.568 412.67 129.863C413.229 129.498 413.839 129.234 414.459 129.071C415.076 128.9 415.706 128.82 416.318 128.844C417.548 128.857 418.682 129.266 419.605 129.827C420.533 130.397 421.221 131.176 421.697 131.958C422.653 133.553 422.707 135.136 422.555 136.127C422.397 137.137 422.114 137.635 422.114 137.635C422.071 137.622 422.304 137.102 422.415 136.109C422.522 135.134 422.426 133.606 421.48 132.093C421.009 131.35 420.338 130.616 419.447 130.084C418.56 129.56 417.479 129.181 416.313 129.179C415.733 129.161 415.136 129.241 414.553 129.406C413.967 129.563 413.392 129.816 412.865 130.163C411.794 130.834 410.93 131.891 410.437 133.136C409.968 134.389 409.899 135.753 410.243 136.969C410.401 137.58 410.656 138.153 410.985 138.663C411.307 139.177 411.695 139.637 412.137 140.013C413.002 140.793 414.058 141.238 415.067 141.445C416.085 141.648 417.074 141.554 417.922 141.32C419.64 140.833 420.737 139.766 421.312 138.971C421.896 138.159 422.073 137.616 422.114 137.635Z" fill="black"/>
<path d="M428.089 143.668C428.087 143.663 428.162 143.67 428.311 143.687C428.476 143.708 428.697 143.735 428.983 143.771C429.598 143.854 430.485 143.973 431.635 144.127L431.572 144.164C432.109 142.747 432.814 140.884 433.668 138.63L433.703 138.74C432.801 138.14 431.798 137.474 430.725 136.761L430.671 136.725L430.678 136.66C430.804 135.464 430.787 134.17 430.569 132.833L430.557 132.762L430.615 132.718C431.507 132.049 432.473 131.325 433.477 130.572L433.436 130.729C432.676 129.027 431.87 127.222 431.024 125.326L431.183 125.408C430.097 125.624 428.901 125.863 427.675 126.107L427.586 126.125L427.529 126.054C426.785 125.129 425.844 124.207 424.76 123.426L424.683 123.37L424.697 123.276C424.856 122.179 425.031 120.969 425.209 119.738L425.311 119.913C423.576 119.247 421.704 118.528 419.786 117.792L419.988 117.728C419.369 118.653 418.689 119.67 418 120.699L417.942 120.786L417.838 120.775C416.65 120.646 415.333 120.663 414.028 120.874L413.923 120.891L413.859 120.805C413.189 119.907 412.458 118.927 411.72 117.938L411.935 117.994C410.223 118.754 408.387 119.57 406.526 120.396L406.63 120.195C406.849 121.303 407.085 122.5 407.323 123.705L407.344 123.813L407.258 123.882C406.313 124.639 405.4 125.578 404.633 126.638L404.632 126.64L404.631 126.641C404.553 126.674 404.804 126.568 404.457 126.715L404.454 126.714L404.447 126.713L404.433 126.711L404.405 126.707L404.349 126.699L404.238 126.683L404.015 126.65L403.57 126.585L402.683 126.455C402.093 126.369 401.505 126.283 400.919 126.197L401.115 126.082C400.395 127.948 399.685 129.789 398.985 131.604L398.917 131.389C399.917 132.06 400.906 132.724 401.886 133.381L401.976 133.441L401.964 133.549C401.824 134.831 401.859 136.116 402.057 137.359L402.074 137.465L401.988 137.529C401.017 138.251 400.062 138.962 399.118 139.664L399.173 139.454C399.99 141.301 400.789 143.106 401.567 144.865L401.381 144.769C402.572 144.536 403.742 144.306 404.891 144.081L404.988 144.062L405.05 144.139C405.865 145.157 406.8 146.041 407.809 146.774L407.887 146.83L407.873 146.924C407.694 148.137 407.52 149.313 407.35 150.461L407.255 150.298C409.196 151.051 411.028 151.762 412.772 152.438L412.606 152.49C413.309 151.447 413.968 150.469 414.604 149.525L414.648 149.459L414.726 149.468C416.083 149.618 417.359 149.568 418.55 149.382L418.622 149.371L418.665 149.429C419.438 150.474 420.134 151.415 420.792 152.304L420.662 152.27C422.762 151.35 424.551 150.566 426.082 149.894L426.035 149.984C425.768 148.581 425.548 147.429 425.365 146.47L425.358 146.435L425.386 146.413C426.403 145.603 427.055 144.884 427.473 144.401C427.669 144.163 427.82 143.981 427.93 143.847C428.037 143.721 428.087 143.664 428.089 143.668C428.091 143.672 428.047 143.741 427.96 143.869C427.868 143.998 427.727 144.193 427.525 144.443C427.121 144.941 426.479 145.678 425.465 146.508L425.486 146.451C425.681 147.407 425.915 148.556 426.201 149.956L426.214 150.02L426.154 150.047C424.628 150.732 422.847 151.531 420.755 152.47L420.677 152.505L420.625 152.436C419.961 151.551 419.259 150.615 418.478 149.575L418.593 149.622C417.384 149.818 416.086 149.877 414.703 149.731L414.826 149.674C414.194 150.621 413.54 151.603 412.842 152.649L412.78 152.742L412.676 152.702C410.929 152.033 409.094 151.329 407.15 150.584L407.037 150.541L407.055 150.421C407.221 149.272 407.39 148.096 407.565 146.882L407.629 147.032C406.595 146.285 405.636 145.384 404.8 144.346L404.959 144.404C403.81 144.632 402.641 144.864 401.45 145.101L401.319 145.127L401.264 145.004C400.482 143.246 399.68 141.443 398.859 139.598L398.803 139.471L398.914 139.388C399.857 138.685 400.811 137.972 401.78 137.249L401.711 137.418C401.506 136.145 401.468 134.828 401.611 133.514L401.689 133.682C400.709 133.025 399.718 132.362 398.718 131.693L398.598 131.613L398.65 131.478C399.349 129.663 400.058 127.821 400.777 125.955L400.829 125.819L400.973 125.84C401.558 125.926 402.147 126.011 402.737 126.098L403.624 126.228L404.069 126.293L404.292 126.326L404.403 126.342L404.459 126.35L404.487 126.354L404.501 126.356L404.508 126.357H404.511C404.164 126.504 404.415 126.397 404.338 126.43L404.339 126.428C405.125 125.341 406.062 124.378 407.031 123.602L406.966 123.779C406.729 122.574 406.493 121.378 406.275 120.269L406.247 120.127L406.379 120.068C408.24 119.243 410.077 118.43 411.79 117.671L411.921 117.613L412.006 117.727C412.743 118.718 413.472 119.698 414.141 120.597L413.972 120.528C415.31 120.314 416.659 120.298 417.875 120.433L417.713 120.509C418.404 119.481 419.086 118.466 419.707 117.542L419.783 117.429L419.909 117.478C421.825 118.219 423.695 118.942 425.428 119.613L425.549 119.66L425.53 119.788C425.348 121.019 425.169 122.228 425.008 123.325L424.945 123.175C426.05 123.977 427.008 124.921 427.764 125.869L427.618 125.816C428.845 125.576 430.042 125.343 431.129 125.131L431.242 125.109L431.288 125.214C432.126 127.114 432.923 128.923 433.675 130.628L433.717 130.723L433.634 130.785C432.625 131.532 431.655 132.251 430.759 132.914L430.806 132.799C431.019 134.159 431.027 135.474 430.891 136.686L430.844 136.586C431.911 137.307 432.908 137.982 433.806 138.589L433.868 138.631L433.841 138.699C432.961 140.943 432.234 142.798 431.681 144.208L431.664 144.252L431.618 144.245C430.481 144.066 429.606 143.928 428.998 143.832C428.71 143.784 428.487 143.747 428.321 143.719C428.169 143.689 428.09 143.673 428.089 143.668Z" fill="black"/>
<path fill-rule="evenodd" clip-rule="evenodd" d="M459.555 126.833C458.918 127.71 458.174 128.487 457.348 129.151L457.922 132.062L453.434 134.053L451.661 131.673C450.615 131.84 449.539 131.871 448.461 131.754L446.809 134.218L442.228 132.452L442.657 129.517C441.779 128.881 441.002 128.136 440.339 127.309L437.427 127.883L435.436 123.396L437.816 121.623C437.649 120.577 437.619 119.501 437.736 118.423L435.272 116.772L437.038 112.19L439.973 112.619C440.609 111.741 441.354 110.965 442.18 110.301L441.606 107.389L446.094 105.398L447.867 107.778C448.913 107.611 449.988 107.581 451.067 107.697L452.719 105.234L457.3 107L456.871 109.935C457.749 110.571 458.526 111.316 459.189 112.143L462.101 111.569L464.092 116.057L461.712 117.83C461.879 118.876 461.91 119.951 461.792 121.03L464.256 122.682L462.49 127.263L459.555 126.833ZM454.598 121.828C455.644 119.114 454.292 116.065 451.578 115.019C448.864 113.973 445.815 115.326 444.769 118.04C443.723 120.755 445.075 123.803 447.79 124.849C450.504 125.894 453.552 124.542 454.598 121.828Z" fill="black"/>
<path fill-rule="evenodd" clip-rule="evenodd" d="M440.218 99.4814C439.22 100.857 438.052 102.075 436.757 103.116L437.658 107.682L430.62 110.804L427.84 107.072C426.199 107.334 424.513 107.383 422.822 107.199L420.232 111.063L413.048 108.293L413.72 103.69C412.343 102.692 411.125 101.524 410.085 100.228L405.519 101.129L402.397 94.0924L406.129 91.3113C405.867 89.6703 405.819 87.9844 406.003 86.2934L402.139 83.7034L404.908 76.5183L409.511 77.1914C410.509 75.8144 411.677 74.5974 412.973 73.5564L412.072 68.9903L419.11 65.8683L421.89 69.6003C423.531 69.3383 425.217 69.2904 426.908 69.4734L429.498 65.6104L436.682 68.3793L436.009 72.9824C437.386 73.9804 438.604 75.1484 439.644 76.4444L444.21 75.5434L447.332 82.5804L443.6 85.3614C443.862 87.0024 443.91 88.6883 443.726 90.3793L447.59 92.9694L444.821 100.153L440.218 99.4814ZM432.445 91.6324C434.085 87.3764 431.965 82.5954 427.708 80.9554C423.452 79.3154 418.671 81.4364 417.031 85.6924C415.391 89.9494 417.511 94.7294 421.768 96.3694C426.024 98.0094 430.804 95.8894 432.445 91.6324Z" fill="black"/>
<path d="M369.624 61.3611C369.607 61.3431 369.795 61.1321 370.148 60.7661C370.56 60.3521 371.067 59.8421 371.667 59.2391C372.96 57.9611 374.764 56.2141 376.771 54.3001L376.817 54.2561L376.819 54.5141C374.797 52.6361 372.982 50.9231 371.68 49.6711C371.077 49.0811 370.566 48.5811 370.152 48.1751C369.797 47.8161 369.608 47.6091 369.624 47.5921C369.64 47.5741 369.86 47.7471 370.244 48.0751C370.679 48.4581 371.215 48.9301 371.848 49.4881C373.192 50.6931 375.034 52.3771 377.057 54.2551L377.195 54.3831L377.059 54.5131L377.013 54.5571C375.006 56.4711 373.175 58.1901 371.838 59.4211C371.208 59.9911 370.674 60.4751 370.242 60.8661C369.861 61.2011 369.641 61.3791 369.624 61.3611Z" fill="#E0E0E0"/>
<path d="M354.017 47.593C354.034 47.611 353.846 47.822 353.493 48.188C353.081 48.602 352.574 49.112 351.974 49.715C350.681 50.993 348.877 52.74 346.87 54.654L346.824 54.697L346.822 54.439C348.844 56.317 350.659 58.03 351.961 59.282C352.564 59.873 353.075 60.372 353.489 60.778C353.844 61.137 354.033 61.344 354.016 61.361C354 61.379 353.78 61.206 353.396 60.878C352.961 60.495 352.425 60.023 351.792 59.465C350.447 58.26 348.605 56.576 346.583 54.699L346.445 54.571L346.581 54.4411L346.627 54.398C348.634 52.484 350.465 50.765 351.802 49.534C352.432 48.963 352.966 48.48 353.398 48.089C353.781 47.752 354 47.575 354.017 47.593Z" fill="#E0E0E0"/>
<path d="M358.023 64.6039C357.932 64.5699 359.57 59.9649 361.682 54.3199C363.794 48.6729 365.58 44.1249 365.671 44.1589C365.762 44.1929 364.124 48.7969 362.012 54.4439C359.9 60.0889 358.114 64.6379 358.023 64.6039Z" fill="#E0E0E0"/>
<path d="M387.361 74.4571C387.361 74.4571 387.35 74.1901 387.345 73.6871C387.341 73.1741 387.336 72.4341 387.328 71.4721C387.319 69.5271 387.306 66.6931 387.29 63.0821C387.272 55.8591 387.246 45.5361 387.214 33.0901L387.361 33.2371C372.839 33.2451 355.375 33.2561 336.597 33.2661H336.593L336.769 33.0891C336.762 48.0431 336.756 62.1651 336.75 74.4561L336.593 74.2981C351.666 74.3311 364.337 74.3581 373.252 74.3771C377.71 74.3951 381.227 74.4091 383.643 74.4191C384.841 74.4271 385.764 74.4341 386.401 74.4381C386.708 74.4421 386.943 74.4451 387.114 74.4471C387.274 74.4511 387.361 74.4571 387.361 74.4571C387.361 74.4571 387.287 74.4631 387.132 74.4661C386.965 74.4681 386.735 74.4711 386.436 74.4751C385.806 74.4791 384.894 74.4861 383.709 74.4941C381.301 74.5041 377.797 74.5181 373.354 74.5361C364.414 74.5551 351.708 74.5831 336.593 74.6151H336.436V74.4571C336.43 62.1661 336.424 48.0441 336.417 33.0901V32.9131H336.593H336.597C355.375 32.9241 372.839 32.9341 387.361 32.9421H387.508V33.0901C387.476 45.5741 387.45 55.9291 387.432 63.1741C387.416 66.7711 387.403 69.5931 387.394 71.5311C387.387 72.4811 387.381 73.2121 387.377 73.7181C387.371 74.2111 387.361 74.4571 387.361 74.4571Z" fill="#E0E0E0"/>
<path d="M387.758 39.2283C387.758 39.3263 376.298 39.4053 362.165 39.4053C348.027 39.4053 336.569 39.3263 336.569 39.2283C336.569 39.1303 348.026 39.0513 362.165 39.0513C376.298 39.0513 387.758 39.1303 387.758 39.2283Z" fill="#E0E0E0"/>
<path d="M340.735 36.209C340.735 36.5879 340.429 36.895 340.052 36.895C339.674 36.895 339.368 36.5879 339.368 36.209C339.368 35.83 339.674 35.5229 340.052 35.5229C340.429 35.5229 340.735 35.83 340.735 36.209Z" fill="#E0E0E0"/>
<path d="M342.543 36.895C342.921 36.895 343.226 36.5878 343.226 36.209C343.226 35.8301 342.921 35.5229 342.543 35.5229C342.166 35.5229 341.86 35.8301 341.86 36.209C341.86 36.5878 342.166 36.895 342.543 36.895Z" fill="#E0E0E0"/>
<path d="M345.719 36.209C345.719 36.5879 345.413 36.895 345.035 36.895C344.657 36.895 344.351 36.5879 344.351 36.209C344.351 35.83 344.657 35.5229 345.035 35.5229C345.413 35.5229 345.719 35.83 345.719 36.209Z" fill="#E0E0E0"/>
<path d="M289.219 53.043H171.836V100.722H289.219V53.043Z" fill="white"/>
<path d="M289.22 100.722C289.22 100.722 289.211 100.429 289.207 99.87C289.204 99.305 289.199 98.479 289.193 97.396C289.185 95.22 289.175 92.024 289.161 87.907C289.144 79.678 289.12 67.774 289.09 53.042L289.22 53.173C259.359 53.187 217.793 53.207 171.845 53.228H171.837L172.023 53.042C172.02 69.739 172.017 85.855 172.015 100.721L171.837 100.543C205.849 100.577 235.171 100.606 255.998 100.627C266.42 100.648 274.715 100.665 280.413 100.676C283.259 100.686 285.455 100.693 286.948 100.699C287.688 100.704 288.252 100.707 288.64 100.71C289.02 100.715 289.22 100.722 289.22 100.722C289.22 100.722 289.035 100.729 288.661 100.733C288.278 100.736 287.721 100.739 286.99 100.744C285.506 100.749 283.322 100.757 280.493 100.766C274.804 100.777 266.524 100.794 256.119 100.815C235.262 100.836 205.898 100.865 171.837 100.899H171.659V100.721C171.656 85.855 171.654 69.739 171.651 53.042V52.856H171.837H171.845C217.793 52.878 259.36 52.897 289.22 52.911H289.351V53.042C289.321 67.808 289.297 79.738 289.28 87.986C289.266 92.09 289.255 95.277 289.248 97.445C289.242 98.517 289.237 99.336 289.234 99.895C289.228 100.447 289.22 100.722 289.22 100.722Z" fill="#E0E0E0"/>
<path d="M171.953 59.4731C171.953 59.3701 198.191 59.2871 230.549 59.2871C262.919 59.2871 289.151 59.3701 289.151 59.4731C289.151 59.5761 262.919 59.6591 230.549 59.6591C198.191 59.6591 171.953 59.5761 171.953 59.4731Z" fill="#E0E0E0"/>
<g opacity="0.3">
<path d="M176.868 56.5971C176.868 57.0681 176.486 57.4491 176.016 57.4491C175.545 57.4491 175.164 57.0681 175.164 56.5971C175.164 56.1271 175.545 55.7451 176.016 55.7451C176.486 55.7451 176.868 56.1271 176.868 56.5971Z" fill="#EBEBEB"/>
</g>
<g opacity="0.3">
<path d="M179.787 56.5971C179.787 57.0681 179.406 57.4491 178.935 57.4491C178.464 57.4491 178.083 57.0681 178.083 56.5971C178.083 56.1271 178.464 55.7451 178.935 55.7451C179.405 55.7451 179.787 56.1271 179.787 56.5971Z" fill="#EBEBEB"/>
</g>
<g opacity="0.3">
<path d="M181.812 57.4491C182.283 57.4491 182.664 57.0677 182.664 56.5971C182.664 56.1266 182.283 55.7451 181.812 55.7451C181.341 55.7451 180.96 56.1266 180.96 56.5971C180.96 57.0677 181.341 57.4491 181.812 57.4491Z" fill="#EBEBEB"/>
</g>
<path d="M210.165 67.2227H181.812V95.5757H210.165V67.2227Z" fill="#E0E0E0"/>
<path d="M281.099 74.8208C281.099 74.9238 266.509 75.0068 248.515 75.0068C230.515 75.0068 215.928 74.9238 215.928 74.8208C215.928 74.7178 230.515 74.6348 248.515 74.6348C266.509 74.6348 281.099 74.7178 281.099 74.8208Z" fill="#E0E0E0"/>
<path d="M281.099 80.5971C281.099 80.7001 266.509 80.7831 248.515 80.7831C230.515 80.7831 215.928 80.7001 215.928 80.5971C215.928 80.4941 230.515 80.4111 248.515 80.4111C266.509 80.4111 281.099 80.4941 281.099 80.5971Z" fill="#E0E0E0"/>
<path d="M257.882 86.3725C257.882 86.3855 257.735 86.3975 257.456 86.4095C257.136 86.4185 256.732 86.4305 256.234 86.4445C255.123 86.4595 253.599 86.4795 251.738 86.5035C247.898 86.5175 242.676 86.5365 236.907 86.5575C231.136 86.5365 225.913 86.5175 222.073 86.5035C220.212 86.4795 218.689 86.4595 217.578 86.4445C217.08 86.4305 216.676 86.4185 216.356 86.4095C216.077 86.3975 215.93 86.3845 215.93 86.3725C215.93 86.3595 216.077 86.3475 216.356 86.3355C216.676 86.3265 217.08 86.3145 217.578 86.3005C218.689 86.2855 220.212 86.2655 222.073 86.2415C225.913 86.2275 231.135 86.2085 236.907 86.1865C242.676 86.2075 247.898 86.2265 251.738 86.2415C253.599 86.2655 255.122 86.2855 256.234 86.3005C256.732 86.3145 257.136 86.3265 257.456 86.3355C257.735 86.3465 257.882 86.3595 257.882 86.3725Z" fill="#E0E0E0"/>
<path d="M472.862 445.088C472.862 445.232 373.075 445.348 250.01 445.348C126.902 445.348 27.1367 445.231 27.1367 445.088C27.1367 444.945 126.903 444.828 250.01 444.828C373.076 444.828 472.862 444.944 472.862 445.088Z" fill="#263238"/>
<path d="M435.164 135.408H295.035V249.568H435.164V135.408Z" fill="#E0E0E0"/>
<path d="M425.2 142.665H285.071V256.825H425.2V142.665Z" fill="#EBEBEB"/>
<path d="M415.211 150.612H271.343V267.817H415.211V150.612Z" fill="white"/>
<path d="M415.211 267.818C415.211 267.818 415.195 267.075 415.187 265.657C415.181 264.233 415.173 262.135 415.162 259.399C415.149 253.918 415.13 245.887 415.106 235.65C415.079 215.191 415.04 185.916 414.994 150.613L415.211 150.83C374.055 150.842 324.563 150.857 271.356 150.873H271.344L271.604 150.613C271.594 192.996 271.584 233.015 271.576 267.818L271.344 267.586C314.109 267.634 350.046 267.674 375.304 267.702C387.943 267.729 397.907 267.749 404.722 267.764C408.126 267.776 410.741 267.785 412.516 267.792C413.395 267.798 414.065 267.802 414.524 267.805C414.974 267.809 415.211 267.818 415.211 267.818C415.211 267.818 414.992 267.827 414.549 267.831C414.095 267.834 413.434 267.839 412.566 267.844C410.801 267.85 408.202 267.86 404.818 267.872C398.015 267.886 388.069 267.907 375.453 267.934C350.16 267.962 314.17 268.003 271.343 268.051H271.11V267.818C271.102 233.015 271.092 192.995 271.082 150.613V150.353H271.342H271.354C324.562 150.369 374.054 150.384 415.209 150.396H415.427V150.613C415.38 185.973 415.342 215.295 415.315 235.787C415.291 246.004 415.272 254.018 415.259 259.488C415.248 262.206 415.24 264.29 415.234 265.705C415.227 267.107 415.211 267.818 415.211 267.818Z" fill="#263238"/>
<path d="M287.567 256.43L286.022 256.995L287.567 257.557V258.137L285.358 257.297V256.694L287.567 255.854V256.43Z" fill="#FF725E"/>
<path d="M289.224 254.713H289.869L288.339 259.083H287.693L289.224 254.713Z" fill="#FF725E"/>
<path d="M293.027 255.372V258.619H292.275V257.288H290.8V258.619H290.048V255.372H290.8V256.652H292.275V255.372H293.027Z" fill="#FF725E"/>
<path d="M294.465 255.985H293.426V255.373H296.255V255.985H295.216V258.62H294.465V255.985Z" fill="#FF725E"/>
<path d="M299.611 258.62L299.606 256.672L298.651 258.276H298.312L297.361 256.713V258.619H296.656V255.372H297.278L298.493 257.39L299.69 255.372H300.307L300.316 258.619H299.611V258.62Z" fill="#FF725E"/>
<path d="M301.082 255.372H301.834V258.007H303.462V258.619H301.082V255.372Z" fill="#FF725E"/>
<path d="M305.991 256.694V257.297L303.784 258.137V257.557L305.328 256.995L303.784 256.43V255.855L305.991 256.694Z" fill="#FF725E"/>
<path d="M415.211 160.364C415.211 160.508 383.118 160.625 343.538 160.625C303.944 160.625 271.858 160.508 271.858 160.364C271.858 160.22 303.945 160.104 343.538 160.104C383.117 160.103 415.211 160.22 415.211 160.364Z" fill="#263238"/>
<path d="M276.152 155.245C276.152 155.754 275.739 156.167 275.23 156.167C274.721 156.167 274.308 155.754 274.308 155.245C274.308 154.736 274.721 154.323 275.23 154.323C275.739 154.322 276.152 154.735 276.152 155.245Z" fill="#263238"/>
<path d="M278.773 156.167C279.282 156.167 279.695 155.754 279.695 155.245C279.695 154.736 279.282 154.323 278.773 154.323C278.263 154.323 277.851 154.736 277.851 155.245C277.851 155.754 278.263 156.167 278.773 156.167Z" fill="#263238"/>
<path d="M283.238 155.245C283.238 155.754 282.825 156.167 282.316 156.167C281.807 156.167 281.394 155.754 281.394 155.245C281.394 154.736 281.807 154.323 282.316 154.323C282.825 154.322 283.238 154.735 283.238 155.245Z" fill="#263238"/>
<path d="M280.961 268.785C280.817 268.785 280.701 244.455 280.701 214.448C280.701 184.431 280.818 160.106 280.961 160.106C281.104 160.106 281.221 184.431 281.221 214.448C281.221 244.454 281.104 268.785 280.961 268.785Z" fill="#E0E0E0"/>
<path d="M139.463 54.7788H80.21V97.0158H139.463V54.7788Z" fill="#FF725E"/>
<path d="M139.927 61.0466C139.927 61.1906 126.552 61.3066 110.057 61.3066C93.5556 61.3066 80.1836 61.1896 80.1836 61.0466C80.1836 60.9026 93.5556 60.7866 110.057 60.7866C126.552 60.7856 139.927 60.9026 139.927 61.0466Z" fill="white"/>
<path d="M85.0442 57.9637C85.0442 58.3507 84.6872 58.6647 84.2462 58.6647C83.8052 58.6647 83.4482 58.3507 83.4482 57.9637C83.4482 57.5767 83.8052 57.2627 84.2462 57.2627C84.6872 57.2637 85.0442 57.5767 85.0442 57.9637Z" fill="white"/>
<path d="M87.9524 57.9637C87.9524 58.3507 87.5954 58.6647 87.1544 58.6647C86.7134 58.6647 86.3564 58.3507 86.3564 57.9637C86.3564 57.5767 86.7134 57.2627 87.1544 57.2627C87.5954 57.2637 87.9524 57.5767 87.9524 57.9637Z" fill="white"/>
<path d="M90.0636 58.6647C90.5044 58.6647 90.8616 58.3508 90.8616 57.9637C90.8616 57.5765 90.5044 57.2627 90.0636 57.2627C89.6229 57.2627 89.2656 57.5765 89.2656 57.9637C89.2656 58.3508 89.6229 58.6647 90.0636 58.6647Z" fill="white"/>
<path d="M91.2633 215.755H51.7773V243.902H91.2633V215.755Z" fill="#FF725E"/>
<path d="M91.5727 219.933C91.5727 220.002 82.6597 220.057 71.6677 220.057C60.6717 220.057 51.7607 220.001 51.7607 219.933C51.7607 219.865 60.6717 219.809 71.6677 219.809C82.6597 219.808 91.5727 219.864 91.5727 219.933Z" fill="white"/>
<path d="M54.9995 217.878C54.9995 218.136 54.7615 218.345 54.4675 218.345C54.1735 218.345 53.9355 218.136 53.9355 217.878C53.9355 217.62 54.1735 217.411 54.4675 217.411C54.7615 217.411 54.9995 217.62 54.9995 217.878Z" fill="white"/>
<path d="M56.938 217.878C56.938 218.136 56.7 218.345 56.406 218.345C56.112 218.345 55.874 218.136 55.874 217.878C55.874 217.62 56.112 217.411 56.406 217.411C56.7 217.411 56.938 217.62 56.938 217.878Z" fill="white"/>
<path d="M58.8755 217.878C58.8755 218.136 58.6375 218.345 58.3435 218.345C58.0495 218.345 57.8115 218.136 57.8115 217.878C57.8115 217.62 58.0495 217.411 58.3435 217.411C58.6375 217.411 58.8755 217.62 58.8755 217.878Z" fill="white"/>
<path d="M147.883 271.95L174.008 360.134C175.168 364.049 178.765 366.735 182.849 366.735L288.844 367.027C294.47 367.043 298.954 362.328 298.657 356.709C298.381 351.506 294.082 347.429 288.871 347.429H248.336L215.875 256.983H159.058C151.268 256.983 145.67 264.479 147.883 271.95Z" fill="#455A64"/>
<path d="M237.561 354.672C237.561 354.878 226.753 355.046 213.425 355.046C200.092 355.046 189.286 354.879 189.286 354.672C189.286 354.466 200.091 354.299 213.425 354.299C226.753 354.298 237.561 354.466 237.561 354.672Z" fill="#263238"/>
<path d="M155.678 259.784C155.874 259.719 163.091 280.833 171.797 306.937C180.506 333.05 187.404 354.266 187.209 354.331C187.013 354.396 179.797 333.287 171.089 307.173C162.383 281.069 155.482 259.849 155.678 259.784Z" fill="#263238"/>
<path d="M233.152 445.088L226.693 444.935V366.735H233.152V445.088Z" fill="#455A64"/>
<path d="M199.856 444.732H259.989L232.748 435.265H226.289L199.856 444.732Z" fill="#455A64"/>
<path d="M184.647 236.763L194.596 286.47L192.82 323.722L259.699 312.599L257.074 279.978L257.024 252.985L273.423 284.766L286.191 260.103L262.813 217.755L262.811 217.76C258.529 213.315 253.515 210.028 247.515 207.858C244.601 206.804 241.508 206.173 237.93 206.021C230.213 208.406 222.495 208.411 214.778 206.035C213.838 206.153 212.533 206.277 210.89 206.471C210.789 206.483 210.689 206.495 210.589 206.507C196.397 208.235 185.564 220.037 184.78 234.312L184.647 236.763Z" fill="#FF725E"/>
<path d="M210.893 206.472C210.893 206.472 183.414 206.681 180.01 235.703L179.548 256.984L203.214 256.779L210.893 206.472Z" fill="#FF725E"/>
<path d="M276.542 243.806C276.542 244.012 254.919 244.18 228.251 244.18C201.574 244.18 179.955 244.013 179.955 243.806C179.955 243.6 201.574 243.433 228.251 243.433C254.919 243.433 276.542 243.599 276.542 243.806Z" fill="#FAFAFA"/>
<path d="M276.542 248.406C276.542 248.612 254.919 248.779 228.251 248.779C201.574 248.779 179.955 248.612 179.955 248.406C179.955 248.2 201.574 248.033 228.251 248.033C254.919 248.033 276.542 248.2 276.542 248.406Z" fill="#FAFAFA"/>
<path d="M274.995 239.992C274.995 240.198 253.718 240.366 227.478 240.366C201.229 240.366 179.956 240.199 179.956 239.992C179.956 239.786 201.228 239.619 227.478 239.619C253.718 239.619 274.995 239.786 274.995 239.992Z" fill="#FAFAFA"/>
<path d="M256.668 284.766C256.462 284.762 256.553 272.999 256.873 258.498C257.192 243.991 257.618 232.239 257.825 232.243C258.031 232.247 257.939 244.007 257.62 258.514C257.3 273.016 256.874 284.771 256.668 284.766Z" fill="#263238"/>
<path d="M247.272 265.69C247.272 265.69 260.271 266.62 262.611 270.056C264.952 273.492 268.517 283.292 267.166 283.364C265.815 283.435 264.832 282.627 264.832 282.627L261.269 276.313C261.269 276.313 261.841 282.413 259.711 282.534C257.581 282.655 247.027 284.767 247.027 284.767L247.272 265.69Z" fill="#FFBE9D"/>
<path d="M179.556 251.319L179.508 284.828C179.931 292.66 187.268 298.25 194.931 296.579L247.34 285.782L247.228 264.293L202.009 272.971L201.406 250.225L179.556 251.319Z" fill="#FF725E"/>
<path d="M209.456 293.894C209.452 293.876 209.688 293.811 210.147 293.701C210.66 293.586 211.333 293.434 212.179 293.244C214.023 292.854 216.619 292.304 219.882 291.613C226.572 290.246 235.987 288.321 247.162 286.037L246.894 286.364C246.883 279.617 246.87 272.163 246.857 264.292L247.297 264.655C244.346 265.223 241.24 265.82 238.084 266.427C224.838 268.948 212.468 271.303 202.069 273.282L201.678 273.356L201.692 272.964C202.034 262.99 202.319 254.683 202.521 248.799C202.64 245.938 202.735 243.669 202.803 242.051C202.844 241.316 202.876 240.729 202.902 240.277C202.93 239.876 202.952 239.669 202.969 239.67C202.986 239.671 202.996 239.879 203.001 240.282C203 240.736 202.999 241.324 202.997 242.061C202.972 243.681 202.935 245.952 202.89 248.815C202.753 254.697 202.56 263.003 202.328 272.975L201.951 272.658C212.344 270.647 224.707 268.255 237.945 265.694C241.101 265.09 244.208 264.494 247.16 263.929L247.601 263.845L247.6 264.293C247.587 272.164 247.575 279.618 247.563 286.365V286.64L247.295 286.692C236.098 288.868 226.665 290.7 219.963 292.003C216.684 292.616 214.077 293.104 212.224 293.451C211.369 293.599 210.69 293.718 210.172 293.808C209.703 293.881 209.46 293.911 209.456 293.894Z" fill="#263238"/>
<path d="M239.519 206.471C239.544 206.463 239.617 206.632 239.734 206.962C239.865 207.289 240 207.789 240.14 208.444C240.402 209.745 240.547 211.748 239.895 214.084C239.266 216.413 237.739 218.99 235.346 221.103C232.994 223.267 229.52 224.741 225.807 224.706C222.097 224.741 218.587 223.227 216.376 220.876C214.136 218.532 213.15 215.664 212.868 213.289C212.608 210.88 213.036 208.923 213.528 207.682C213.778 207.059 214.004 206.593 214.201 206.298C214.382 205.997 214.486 205.846 214.509 205.859C214.585 205.899 214.191 206.527 213.803 207.776C213.407 209.014 213.077 210.915 213.392 213.221C213.728 215.495 214.73 218.212 216.871 220.396C218.976 222.58 222.282 223.99 225.808 223.958C229.341 223.988 232.625 222.619 234.891 220.586C237.218 218.579 238.721 216.148 239.389 213.933C240.079 211.713 240.023 209.777 239.854 208.489C239.68 207.191 239.444 206.492 239.519 206.471Z" fill="#263238"/>
<path d="M242.049 287.557C241.942 287.547 241.982 286.284 242.06 284.25C242.138 282.216 242.236 279.409 242.255 276.307C242.272 273.204 242.207 270.396 242.153 268.361C242.1 266.326 242.074 265.063 242.181 265.054C242.279 265.045 242.491 266.294 242.68 268.33C242.87 270.365 243.019 273.19 243.001 276.312C242.981 279.433 242.799 282.255 242.586 284.288C242.374 286.321 242.147 287.567 242.049 287.557Z" fill="#FAFAFA"/>
<path d="M239.344 288.105C239.239 288.098 239.227 286.844 239.25 284.822C239.275 282.512 239.303 279.858 239.335 276.927C239.332 273.995 239.33 271.34 239.328 269.03C239.325 267.008 239.349 265.754 239.454 265.748C239.554 265.743 239.717 266.988 239.855 269.012C239.993 271.035 240.096 273.836 240.081 276.931C240.065 280.025 239.935 282.824 239.777 284.845C239.62 286.867 239.445 288.111 239.344 288.105Z" fill="#FAFAFA"/>
<path d="M291.825 421.248L301.73 448.525L315.785 467.841C316.798 469.233 316.42 471.192 314.963 472.108C314.146 472.621 313.141 472.71 312.251 472.341C306.583 469.989 285.777 461.235 285.164 459.198C284.454 456.839 271.023 427.503 271.023 427.503L291.825 421.248Z" fill="#FF725E"/>
<g opacity="0.6">
<path d="M314.963 472.108L284.454 457.372L284.9 458.518C285.286 459.509 286.006 460.333 286.942 460.838C289.445 462.187 296.437 465.763 312.17 472.374C313.085 472.758 314.137 472.659 314.963 472.108Z" fill="white"/>
</g>
<g opacity="0.6">
<path d="M286.609 446.489C287.469 446.694 288.089 447.632 287.92 448.5C287.751 449.368 286.802 450.007 285.938 449.817C285.075 449.627 284.295 448.523 284.561 447.68C284.826 446.837 285.982 446.147 286.774 446.538" fill="white"/>
</g>
<path d="M304.184 462.698C304.366 462.713 304.425 461.06 305.737 459.672C307.007 458.245 308.65 458.045 308.619 457.865C308.617 457.789 308.193 457.713 307.525 457.87C306.862 458.021 305.981 458.466 305.268 459.242C304.557 460.02 304.19 460.935 304.096 461.609C303.995 462.286 304.108 462.703 304.184 462.698Z" fill="#263238"/>
<path d="M307.518 465.57C307.692 465.637 308.218 464.42 309.461 463.475C310.683 462.502 311.991 462.292 311.969 462.107C311.993 461.939 310.469 461.871 309.069 462.972C307.659 464.057 307.349 465.552 307.518 465.57Z" fill="#263238"/>
<path d="M298.791 459.452C298.968 459.531 299.767 457.655 301.571 456.016C303.35 454.349 305.283 453.702 305.219 453.519C305.207 453.358 303.051 453.764 301.139 455.547C299.209 457.311 298.631 459.427 298.791 459.452Z" fill="#263238"/>
<path d="M295.087 451.412C295.222 451.546 296.474 450.34 298.39 449.513C300.296 448.66 302.03 448.553 302.022 448.363C302.045 448.202 300.183 448.017 298.133 448.929C296.077 449.823 294.953 451.32 295.087 451.412Z" fill="#263238"/>
<path d="M291.976 443.479C292.121 443.603 293.272 442.117 295.362 441.411C297.436 440.659 299.263 441.103 299.299 440.916C299.321 440.842 298.894 440.618 298.13 440.5C297.371 440.38 296.274 440.419 295.152 440.809C294.032 441.203 293.149 441.857 292.631 442.424C292.107 442.993 291.913 443.435 291.976 443.479Z" fill="#263238"/>
<path d="M294.726 439.918C294.761 439.905 294.68 439.518 294.365 438.881C294.05 438.249 293.485 437.359 292.509 436.518C292.021 436.129 291.465 435.602 290.572 435.539C290.127 435.505 289.594 435.793 289.413 436.276C289.231 436.748 289.303 437.231 289.461 437.663C290.157 439.369 292.277 440.455 294.304 439.951C296.325 439.409 297.651 437.619 297.842 435.838C297.861 435.389 297.794 434.873 297.406 434.498C297.02 434.117 296.399 434.148 296.038 434.365C295.281 434.798 294.955 435.457 294.617 435.985C293.977 437.097 293.707 438.109 293.589 438.804C293.472 439.504 293.5 439.898 293.537 439.9C293.659 439.934 293.704 438.306 295.002 436.219C295.341 435.723 295.718 435.116 296.275 434.838C296.546 434.7 296.832 434.718 297.021 434.906C297.209 435.084 297.285 435.445 297.256 435.804C297.079 437.27 295.864 438.903 294.148 439.335C292.445 439.778 290.582 438.819 290.009 437.452C289.876 437.121 289.834 436.752 289.935 436.485C290.034 436.222 290.28 436.066 290.569 436.07C291.178 436.077 291.752 436.508 292.224 436.868C294.135 438.409 294.617 439.992 294.726 439.918Z" fill="#263238"/>
<path d="M333.642 414.113L332.786 436.282C332.786 436.282 355.032 444.598 355.272 448.71L312.229 448.593L312.146 413.997L333.642 414.113Z" fill="#FF725E"/>
<g opacity="0.6">
<path d="M319.481 434.381C318.647 434.607 318.069 435.542 318.26 436.384C318.451 437.226 319.397 437.822 320.234 437.612C321.071 437.401 321.8 436.3 321.516 435.485C321.232 434.669 320.083 434.03 319.321 434.436" fill="white"/>
</g>
<g opacity="0.6">
<path d="M312.23 448.593L312.222 445.143L353.58 446.521C353.58 446.521 355.494 447.36 355.274 448.709L312.23 448.593Z" fill="white"/>
</g>
<path d="M333.484 436.066C333.477 436.276 332.425 436.369 331.389 437.042C330.335 437.688 329.8 438.597 329.607 438.513C329.413 438.472 329.73 437.216 330.999 436.423C332.26 435.619 333.53 435.873 333.484 436.066Z" fill="#263238"/>
<path d="M337.995 437.944C338.043 438.148 337.131 438.503 336.415 439.39C335.673 440.256 335.49 441.217 335.281 441.207C335.083 441.239 334.941 440.008 335.853 438.922C336.754 437.828 337.991 437.744 337.995 437.944Z" fill="#263238"/>
<path d="M340.543 443.354C340.352 443.398 340.062 442.347 340.605 441.198C341.14 440.044 342.132 439.593 342.221 439.768C342.339 439.941 341.699 440.557 341.268 441.508C340.815 442.448 340.752 443.334 340.543 443.354Z" fill="#263238"/>
<path d="M333.119 430.991C333.03 431.182 332.067 430.89 330.879 430.967C329.689 431.02 328.764 431.417 328.655 431.236C328.534 431.084 329.438 430.308 330.839 430.236C332.238 430.154 333.223 430.826 333.119 430.991Z" fill="#263238"/>
<g opacity="0.3">
<path d="M333.468 418.504L333.32 422.454L312.166 422.204L312.148 418.644L333.468 418.504Z" fill="black"/>
</g>
<path d="M333.21 426.515C333.212 426.602 332.381 426.73 331.054 426.498C330.394 426.382 329.616 426.164 328.8 425.799C328.393 425.616 327.976 425.397 327.564 425.139C327.366 425.011 327.131 424.882 326.914 424.63C326.682 424.41 326.551 423.852 326.821 423.512C327.042 423.182 327.433 423.04 327.743 423.034C328.06 423.025 328.317 423.089 328.551 423.148C329.03 423.265 329.479 423.426 329.89 423.612C330.711 423.988 331.378 424.463 331.874 424.922C332.87 425.849 333.209 426.636 333.137 426.676C333.042 426.745 332.557 426.086 331.543 425.32C331.037 424.939 330.391 424.544 329.623 424.231C329.238 424.077 328.824 423.944 328.387 423.846C327.931 423.725 327.544 423.721 327.426 423.923C327.383 424 327.378 424.031 327.473 424.165C327.571 424.288 327.756 424.409 327.951 424.536C328.331 424.785 328.714 425.002 329.088 425.19C329.838 425.565 330.555 425.821 331.17 425.995C332.403 426.342 333.214 426.401 333.21 426.515Z" fill="#263238"/>
<path d="M332.935 426.816C332.86 426.848 332.445 426.094 332.372 424.732C332.338 424.057 332.41 423.239 332.672 422.373C332.805 421.941 332.987 421.499 333.225 421.066C333.478 420.641 333.787 420.073 334.603 419.981C335.029 419.966 335.382 420.3 335.502 420.585C335.643 420.876 335.671 421.126 335.721 421.376C335.799 421.879 335.788 422.372 335.718 422.828C335.58 423.744 335.203 424.505 334.791 425.052C333.947 426.165 333.069 426.414 333.052 426.343C332.982 426.237 333.716 425.834 334.362 424.763C334.681 424.236 334.965 423.539 335.05 422.739C335.093 422.34 335.088 421.918 335.014 421.493C334.948 421.035 334.777 420.666 334.606 420.712C334.392 420.708 334.027 421.052 333.85 421.416C333.628 421.801 333.451 422.196 333.313 422.583C333.041 423.36 332.922 424.105 332.89 424.733C332.827 425.996 333.049 426.784 332.935 426.816Z" fill="#263238"/>
<path d="M312.188 307.843C286.762 310.473 253.05 313.928 253.05 313.928L257.649 355.317C257.649 355.317 307.174 342.228 306.821 343.289C306.467 344.35 309.115 431.354 309.115 431.354H338.94L339.501 332.824C339.704 318 326.935 306.318 312.188 307.843Z" fill="#263238"/>
<path d="M192.205 324.54V337.374C192.205 346.111 202.156 355.376 210.893 355.376H217.648C222.972 355.376 231.312 351.501 235.61 348.36L238.193 346.473L269.246 442.682C269.246 442.682 304.782 436.312 304.782 435.191C304.782 434.07 280.717 356.391 269.608 320.337C265.072 305.617 249.301 297.057 234.731 302.054C234.234 302.224 233.737 302.409 233.24 302.607C217.322 308.975 192.205 324.54 192.205 324.54Z" fill="#263238"/>
<path d="M304.783 435.191C304.771 435.195 304.718 435.08 304.625 434.849C304.521 434.576 304.392 434.238 304.233 433.82C303.894 432.912 303.405 431.57 302.824 429.826C301.63 426.347 300 421.283 298.016 415.016C294.053 402.48 288.743 385.113 282.96 365.907C280.085 356.298 277.346 347.147 274.852 338.814C273.614 334.651 272.438 330.693 271.335 326.986C270.784 325.135 270.251 323.347 269.739 321.627C269.226 319.905 268.752 318.259 268.122 316.76C266.906 313.734 264.993 311.421 263.105 309.656C261.196 307.901 259.375 306.579 257.85 305.564C256.329 304.541 255.117 303.789 254.289 303.289C253.909 303.052 253.602 302.86 253.355 302.706C253.147 302.571 253.043 302.496 253.049 302.485C253.055 302.474 253.171 302.526 253.392 302.64C253.649 302.778 253.969 302.948 254.364 303.159C255.217 303.618 256.456 304.331 258.009 305.322C259.565 306.305 261.424 307.6 263.387 309.35C265.326 311.107 267.329 313.465 268.607 316.556C269.267 318.083 269.763 319.749 270.289 321.46C270.814 323.177 271.361 324.961 271.927 326.808C273.05 330.509 274.249 334.461 275.51 338.617C278.021 346.944 280.778 356.09 283.674 365.693C289.463 384.868 294.704 402.227 298.519 414.861C300.439 421.099 302 426.166 303.099 429.737C303.639 431.445 304.065 432.794 304.374 433.772C304.505 434.2 304.611 434.546 304.696 434.825C304.766 435.062 304.795 435.187 304.783 435.191Z" fill="#455A64"/>
<path d="M312.278 330.876C312.462 331.004 310.772 333.543 309.356 336.99C307.916 340.428 307.312 343.417 307.092 343.378C306.904 343.361 307.188 340.239 308.666 336.704C310.124 333.162 312.134 330.755 312.278 330.876Z" fill="#455A64"/>
<path d="M317.976 334.877C318.064 335.085 315.498 336.208 312.829 338.324C310.14 340.417 308.443 342.644 308.261 342.51C308.098 342.418 309.577 339.913 312.367 337.737C315.141 335.541 317.926 334.696 317.976 334.877Z" fill="#455A64"/>
<path d="M269.582 442.681C269.386 442.744 260.996 416.997 250.845 385.182C240.691 353.356 232.621 327.514 232.818 327.451C233.014 327.388 241.402 353.129 251.557 384.955C261.707 416.77 269.778 442.618 269.582 442.681Z" fill="#455A64"/>
<path d="M231.47 292.593L333.122 293.571L352.078 239.992L278.14 240.492L260.98 288.673L231.47 289.115V292.593Z" fill="#455A64"/>
<path d="M308.539 271.397C306.288 271.079 304.72 268.996 305.038 266.745C305.356 264.494 307.439 262.926 309.69 263.244C311.941 263.562 313.509 265.645 313.191 267.896C312.874 270.148 310.791 271.715 308.539 271.397Z" fill="white"/>
<path d="M223.176 147.566C224.135 144.001 226.818 142.246 230.312 141.055C233.806 139.863 237.875 140.524 240.812 142.76C242.776 144.255 244.315 146.429 246.647 147.239C250.487 148.574 254.988 145.699 258.67 147.422C260.849 148.442 262.117 151.101 261.536 153.437C260.956 155.772 258.591 157.529 256.187 157.41C258.693 158.325 259.472 161.9 258.008 164.131C256.544 166.362 253.536 167.204 250.914 166.714C248.291 166.224 246.005 164.634 244.021 162.85C242.037 161.067 240.258 159.049 238.138 157.429C236.018 155.809 233.446 154.583 230.782 154.727C227.175 154.922 224.08 157.641 222.473 160.876C220.866 164.111 220.494 167.805 220.293 171.412C220.092 175.018 220.028 178.685 218.96 182.135C218.834 182.54 218.644 182.994 218.238 183.118C217.652 183.298 217.154 182.676 216.864 182.137C213.581 176.048 211.51 169.309 210.807 162.428C210.399 158.431 210.504 154.646 212.702 151.283C214.9 147.92 220.452 145.443 223.176 147.566Z" fill="#263238"/>
<path d="M216.2 164.303L214.355 204.764C214.041 211.645 214.986 221.816 225.888 221.816C235.346 221.103 238.142 212.264 238.428 205.843C238.564 202.797 238.683 200.257 238.718 199.945C238.718 199.945 249.062 199.446 250.271 189.285C250.855 184.375 251.235 174.163 251.471 164.921C251.725 154.995 244.302 146.543 234.429 145.492L233.447 145.387C222.795 144.88 216.413 153.642 216.2 164.303Z" fill="#FFBE9D"/>
<path d="M238.75 199.8C238.75 199.8 232.264 199.639 225.887 194.619C225.887 194.619 228.243 202.275 238.493 202.439L238.75 199.8Z" fill="#EB996E"/>
<path d="M247.781 171.421C247.727 172.191 247.029 172.78 246.224 172.738C245.42 172.696 244.811 172.039 244.866 171.269C244.921 170.499 245.617 169.909 246.421 169.951C247.226 169.992 247.835 170.65 247.781 171.421Z" fill="#263238"/>
<path d="M248.753 169.683C248.553 169.853 247.539 168.921 245.975 168.759C244.415 168.574 243.182 169.257 243.033 169.047C242.959 168.953 243.178 168.631 243.717 168.32C244.247 168.01 245.124 167.747 246.097 167.855C247.07 167.964 247.852 168.41 248.283 168.827C248.724 169.248 248.851 169.608 248.753 169.683Z" fill="#263238"/>
<path d="M232.389 170.321C232.334 171.091 231.637 171.68 230.832 171.638C230.028 171.596 229.419 170.939 229.474 170.169C229.529 169.399 230.226 168.809 231.03 168.851C231.835 168.892 232.444 169.55 232.389 170.321Z" fill="#263238"/>
<path d="M233.353 168.339C233.152 168.509 232.137 167.578 230.574 167.415C229.014 167.231 227.781 167.913 227.632 167.703C227.558 167.609 227.776 167.287 228.316 166.977C228.846 166.667 229.722 166.404 230.696 166.512C231.669 166.621 232.45 167.067 232.883 167.484C233.322 167.903 233.45 168.264 233.353 168.339Z" fill="#263238"/>
<path d="M237.792 180.538C237.794 180.448 238.784 180.384 240.38 180.35C240.784 180.351 241.17 180.312 241.266 180.047C241.391 179.768 241.269 179.32 241.125 178.835C240.852 177.829 240.567 176.774 240.268 175.669C239.089 171.166 238.281 167.481 238.463 167.435C238.645 167.389 239.748 171.002 240.927 175.505C241.208 176.614 241.477 177.672 241.733 178.684C241.836 179.154 242.041 179.696 241.773 180.273C241.634 180.56 241.318 180.745 241.055 180.787C240.791 180.838 240.565 180.818 240.367 180.809C238.773 180.725 237.789 180.627 237.792 180.538Z" fill="#263238"/>
<path d="M233.077 181.13C233.333 181.142 233.156 182.84 234.48 184.199C235.801 185.562 237.631 185.564 237.619 185.802C237.631 185.911 237.181 186.089 236.415 186.028C235.663 185.974 234.595 185.617 233.785 184.786C232.978 183.953 232.701 182.927 232.718 182.224C232.728 181.508 232.962 181.108 233.077 181.13Z" fill="#263238"/>
<path d="M234.409 162.255C234.209 162.664 232.67 162.296 230.812 162.322C228.953 162.31 227.417 162.69 227.214 162.283C227.125 162.089 227.425 161.716 228.067 161.368C228.703 161.02 229.691 160.73 230.805 160.725C231.919 160.722 232.909 161.004 233.548 161.347C234.194 161.69 234.497 162.06 234.409 162.255Z" fill="#263238"/>
<path d="M248.66 165.096C248.347 165.422 247.309 164.939 246.016 164.783C244.728 164.582 243.599 164.767 243.386 164.369C243.295 164.177 243.505 163.84 244.02 163.555C244.528 163.27 245.347 163.081 246.234 163.202C247.121 163.325 247.858 163.729 248.27 164.141C248.688 164.554 248.799 164.936 248.66 165.096Z" fill="#263238"/>
<path d="M216.229 171.926C216.063 171.832 209.458 169.114 208.94 176.094C208.422 183.073 215.536 182.154 215.563 181.955C215.59 181.755 216.229 171.926 216.229 171.926Z" fill="#FFBE9D"/>
<path d="M213.627 179.152C213.598 179.127 213.499 179.228 213.287 179.307C213.08 179.384 212.731 179.421 212.377 179.258C211.66 178.932 211.126 177.716 211.185 176.456C211.214 175.819 211.392 175.224 211.655 174.741C211.906 174.246 212.263 173.914 212.639 173.876C213.015 173.818 213.261 174.06 213.332 174.263C213.411 174.465 213.356 174.601 213.393 174.616C213.411 174.635 213.552 174.51 213.517 174.218C213.499 174.077 213.429 173.907 213.275 173.76C213.118 173.611 212.877 173.524 212.616 173.533C212.075 173.53 211.554 173.989 211.266 174.521C210.948 175.053 210.733 175.72 210.7 176.435C210.64 177.845 211.263 179.214 212.25 179.581C212.731 179.746 213.152 179.628 213.376 179.479C213.602 179.319 213.65 179.166 213.627 179.152Z" fill="#EB996E"/>
<path d="M253.849 163.039C249.241 163.755 244.326 162.085 241.108 158.709C238.857 156.347 237.268 153.127 234.268 151.842C232.248 150.977 229.881 151.181 227.856 152.034C225.831 152.887 224.111 154.335 222.596 155.927C224.011 161.307 222.077 166.938 220.167 172.163C219.956 172.74 219.711 173.361 219.187 173.682C218.297 174.227 217.117 173.602 216.48 172.775C215.46 171.451 215.195 169.706 215.076 168.039C214.805 164.241 215.122 160.369 216.344 156.764C217.567 153.158 219.729 149.826 222.744 147.501C226.512 144.596 231.486 143.41 236.209 143.987C240.932 144.563 245.38 146.833 248.853 150.086C250.464 151.595 251.908 153.366 252.601 155.461" fill="#263238"/>
<path d="M58.3177 378.077C61.8827 376.238 66.0807 375.998 70.0377 376.653C72.1637 377.004 74.3807 377.641 75.8277 379.238C77.2747 380.835 77.5487 383.646 75.8877 385.018C74.8987 385.835 73.5197 385.959 72.2367 385.944C69.1387 385.908 65.7007 385.362 63.2257 387.227C61.8137 388.291 60.8737 390.059 59.1847 390.582C57.5327 391.094 55.6687 390.119 54.7927 388.628C53.9167 387.137 53.8877 385.274 54.2957 383.593C54.2957 383.593 54.7257 379.93 58.3177 378.077Z" fill="#FF725E"/>
<path d="M50.15 362.31C52.33 365.423 56.567 364.392 58.531 362.492C60.495 360.591 61.326 357.837 62.081 355.211C63.808 349.21 65.549 342.914 64.265 336.803C63.881 334.976 63.198 333.154 61.914 331.798C60.63 330.443 58.656 329.636 56.851 330.113C54.715 330.677 53.387 332.77 52.428 334.76C49.607 340.61 48.114 347.096 48.092 353.591C48.082 356.625 48.439 359.806 50.15 362.31Z" fill="#FF725E"/>
<path d="M44.1637 366.777C46.5307 363.968 46.9797 359.871 45.9267 356.352C44.8737 352.833 42.4947 349.839 39.7527 347.395C36.5377 344.529 32.7587 342.3 28.6957 340.871C27.0967 340.309 25.4107 339.865 23.7237 340.026C22.0367 340.187 20.3377 341.05 19.5507 342.551C18.3867 344.77 19.5027 347.462 20.7097 349.658C22.8357 353.527 25.2667 357.228 27.9717 360.717C30.1487 363.523 32.6417 366.291 35.9597 367.56C39.2767 368.828 42.7227 368.679 44.4817 366.378" fill="#FF725E"/>
<path d="M50.0024 409.275C50.0434 409.277 50.1094 408.773 50.1994 407.86C50.2994 406.83 50.4254 405.537 50.5754 403.999C50.7554 402.374 50.9924 400.441 51.4434 398.336C51.8934 396.236 52.5974 393.96 53.5014 391.652C54.4384 389.358 55.5804 387.272 56.9144 385.604C58.2394 383.929 59.7804 382.716 61.2294 382.017C62.6734 381.304 63.9684 381.014 64.8634 380.885C65.7664 380.792 66.2714 380.721 66.2724 380.681C66.2724 380.641 65.7664 380.634 64.8394 380.659C63.9204 380.72 62.5724 380.953 61.0504 381.645C59.5234 382.322 57.8884 383.554 56.4984 385.263C55.0974 386.966 53.9134 389.097 52.9604 391.432C52.0404 393.781 51.3464 396.08 50.9164 398.225C50.4884 400.367 50.2924 402.322 50.1634 403.96C50.0404 405.599 49.9944 406.927 49.9724 407.845C49.9514 408.764 49.9624 409.273 50.0024 409.275Z" fill="#263238"/>
<path d="M50.2689 406.303C50.2889 406.302 50.3019 406.077 50.3069 405.647C50.3059 405.154 50.3039 404.533 50.3019 403.77C50.2969 402.14 50.2979 399.784 50.3849 396.872C50.5289 391.05 51.0309 384.783 51.9989 375.949C52.9159 367.642 54.1469 357.974 55.4449 351.689C55.7239 350.259 56.0039 348.972 56.2679 347.846C56.5199 346.717 56.7349 345.745 56.9419 344.957C57.1199 344.216 57.2649 343.612 57.3809 343.132C57.4749 342.713 57.5149 342.49 57.4959 342.484C57.4769 342.478 57.3989 342.69 57.2679 343.099C57.1249 343.571 56.9449 344.167 56.7229 344.898C56.4809 345.678 56.2329 346.645 55.9509 347.77C55.6559 348.892 55.3469 350.175 55.0419 351.602C53.7569 357.297 52.3959 365.257 51.4189 374.113C50.4489 382.966 50.0119 391.026 49.9729 396.863C49.9379 399.781 49.9999 402.143 50.0749 403.773C50.1219 404.535 50.1589 405.157 50.1899 405.65C50.2219 406.081 50.2489 406.304 50.2689 406.303Z" fill="#263238"/>
<path d="M50.3074 390.757C50.3484 390.756 50.3414 390.059 50.2934 388.796C50.2214 387.536 50.0484 385.714 49.6934 383.483C49.3174 381.257 48.7914 378.614 47.9654 375.743C47.6074 374.43 46.7664 371.284 44.7284 366.584C42.0434 360.215 38.3964 355.008 35.2224 351.783C34.4784 350.927 33.6494 350.31 32.9864 349.704C32.6434 349.414 32.3404 349.125 32.0314 348.895C31.7214 348.681 31.4314 348.482 31.1634 348.297C30.1194 347.583 29.5344 347.206 29.5124 347.24C29.4184 347.367 31.8514 348.799 34.9234 352.067C37.9834 355.328 41.5284 360.499 44.1914 366.815C45.6764 370.24 46.7124 373.296 47.4464 375.89C48.2954 378.734 48.8594 381.35 49.2844 383.554C49.6894 385.763 49.9234 387.566 50.0654 388.814C50.1834 390.065 50.2674 390.758 50.3074 390.757Z" fill="#263238"/>
<path d="M35.2803 418.182L36.8383 439.524H64.2563L65.8133 418.182H35.2803Z" fill="#263238"/>
<path d="M69.0858 409.77H32.6328V418.182H69.0858V409.77Z" fill="#263238"/>
<path d="M32.6328 438.707V441.039H34.3458H68.4828V438.707H32.6328Z" fill="#455A64"/>
<path d="M36.0247 445.143L34.3457 441.039H67.1777L65.2187 445.143H36.0247Z" fill="#455A64"/>
<path d="M65.305 425.156C65.311 425.161 65.268 425.228 65.177 425.352C65.068 425.496 64.933 425.675 64.767 425.895C64.378 426.393 63.843 427.078 63.17 427.939L63.099 428.03L63.03 427.935C62.026 426.547 60.685 424.692 59.106 422.508H59.332C58.165 424.161 56.865 426.002 55.469 427.978L55.348 428.15L55.212 427.989C53.786 426.293 52.238 424.451 50.63 422.538L50.894 422.535C50.814 422.635 50.728 422.743 50.642 422.852C49.221 424.633 47.846 426.358 46.545 427.988L46.408 428.159L46.282 427.981C44.891 426.013 43.592 424.174 42.417 422.512L42.642 422.523C40.737 424.693 39.122 426.534 37.882 427.947L37.797 428.043L37.733 427.935C37.106 426.881 36.605 426.04 36.242 425.431C36.086 425.159 35.96 424.939 35.86 424.764C35.776 424.612 35.736 424.531 35.743 424.526C35.75 424.522 35.805 424.594 35.903 424.737C36.014 424.906 36.154 425.117 36.326 425.379C36.707 425.977 37.232 426.803 37.891 427.838L37.742 427.826C38.962 426.396 40.552 424.533 42.426 422.336L42.544 422.197L42.651 422.346C43.836 424.001 45.148 425.831 46.551 427.79L46.288 427.783C47.586 426.15 48.958 424.423 50.375 422.639C50.461 422.53 50.548 422.422 50.627 422.322L50.757 422.158L50.891 422.318C52.494 424.234 54.038 426.08 55.46 427.78L55.203 427.79C56.613 425.824 57.926 423.992 59.105 422.347L59.219 422.188L59.331 422.347C60.877 424.555 62.189 426.43 63.172 427.833L63.033 427.829C63.733 426.99 64.289 426.323 64.695 425.837C64.875 425.628 65.022 425.459 65.14 425.322C65.243 425.208 65.299 425.151 65.305 425.156Z" fill="#E0E0E0"/>
<path d="M66.1958 418.04C66.1958 418.134 59.3258 418.211 50.8528 418.211C42.3768 418.211 35.5088 418.135 35.5088 418.04C35.5088 417.946 42.3768 417.869 50.8528 417.869C59.3258 417.869 66.1958 417.946 66.1958 418.04Z" fill="#455A64"/>
<path d="M67.5805 441.269C67.5805 441.363 60.1145 441.44 50.9065 441.44C41.6955 441.44 34.2305 441.364 34.2305 441.269C34.2305 441.175 41.6955 441.098 50.9065 441.098C60.1145 441.099 67.5805 441.175 67.5805 441.269Z" fill="#263238"/>
<path d="M94.46 292.916V302.482H147.396V444.935H152.267V302.482L373.364 303.573V444.935H378.14V303.307L412.26 303.581V292.091L94.46 292.916Z" fill="#263238"/>
<path d="M128.336 300.621L149.21 315.652L147.396 317.393L126.35 301.536L128.336 300.621Z" fill="#263238"/>
<path d="M397.813 302.023L373.593 319.271L375.408 321.012L399.799 302.938L397.813 302.023Z" fill="#263238"/>
<path d="M226.159 289.395H171.443V293.421H226.159V289.395Z" fill="#263238"/>
<rect opacity="0.88" x="287.75" y="170.75" width="18.5" height="18.5" rx="3.25" fill="#AAEEAA" fill-opacity="0.917647" stroke="black" stroke-width="0.5"/>
<rect opacity="0.88" x="287.75" y="198.75" width="18.5" height="18.5" rx="3.25" fill="#AAEEAA" fill-opacity="0.917647" stroke="black" stroke-width="0.5"/>
<rect opacity="0.88" x="310.75" y="170.75" width="18.5" height="18.5" rx="3.25" fill="#AAEEAA" fill-opacity="0.917647" stroke="black" stroke-width="0.5"/>
<rect opacity="0.88" x="310.75" y="198.75" width="18.5" height="18.5" rx="3.25" fill="#AAEEAA" fill-opacity="0.917647" stroke="black" stroke-width="0.5"/>
<rect opacity="0.88" x="333.75" y="170.75" width="18.5" height="18.5" rx="3.25" fill="#AAEEAA" fill-opacity="0.917647" stroke="black" stroke-width="0.5"/>
<rect opacity="0.88" x="333.75" y="198.75" width="18.5" height="18.5" rx="3.25" fill="#AAEEAA" fill-opacity="0.917647" stroke="black" stroke-width="0.5"/>
<rect opacity="0.88" x="356.75" y="170.75" width="18.5" height="18.5" rx="3.25" fill="#AAEEAA" fill-opacity="0.917647" stroke="black" stroke-width="0.5"/>
<rect opacity="0.88" x="356.75" y="198.75" width="18.5" height="18.5" rx="3.25" fill="#AAEEAA" fill-opacity="0.917647" stroke="black" stroke-width="0.5"/>
<rect opacity="0.88" x="379.75" y="170.75" width="18.5" height="18.5" rx="3.25" fill="#AAEEAA" fill-opacity="0.917647" stroke="black" stroke-width="0.5"/>
<rect opacity="0.88" x="379.75" y="198.75" width="18.5" height="18.5" rx="3.25" fill="#AAEEAA" fill-opacity="0.917647" stroke="black" stroke-width="0.5"/>
<path d="M391.707 195.564L372.661 275.228H377.988L396.75 195.564H391.707Z" fill="#263238"/>
<path d="M384.393 248.033C384.049 249.493 393.019 292.916 393.019 292.916H388.701L381.926 258.505L384.393 248.033Z" fill="#263238"/>
<path d="M447.825 350.327H358.598V444.918H447.825V350.327Z" fill="#FF725E"/>
<path d="M452.205 364.15H447.824V368.531H452.205V364.15Z" fill="#263238"/>
<path d="M452.205 378.061H447.824V382.442H452.205V378.061Z" fill="#263238"/>
<path d="M452.205 391.971H447.824V396.352H452.205V391.971Z" fill="#263238"/>
<path d="M452.205 405.88H447.824V410.261H452.205V405.88Z" fill="#263238"/>
<path d="M452.366 393.251C452.361 393.217 452.839 393.107 453.714 392.956C454.588 392.812 455.863 392.604 457.467 392.601C459.054 392.602 461.045 392.874 462.889 394.029C463.797 394.605 464.652 395.421 465.208 396.479C465.767 397.533 466 398.787 465.901 400.033C465.805 401.282 465.393 402.469 464.763 403.464C464.135 404.461 463.319 405.271 462.456 405.904C460.713 407.17 458.814 407.73 457.238 407.965C455.651 408.203 454.352 408.151 453.467 408.093C452.58 408.025 452.096 407.934 452.099 407.902C452.102 407.863 452.593 407.885 453.475 407.89C454.355 407.886 455.637 407.88 457.178 407.601C458.709 407.327 460.524 406.746 462.171 405.518C463.805 404.318 465.222 402.352 465.382 399.993C465.473 398.834 465.26 397.68 464.756 396.716C464.255 395.747 463.476 394.985 462.63 394.433C460.909 393.324 459.011 393.016 457.46 392.969C455.894 392.926 454.62 393.075 453.741 393.157C452.86 393.246 452.371 393.288 452.366 393.251Z" fill="#263238"/>
<path d="M451.275 379.424C451.267 379.409 451.408 379.318 451.693 379.17C451.978 379.025 452.41 378.832 452.991 378.645C454.141 378.277 455.941 377.932 458.116 378.36C458.656 378.476 459.226 378.659 459.749 379.009C460.271 379.352 460.713 379.908 460.903 380.566C461.279 381.892 460.848 383.407 459.901 384.555C459.427 385.129 458.81 385.633 458.054 385.915C457.315 386.204 456.384 386.208 455.638 385.786C454.903 385.399 454.249 384.631 454.25 383.685C454.247 382.748 454.873 381.931 455.667 381.517C456.48 381.099 457.4 381.083 458.219 381.25C459.051 381.418 459.812 381.805 460.445 382.311C461.713 383.328 462.508 384.801 462.67 386.286C462.845 387.787 462.306 389.209 461.528 390.247C460.746 391.302 459.757 392.051 458.785 392.563C456.808 393.564 455.008 393.746 453.813 393.86C453.209 393.909 452.739 393.925 452.421 393.928C452.102 393.93 451.935 393.921 451.934 393.903C451.931 393.862 452.599 393.814 453.792 393.659C454.97 393.487 456.736 393.243 458.611 392.24C459.532 391.729 460.461 390.995 461.179 389.994C461.895 389.005 462.365 387.699 462.194 386.341C462.036 384.989 461.29 383.632 460.129 382.711C459.549 382.252 458.862 381.906 458.117 381.757C457.377 381.607 456.573 381.635 455.909 381.979C455.256 382.316 454.76 382.992 454.769 383.685C454.759 384.378 455.265 385.011 455.88 385.337C456.5 385.688 457.235 385.69 457.885 385.449C458.537 385.213 459.098 384.768 459.534 384.249C460.407 383.22 460.802 381.829 460.49 380.688C460.178 379.516 459.041 378.935 458.037 378.72C455.961 378.264 454.193 378.537 453.049 378.841C451.891 379.152 451.296 379.469 451.275 379.424Z" fill="#263238"/>
<path d="M451.32 365.848C451.315 365.824 451.654 365.711 452.293 365.669C452.929 365.626 453.873 365.683 454.971 366.045C456.056 366.416 457.3 367.114 458.305 368.291C459.32 369.454 459.976 371.117 460.035 372.892C460.085 374.668 459.532 376.368 458.59 377.592C457.66 378.828 456.46 379.601 455.4 380.038C454.326 380.466 453.388 380.581 452.751 380.577C452.111 380.574 451.766 380.482 451.769 380.458C451.756 380.342 453.219 380.608 455.254 379.7C456.247 379.242 457.357 378.476 458.204 377.307C459.06 376.153 459.56 374.57 459.515 372.908C459.458 371.247 458.862 369.698 457.937 368.599C457.02 367.484 455.865 366.789 454.846 366.392C452.759 365.609 451.314 365.964 451.32 365.848Z" fill="#263238"/>
<path d="M385.091 300.071C385.091 300.071 385.446 300.638 385.842 301.836C386.241 303.032 386.668 304.846 387.026 307.209C387.395 309.571 387.707 312.478 388.016 315.855C388.337 319.23 388.611 323.084 389.154 327.308C389.293 328.363 389.461 329.439 389.677 330.528C389.901 331.611 390.16 332.728 390.641 333.749C391.151 334.722 391.991 335.623 392.829 336.451C393.692 337.278 394.659 338.029 395.715 338.677C397.823 339.973 400.294 340.866 402.918 341.128C405.53 341.398 408.33 341.026 410.799 339.766C413.27 338.542 415.277 336.201 415.891 333.372C416.194 331.975 416.134 330.468 415.591 329.121C415.052 327.768 414.048 326.613 412.82 325.772C411.578 324.951 410.112 324.433 408.6 324.366C407.099 324.31 405.546 324.701 404.328 325.623C403.723 326.078 403.202 326.654 402.881 327.33C402.563 328.005 402.453 328.773 402.601 329.514C402.893 331.007 403.992 332.301 405.368 333.031C406.757 333.786 408.349 334.093 409.926 334.292C411.509 334.502 413.097 334.592 414.674 334.621C417.83 334.678 420.941 334.423 423.987 334.095C430.075 333.415 435.949 332.437 441.624 332.376C447.272 332.283 452.758 333.104 457.327 335.342C459.599 336.455 461.624 337.919 463.172 339.707C464.743 341.477 465.737 343.599 466.206 345.704C467.121 349.957 466.139 353.999 464.472 356.957C462.78 359.946 460.509 361.946 458.541 363.288C456.551 364.631 454.821 365.359 453.641 365.788C452.454 366.21 451.805 366.343 451.805 366.343C451.805 366.343 451.958 366.277 452.262 366.174C452.569 366.077 453.018 365.913 453.604 365.691C454.767 365.232 456.472 364.478 458.426 363.123C460.358 361.769 462.579 359.768 464.217 356.818C465.831 353.903 466.763 349.927 465.846 345.788C465.376 343.738 464.405 341.691 462.868 339.975C461.355 338.242 459.37 336.818 457.136 335.734C452.644 333.554 447.23 332.754 441.629 332.86C436.001 332.933 430.15 333.916 424.041 334.606C420.985 334.939 417.853 335.198 414.664 335.143C413.071 335.114 411.464 335.024 409.858 334.812C408.26 334.61 406.605 334.299 405.116 333.492C403.634 332.701 402.419 331.303 402.088 329.614C401.92 328.774 402.046 327.878 402.41 327.112C402.777 326.342 403.357 325.707 404.016 325.212C405.341 324.211 407.016 323.793 408.621 323.855C410.236 323.928 411.787 324.479 413.104 325.352C414.406 326.245 415.478 327.477 416.058 328.936C416.642 330.393 416.699 332 416.376 333.48C415.725 336.467 413.594 338.927 411.017 340.195C408.442 341.501 405.556 341.871 402.871 341.586C400.173 341.308 397.643 340.383 395.487 339.047C394.408 338.378 393.419 337.605 392.538 336.754C391.67 335.882 390.852 335.018 390.279 333.928C389.772 332.835 389.521 331.705 389.298 330.606C389.085 329.503 388.921 328.419 388.788 327.358C388.266 323.113 388.018 319.26 387.725 315.883C387.443 312.506 387.162 309.601 386.825 307.241C386.498 304.88 386.106 303.069 385.741 301.87C385.561 301.271 385.399 300.82 385.269 300.526C385.144 300.229 385.091 300.071 385.091 300.071Z" fill="#263238"/>
<path d="M442.749 440.962C442.749 440.962 442.74 440.817 442.736 440.544C442.733 440.259 442.729 439.858 442.723 439.334C442.717 438.258 442.708 436.688 442.696 434.645C442.682 430.538 442.662 424.544 442.636 416.927C442.608 401.701 442.568 380.002 442.52 354.043L442.748 354.271C419.135 354.28 391.499 354.292 362.094 354.304H362.086L362.346 354.044C362.332 385.998 362.319 415.858 362.308 440.962L362.086 440.74C386.299 440.787 406.434 440.826 420.534 440.854C427.587 440.879 433.126 440.898 436.919 440.912C438.805 440.923 440.253 440.932 441.247 440.938C442.23 440.946 442.749 440.962 442.749 440.962C442.749 440.962 442.263 440.979 441.297 440.987C440.313 440.993 438.879 441.001 437.012 441.013C433.231 441.026 427.708 441.046 420.677 441.071C406.544 441.098 386.359 441.138 362.088 441.185H361.866V440.962C361.855 415.858 361.842 385.998 361.828 354.044V353.784H362.089H362.097C391.501 353.796 419.137 353.807 442.751 353.817H442.979V354.045C442.931 380.065 442.891 401.814 442.863 417.075C442.837 424.67 442.817 430.647 442.803 434.741C442.791 436.765 442.783 438.32 442.776 439.386C442.77 439.899 442.766 440.292 442.763 440.571C442.758 440.835 442.749 440.962 442.749 440.962Z" fill="#263238"/>
<path d="M420.033 364.735C420.033 364.964 419.847 365.15 419.618 365.15C419.389 365.15 419.203 364.964 419.203 364.735C419.203 364.506 419.389 364.32 419.618 364.32C419.847 364.32 420.033 364.505 420.033 364.735Z" fill="#263238"/>
<path d="M422.311 364.735C422.311 364.964 422.125 365.15 421.896 365.15C421.667 365.15 421.481 364.964 421.481 364.735C421.481 364.506 421.667 364.32 421.896 364.32C422.125 364.32 422.311 364.505 422.311 364.735Z" fill="#263238"/>
<path d="M424.591 364.735C424.591 364.964 424.405 365.15 424.176 365.15C423.947 365.15 423.761 364.964 423.761 364.735C423.761 364.506 423.947 364.32 424.176 364.32C424.405 364.32 424.591 364.505 424.591 364.735Z" fill="#263238"/>
<path d="M426.87 364.735C426.87 364.964 426.684 365.15 426.455 365.15C426.226 365.15 426.04 364.964 426.04 364.735C426.04 364.506 426.226 364.32 426.455 364.32C426.684 364.32 426.87 364.505 426.87 364.735Z" fill="#263238"/>
<path d="M429.149 364.735C429.149 364.964 428.963 365.15 428.734 365.15C428.505 365.15 428.319 364.964 428.319 364.735C428.319 364.506 428.505 364.32 428.734 364.32C428.963 364.32 429.149 364.505 429.149 364.735Z" fill="#263238"/>
<path d="M431.428 364.735C431.428 364.964 431.242 365.15 431.013 365.15C430.784 365.15 430.598 364.964 430.598 364.735C430.598 364.506 430.784 364.32 431.013 364.32C431.242 364.32 431.428 364.505 431.428 364.735Z" fill="#263238"/>
<path d="M433.706 364.735C433.706 364.964 433.52 365.15 433.291 365.15C433.062 365.15 432.876 364.964 432.876 364.735C432.876 364.506 433.062 364.32 433.291 364.32C433.52 364.32 433.706 364.505 433.706 364.735Z" fill="#263238"/>
<path d="M432.241 366.682C432.47 366.682 432.656 366.496 432.656 366.267C432.656 366.037 432.47 365.852 432.241 365.852C432.011 365.852 431.826 366.037 431.826 366.267C431.826 366.496 432.011 366.682 432.241 366.682Z" fill="#263238"/>
<path d="M429.91 366.682C430.139 366.682 430.325 366.496 430.325 366.267C430.325 366.037 430.139 365.852 429.91 365.852C429.68 365.852 429.495 366.037 429.495 366.267C429.495 366.496 429.68 366.682 429.91 366.682Z" fill="#263238"/>
<path d="M427.993 366.267C427.993 366.496 427.807 366.682 427.578 366.682C427.349 366.682 427.163 366.496 427.163 366.267C427.163 366.038 427.349 365.852 427.578 365.852C427.807 365.852 427.993 366.038 427.993 366.267Z" fill="#263238"/>
<path d="M425.246 366.682C425.475 366.682 425.661 366.496 425.661 366.267C425.661 366.037 425.475 365.852 425.246 365.852C425.016 365.852 424.831 366.037 424.831 366.267C424.831 366.496 425.016 366.682 425.246 366.682Z" fill="#263238"/>
<path d="M422.915 366.682C423.144 366.682 423.329 366.496 423.329 366.267C423.329 366.037 423.144 365.852 422.915 365.852C422.685 365.852 422.5 366.037 422.5 366.267C422.5 366.496 422.685 366.682 422.915 366.682Z" fill="#263238"/>
<path d="M420.997 366.267C420.997 366.496 420.811 366.682 420.582 366.682C420.353 366.682 420.167 366.496 420.167 366.267C420.167 366.038 420.353 365.852 420.582 365.852C420.811 365.852 420.997 366.038 420.997 366.267Z" fill="#263238"/>
<path d="M420.033 367.999C420.033 368.228 419.847 368.414 419.618 368.414C419.389 368.414 419.203 368.228 419.203 367.999C419.203 367.77 419.389 367.584 419.618 367.584C419.847 367.584 420.033 367.77 420.033 367.999Z" fill="#263238"/>
<path d="M422.311 367.999C422.311 368.228 422.125 368.414 421.896 368.414C421.667 368.414 421.481 368.228 421.481 367.999C421.481 367.77 421.667 367.584 421.896 367.584C422.125 367.584 422.311 367.77 422.311 367.999Z" fill="#263238"/>
<path d="M424.591 367.999C424.591 368.228 424.405 368.414 424.176 368.414C423.947 368.414 423.761 368.228 423.761 367.999C423.761 367.77 423.947 367.584 424.176 367.584C424.405 367.584 424.591 367.77 424.591 367.999Z" fill="#263238"/>
<path d="M426.87 367.999C426.87 368.228 426.684 368.414 426.455 368.414C426.226 368.414 426.04 368.228 426.04 367.999C426.04 367.77 426.226 367.584 426.455 367.584C426.684 367.584 426.87 367.77 426.87 367.999Z" fill="#263238"/>
<path d="M429.149 367.999C429.149 368.228 428.963 368.414 428.734 368.414C428.505 368.414 428.319 368.228 428.319 367.999C428.319 367.77 428.505 367.584 428.734 367.584C428.963 367.584 429.149 367.77 429.149 367.999Z" fill="#263238"/>
<path d="M431.428 367.999C431.428 368.228 431.242 368.414 431.013 368.414C430.784 368.414 430.598 368.228 430.598 367.999C430.598 367.77 430.784 367.584 431.013 367.584C431.242 367.584 431.428 367.77 431.428 367.999Z" fill="#263238"/>
<path d="M433.706 367.999C433.706 368.228 433.52 368.414 433.291 368.414C433.062 368.414 432.876 368.228 432.876 367.999C432.876 367.77 433.062 367.584 433.291 367.584C433.52 367.584 433.706 367.77 433.706 367.999Z" fill="#263238"/>
<path d="M432.656 369.531C432.656 369.76 432.47 369.946 432.241 369.946C432.012 369.946 431.826 369.76 431.826 369.531C431.826 369.302 432.012 369.116 432.241 369.116C432.471 369.116 432.656 369.302 432.656 369.531Z" fill="#263238"/>
<path d="M430.325 369.531C430.325 369.76 430.139 369.946 429.91 369.946C429.681 369.946 429.495 369.76 429.495 369.531C429.495 369.302 429.681 369.116 429.91 369.116C430.139 369.116 430.325 369.302 430.325 369.531Z" fill="#263238"/>
<path d="M427.993 369.531C427.993 369.76 427.807 369.946 427.578 369.946C427.349 369.946 427.163 369.76 427.163 369.531C427.163 369.302 427.349 369.116 427.578 369.116C427.807 369.116 427.993 369.302 427.993 369.531Z" fill="#263238"/>
<path d="M425.661 369.531C425.661 369.76 425.475 369.946 425.246 369.946C425.017 369.946 424.831 369.76 424.831 369.531C424.831 369.302 425.017 369.116 425.246 369.116C425.475 369.116 425.661 369.302 425.661 369.531Z" fill="#263238"/>
<path d="M423.329 369.531C423.329 369.76 423.143 369.946 422.914 369.946C422.685 369.946 422.499 369.76 422.499 369.531C422.499 369.302 422.685 369.116 422.914 369.116C423.144 369.116 423.329 369.302 423.329 369.531Z" fill="#263238"/>
<path d="M420.997 369.531C420.997 369.76 420.811 369.946 420.582 369.946C420.353 369.946 420.167 369.76 420.167 369.531C420.167 369.302 420.353 369.116 420.582 369.116C420.811 369.116 420.997 369.302 420.997 369.531Z" fill="#263238"/>
<path d="M420.033 371.265C420.033 371.494 419.847 371.68 419.618 371.68C419.389 371.68 419.203 371.494 419.203 371.265C419.203 371.036 419.389 370.85 419.618 370.85C419.847 370.85 420.033 371.036 420.033 371.265Z" fill="#263238"/>
<path d="M422.311 371.265C422.311 371.494 422.125 371.68 421.896 371.68C421.667 371.68 421.481 371.494 421.481 371.265C421.481 371.036 421.667 370.85 421.896 370.85C422.125 370.85 422.311 371.036 422.311 371.265Z" fill="#263238"/>
<path d="M424.591 371.265C424.591 371.494 424.405 371.68 424.176 371.68C423.947 371.68 423.761 371.494 423.761 371.265C423.761 371.036 423.947 370.85 424.176 370.85C424.405 370.85 424.591 371.036 424.591 371.265Z" fill="#263238"/>
<path d="M426.87 371.265C426.87 371.494 426.684 371.68 426.455 371.68C426.226 371.68 426.04 371.494 426.04 371.265C426.04 371.036 426.226 370.85 426.455 370.85C426.684 370.85 426.87 371.036 426.87 371.265Z" fill="#263238"/>
<path d="M429.149 371.265C429.149 371.494 428.963 371.68 428.734 371.68C428.505 371.68 428.319 371.494 428.319 371.265C428.319 371.036 428.505 370.85 428.734 370.85C428.963 370.85 429.149 371.036 429.149 371.265Z" fill="#263238"/>
<path d="M431.428 371.265C431.428 371.494 431.242 371.68 431.013 371.68C430.784 371.68 430.598 371.494 430.598 371.265C430.598 371.036 430.784 370.85 431.013 370.85C431.242 370.85 431.428 371.036 431.428 371.265Z" fill="#263238"/>
<path d="M433.706 371.265C433.706 371.494 433.52 371.68 433.291 371.68C433.062 371.68 432.876 371.494 432.876 371.265C432.876 371.036 433.062 370.85 433.291 370.85C433.52 370.85 433.706 371.036 433.706 371.265Z" fill="#263238"/>
<path d="M432.241 373.211C432.47 373.211 432.656 373.025 432.656 372.796C432.656 372.567 432.47 372.381 432.241 372.381C432.011 372.381 431.826 372.567 431.826 372.796C431.826 373.025 432.011 373.211 432.241 373.211Z" fill="#263238"/>
<path d="M429.91 373.211C430.139 373.211 430.325 373.025 430.325 372.796C430.325 372.567 430.139 372.381 429.91 372.381C429.68 372.381 429.495 372.567 429.495 372.796C429.495 373.025 429.68 373.211 429.91 373.211Z" fill="#263238"/>
<path d="M427.993 372.796C427.993 373.025 427.807 373.211 427.578 373.211C427.349 373.211 427.163 373.025 427.163 372.796C427.163 372.567 427.349 372.381 427.578 372.381C427.807 372.381 427.993 372.566 427.993 372.796Z" fill="#263238"/>
<path d="M425.246 373.211C425.475 373.211 425.661 373.025 425.661 372.796C425.661 372.567 425.475 372.381 425.246 372.381C425.016 372.381 424.831 372.567 424.831 372.796C424.831 373.025 425.016 373.211 425.246 373.211Z" fill="#263238"/>
<path d="M422.915 373.211C423.144 373.211 423.329 373.025 423.329 372.796C423.329 372.567 423.144 372.381 422.915 372.381C422.685 372.381 422.5 372.567 422.5 372.796C422.5 373.025 422.685 373.211 422.915 373.211Z" fill="#263238"/>
<path d="M420.997 372.796C420.997 373.025 420.811 373.211 420.582 373.211C420.353 373.211 420.167 373.025 420.167 372.796C420.167 372.567 420.353 372.381 420.582 372.381C420.811 372.381 420.997 372.566 420.997 372.796Z" fill="#263238"/>
<path d="M388.496 271.294C388.496 271.294 389.078 271.256 390.121 271.578C391.153 271.891 392.647 272.63 394.062 274.155C395.491 275.665 396.68 277.966 397.547 280.754C398.411 283.543 399.204 286.782 399.742 290.418C400.856 297.693 401.017 306.474 400.379 316.169C400.137 318.578 399.619 321.145 398.139 323.311C397.411 324.383 396.473 325.352 395.321 326.04C394.182 326.728 392.795 327.119 391.419 326.966C390.057 326.827 388.705 326.257 387.714 325.242C387.222 324.736 386.833 324.113 386.62 323.427C386.399 322.731 386.405 321.973 386.59 321.276C386.966 319.889 387.971 318.641 389.381 318.131C390.082 317.876 390.883 317.883 391.592 318.136C392.298 318.396 392.903 318.881 393.354 319.466C394.273 320.645 394.539 322.208 394.325 323.613C394.126 325.036 393.556 326.341 392.884 327.547C391.516 329.96 389.512 331.949 387.189 333.288C382.521 336.024 376.69 335.865 372.382 333.495C370.21 332.324 368.41 330.667 366.983 328.841C365.549 327.011 364.483 325 363.705 322.973C362.155 318.896 361.707 314.826 361.515 311.169C361.316 307.498 361.522 304.172 361.157 301.295C360.975 299.861 360.678 298.539 360.227 297.389C359.788 296.235 359.183 295.265 358.555 294.471C357.284 292.874 355.849 292.066 354.844 291.725C353.828 291.38 353.247 291.381 353.253 291.343C353.253 291.343 353.834 291.308 354.877 291.625C355.908 291.939 357.391 292.734 358.712 294.342C359.365 295.142 359.995 296.123 360.458 297.297C360.932 298.466 361.247 299.806 361.446 301.257C361.842 304.17 361.66 307.501 361.883 311.148C362.097 314.785 362.566 318.815 364.108 322.816C364.881 324.805 365.936 326.774 367.344 328.558C368.745 330.339 370.503 331.944 372.61 333.072C376.783 335.355 382.436 335.495 386.934 332.846C389.178 331.549 391.116 329.621 392.434 327.291C393.084 326.126 393.628 324.866 393.811 323.542C394.008 322.228 393.76 320.836 392.942 319.783C392.54 319.263 392.014 318.845 391.413 318.624C390.811 318.414 390.156 318.405 389.554 318.621C388.345 319.049 387.418 320.179 387.092 321.407C386.729 322.649 387.191 323.981 388.085 324.884C388.972 325.797 390.218 326.33 391.471 326.458C392.733 326.599 393.991 326.247 395.065 325.606C396.141 324.966 397.033 324.053 397.729 323.032C399.142 320.975 399.658 318.496 399.903 316.121C400.563 306.484 400.442 297.708 399.38 290.472C398.868 286.85 398.104 283.622 397.271 280.841C396.437 278.066 395.293 275.794 393.915 274.292C392.549 272.775 391.098 272.019 390.091 271.678C389.071 271.328 388.489 271.331 388.496 271.294Z" fill="#E0E0E0"/>
<path d="M380.649 285.763H347.427V292.092H380.649V285.763Z" fill="#E0E0E0"/>
<path d="M140.854 351.198H97.5234V444.47H140.854V351.198Z" fill="#263238"/>
<path d="M137.127 434.646C137.127 434.646 137.117 434.505 137.112 434.243C137.108 433.964 137.103 433.581 137.097 433.084C137.09 432.05 137.079 430.554 137.066 428.621C137.05 424.721 137.027 419.066 136.998 411.958C136.969 397.741 136.928 377.721 136.88 354.426L137.127 354.673C125.878 354.677 113.617 354.682 100.878 354.686H100.873L101.133 354.426C101.105 385.587 101.08 413.885 101.061 434.646L100.873 434.458C112.033 434.501 121.072 434.535 127.342 434.559C130.468 434.579 132.903 434.595 134.576 434.606C135.394 434.615 136.023 434.622 136.469 434.627C136.898 434.633 137.127 434.646 137.127 434.646C137.127 434.646 136.923 434.659 136.507 434.666C136.069 434.671 135.451 434.678 134.648 434.686C132.984 434.697 130.564 434.713 127.456 434.733C121.159 434.757 112.081 434.792 100.873 434.834L100.685 434.835V434.646C100.666 413.885 100.641 385.587 100.613 354.426V354.165H100.874H100.879C113.618 354.17 125.879 354.174 137.128 354.178H137.376V354.425C137.328 377.788 137.287 397.866 137.258 412.124C137.229 419.207 137.206 424.844 137.19 428.73C137.177 430.641 137.166 432.12 137.159 433.142C137.152 433.627 137.148 434 137.144 434.272C137.137 434.526 137.127 434.646 137.127 434.646Z" fill="#455A64"/>
<path d="M134.889 361.217C134.875 361.203 134.86 360.868 134.84 360.244C134.824 359.578 134.802 358.681 134.775 357.541L134.889 357.655C129.282 357.742 117.263 357.801 103.366 357.801C103.482 357.685 103.104 358.061 103.625 357.541V357.543V357.547V357.554V357.569V357.598V357.657V357.775V358.011V358.481C103.625 358.793 103.625 359.103 103.625 359.411C103.625 360.026 103.624 360.63 103.624 361.217L103.365 360.958C112.183 360.964 120.018 361.017 125.688 361.069C128.488 361.101 130.76 361.127 132.396 361.145C133.152 361.16 133.76 361.172 134.229 361.181C134.65 361.193 134.877 361.205 134.889 361.217C134.901 361.229 134.697 361.24 134.297 361.252C133.843 361.261 133.254 361.273 132.522 361.288C130.901 361.307 128.649 361.332 125.874 361.364C120.217 361.417 112.289 361.47 103.364 361.475H103.105V361.216C103.105 360.629 103.104 360.025 103.104 359.41C103.104 359.102 103.104 358.792 103.104 358.48V358.01V357.774V357.656V357.597V357.568V357.553V357.546V357.542V357.54C103.624 357.019 103.249 357.396 103.365 357.28C117.263 357.28 129.282 357.34 134.889 357.426L135.006 357.428L135.003 357.541C134.976 358.709 134.954 359.628 134.938 360.31C134.918 360.926 134.904 361.231 134.889 361.217Z" fill="#455A64"/>
<path d="M106.539 363.858C106.539 364.002 105.888 364.118 105.086 364.118C104.283 364.118 103.633 364.001 103.633 363.858C103.633 363.715 104.284 363.598 105.086 363.598C105.888 363.597 106.539 363.714 106.539 363.858Z" fill="#455A64"/>
<path d="M134.047 368.669C134.047 368.813 127.337 368.929 119.062 368.929C110.784 368.929 104.075 368.812 104.075 368.669C104.075 368.526 110.784 368.409 119.062 368.409C127.337 368.409 134.047 368.526 134.047 368.669Z" fill="#455A64"/>
<path d="M134.177 374.484C134.177 374.628 127.583 374.744 119.45 374.744C111.315 374.744 104.722 374.628 104.722 374.484C104.722 374.34 111.315 374.224 119.45 374.224C127.583 374.224 134.177 374.34 134.177 374.484Z" fill="#455A64"/>
<path d="M119.062 390.452C120.379 390.452 121.447 389.384 121.447 388.067C121.447 386.749 120.379 385.682 119.062 385.682C117.745 385.682 116.677 386.749 116.677 388.067C116.677 389.384 117.745 390.452 119.062 390.452Z" fill="#FF725E"/>
<path d="M112.341 387.956C112.341 388.1 110.914 388.216 109.153 388.216C107.392 388.216 105.965 388.099 105.965 387.956C105.965 387.812 107.392 387.696 109.153 387.696C110.914 387.696 112.341 387.813 112.341 387.956Z" fill="#455A64"/>
<path d="M131.699 387.342C131.699 387.486 130.34 387.602 128.665 387.602C126.989 387.602 125.631 387.485 125.631 387.342C125.631 387.198 126.989 387.082 128.665 387.082C130.34 387.081 131.699 387.198 131.699 387.342Z" fill="#455A64"/>
<path d="M99.0118 398.005C99.0118 398.005 98.4398 397.978 97.3888 397.707C96.3458 397.43 94.8128 396.881 93.0988 395.721C91.3858 394.578 89.5078 392.804 87.9268 390.328C86.3358 387.86 85.0578 384.733 84.1548 381.166C83.2448 377.606 82.6488 373.557 82.9588 369.216C83.2508 364.903 84.5798 360.243 87.5088 356.282C88.9518 354.304 90.7778 352.514 92.9418 351.121C94.0288 350.433 95.1958 349.845 96.4288 349.388C97.6698 348.947 98.9668 348.645 100.288 348.468C102.932 348.101 105.634 348.151 108.339 347.993C111.03 347.841 113.793 347.409 116.253 346.169C118.709 344.966 120.643 342.759 121.166 340.132C121.762 337.543 121.09 334.747 119.386 332.818C117.722 330.883 115.198 329.684 112.747 329.833C111.529 329.92 110.326 330.324 109.41 331.071C108.489 331.804 107.934 332.948 108.013 334.088C108.177 336.391 110.285 338.308 112.473 338.397C114.703 338.549 116.791 337.361 118.191 335.829C119.601 334.249 120.409 332.298 120.957 330.4C121.498 328.489 121.828 326.594 122.11 324.791C123.126 317.538 122.783 311.57 122.639 307.484C122.536 305.457 122.456 303.873 122.4 302.768C122.376 302.248 122.357 301.842 122.343 301.541C122.333 301.264 122.332 301.122 122.341 301.122C122.35 301.121 122.368 301.262 122.396 301.538C122.423 301.838 122.459 302.243 122.505 302.762C122.592 303.839 122.719 305.426 122.841 307.474C123.047 311.56 123.449 317.536 122.474 324.844C122.201 326.663 121.882 328.566 121.342 330.511C120.794 332.442 119.981 334.455 118.51 336.118C117.046 337.73 114.864 339.004 112.44 338.854C110.032 338.744 107.738 336.711 107.532 334.115C107.436 332.817 108.076 331.506 109.097 330.694C110.113 329.865 111.405 329.435 112.71 329.338C115.357 329.178 117.999 330.442 119.77 332.487C121.581 334.53 122.3 337.512 121.669 340.246C121.37 341.612 120.758 342.936 119.834 344.022C118.934 345.127 117.755 345.989 116.486 346.635C113.924 347.926 111.091 348.359 108.366 348.512C105.633 348.669 102.946 348.618 100.355 348.976C99.0598 349.148 97.7998 349.44 96.5968 349.865C95.3998 350.306 94.2648 350.876 93.2068 351.542C91.0978 352.893 89.3098 354.637 87.8928 356.568C85.0168 360.436 83.6948 364.995 83.3878 369.25C83.0638 373.528 83.6308 377.54 84.5108 381.077C85.3838 384.622 86.6248 387.723 88.1718 390.173C89.7098 392.631 91.5378 394.4 93.2128 395.555C94.8878 396.726 96.3908 397.299 97.4168 397.607C97.9328 397.758 98.3328 397.856 98.6038 397.907C98.8748 397.963 99.0128 397.996 99.0118 398.005Z" fill="#263238"/>
<path d="M186.851 206.511H84.2471V276.967H186.851V206.511Z" fill="#263238"/>
<path d="M141.587 267.36H127.617V293.938H141.587V267.36Z" fill="#263238"/>
</svg>
