<svg width="457" height="457" viewBox="0 0 457 457" fill="none" xmlns="http://www.w3.org/2000/svg">
<path d="M379.726 219.399C380.078 206.996 381.339 194.387 380.651 181.996C380.551 180.216 378.67 180.092 377.875 180.085C339.332 180.026 300.74 180.632 262.197 181.591C262.026 181.601 261.865 181.676 261.747 181.801C261.63 181.926 261.564 182.091 261.564 182.262C261.564 182.433 261.63 182.598 261.747 182.723C261.865 182.848 262.026 182.923 262.197 182.933C300.74 184.034 378.57 183.186 378.57 183.186C377.132 205.335 376.356 219.778 375.789 246.362C375.332 266.851 374.767 330.66 375.128 342.039C314.491 342.359 160.656 343.493 144.538 344.781C139.106 282.524 141.279 221.268 140.002 184.262C154.612 186.653 191.76 184.854 234.03 184.991C234.461 184.991 234.874 184.82 235.179 184.515C235.483 184.211 235.654 183.798 235.654 183.367C235.654 182.936 235.483 182.523 235.179 182.218C234.874 181.913 234.461 181.742 234.03 181.742C206.756 181.653 180.664 183.072 141.192 182.016C138.352 181.708 137.749 182.016 137.706 183.202C136.883 205.076 140.37 345.453 142.207 346.669C156.262 347.594 292.363 345.714 376.744 345.264C377.096 345.274 377.442 345.162 377.72 344.945C377.998 344.729 378.192 344.422 378.268 344.078C378.268 344.078 379.136 240.09 379.726 219.399Z" fill="#976EFF"/>
<path d="M280.127 209.045C257.789 209.045 235.419 209.55 213.122 210.796C212.998 210.796 212.569 210.933 212.452 211.774C211.954 215.331 211.858 225.301 211.858 229.997C211.824 236.395 212.126 286.93 212.126 286.93C212.125 287.172 212.176 287.413 212.274 287.635C212.373 287.857 212.516 288.056 212.696 288.219C212.877 288.382 213.089 288.505 213.319 288.581C213.55 288.657 213.794 288.684 214.036 288.659C214.664 288.924 274.618 289.466 280.509 288.63C282.186 288.401 281.558 286.086 280.159 285.904C274.591 285.186 227.698 286.781 215.375 286.667C215.027 228.808 215.219 230.129 214.159 212.176C214.159 212.176 256.937 212.525 278.55 212.299C279.007 237.407 280.203 262.48 282.138 287.519C282.298 289.576 285.543 289.631 285.383 287.519C283.402 261.945 282.194 236.325 281.759 210.656C281.75 210.228 281.575 209.82 281.27 209.519C280.966 209.218 280.555 209.048 280.127 209.045Z" fill="#976EFF"/>
<path d="M264.528 254.042C263.342 253.747 255.538 251.985 255.509 252.12C254.012 259.092 244.468 259.608 242.308 253.774C242.018 252.986 242.183 252.097 241.122 252.554C229.208 257.497 228.873 257.81 227.947 258.982C226.636 260.648 224.714 273.035 225.84 273.663C230.584 276.291 253.907 277.221 272.402 274.061C274.063 273.777 275.183 273.03 275.189 271.184C274.713 266.656 273.552 262.228 271.744 258.05C269.806 256.006 267.287 254.607 264.528 254.042Z" fill="#976EFF"/>
<path d="M351.891 230.394C342.751 230.602 306.191 231.052 296.352 231.699C295.024 231.788 296.884 247.212 297.296 247.561C297.707 247.911 341.965 247.216 352.538 247.104C352.04 241.499 352.385 235.938 351.891 230.394Z" fill="#976EFF"/>
<path d="M298.926 271.042C298.926 271.042 351.885 271.476 351.885 270.741C351.853 264.915 351.825 259.094 351.801 253.276C346.276 253.733 298.435 253.505 298.078 254.113C297.722 254.72 298.755 267.989 298.926 271.042Z" fill="#976EFF"/>
<path d="M171.133 217.628C166.039 217.69 159.936 222.116 159.813 227.168C159.605 236.276 174.085 239.87 178.52 232.112C183.899 222.726 176.564 217.559 171.133 217.628Z" fill="#976EFF"/>
<path d="M173.316 245.509C168.424 244.545 162.725 249.275 162.019 253.964C161.661 256.373 162.246 258.826 163.651 260.815C165.057 262.804 167.174 264.174 169.564 264.641C171.954 265.107 174.432 264.635 176.483 263.321C178.533 262.008 179.998 259.954 180.573 257.588C181.713 252.908 178.208 246.471 173.316 245.509Z" fill="#976EFF"/>
<path d="M167.836 293.12C170.016 294.114 172.466 294.348 174.796 293.787C177.125 293.226 179.199 291.901 180.687 290.024C182.06 288.063 182.689 285.676 182.459 283.293C182.23 280.91 181.157 278.687 179.435 277.024C178.192 276.004 176.749 275.256 175.199 274.826C173.65 274.397 172.027 274.297 170.437 274.531C168.846 274.766 167.322 275.331 165.962 276.19C164.603 277.048 163.438 278.182 162.542 279.517C159.334 284.355 163.2 290.913 167.836 293.12Z" fill="#976EFF"/>
<path d="M222.806 92.7098C223.171 92.802 223.558 92.7483 223.884 92.5601C224.21 92.3719 224.451 92.0641 224.554 91.7018C224.657 91.3395 224.615 90.9513 224.437 90.6195C224.258 90.2877 223.958 90.0383 223.599 89.9244C203.155 84.0359 101.753 40.1114 100.842 40.6415C87.8611 47.4828 28.9721 77.1147 22.7409 81.2779C22.593 81.3628 22.4849 81.5029 22.4403 81.6674C22.3958 81.832 22.4184 82.0075 22.5032 82.1554C22.5881 82.3032 22.7282 82.4114 22.8927 82.4559C23.0573 82.5005 23.2328 82.4779 23.3807 82.393C30.0757 79.4225 87.091 50.2819 99.4369 44.494C98.5412 48.5339 94.6932 69.1926 94.8875 71.6124C94.8922 71.8658 94.9789 72.1108 95.1346 72.3108C95.2903 72.5107 95.5066 72.6548 95.7511 72.7215C95.9957 72.7881 96.2552 72.7738 96.4908 72.6805C96.7265 72.5872 96.9256 72.4201 97.0582 72.2042C98.2441 70.0883 101.44 50.1768 101.701 46.7059C102.258 50.2294 105.924 70.0814 107.459 72.2979C107.962 73.0291 109.381 73.1113 109.575 72.0442C110.032 69.5056 105.099 48.2368 103.693 43.8176C108.106 45.6868 202.606 86.9836 222.806 92.7098Z" fill="#976EFF"/>
<path d="M238.905 166.275C239.625 166.883 242.003 166.563 243.502 166.517C242.586 169.057 242.681 171.851 243.767 174.323C243.835 174.485 243.963 174.615 244.124 174.685C244.286 174.756 244.468 174.762 244.633 174.702H244.674C247.604 175.424 250.604 174.617 253.387 176.279C254.077 176.621 254.677 177.12 255.139 177.736C255.601 178.352 255.912 179.068 256.048 179.826C256.184 180.584 256.141 181.363 255.922 182.102C255.702 182.84 255.313 183.516 254.785 184.077C250.001 189.365 243.361 183.915 239.124 181.045C238.503 180.625 237.808 181.42 238.128 182.025C241.841 188.981 253.369 192.852 258.236 184.87C263.103 176.889 252.793 169.855 245.451 171.955C245.779 170.091 246.228 168.251 246.797 166.446C248.314 166.606 249.845 166.565 251.351 166.323C252.4 165.996 258.702 153.87 258.75 153.312C258.828 152.245 256.769 152.72 256.065 152.72C254.731 152.773 233.821 152.885 232.53 152.855C231.492 152.855 229.209 152.382 230.158 153.947C230.514 154.617 238.295 165.758 238.905 166.275Z" fill="#976EFF"/>
<path d="M314.16 310.771C313.971 310.543 263.662 311.866 232.298 312.302C225.107 312.403 189.747 312.19 189.189 313.008C189.321 319.45 189.786 325.88 190.583 332.273C191.07 333.37 207.512 332.831 211.118 332.819C213.225 332.819 314.4 332.221 315.026 331.563C315.156 324.621 314.867 317.678 314.16 310.771ZM213.828 324.63C213.642 325.169 213.324 325.652 212.904 326.037C212.484 326.422 211.974 326.696 211.421 326.834C210.868 326.973 210.29 326.971 209.738 326.83C209.186 326.688 208.678 326.411 208.26 326.024C207.855 325.606 207.569 325.089 207.428 324.525C207.287 323.96 207.297 323.369 207.456 322.81C207.616 322.251 207.921 321.744 208.338 321.34C208.756 320.935 209.273 320.648 209.837 320.507C210.401 320.366 210.993 320.376 211.552 320.535C212.111 320.695 212.618 320.999 213.023 321.417C213.427 321.835 213.714 322.351 213.856 322.915C213.997 323.479 213.988 324.071 213.828 324.63ZM231.16 326.604C232.189 326.601 233.175 326.19 233.901 325.46C234.627 324.731 235.034 323.743 235.033 322.714C235.031 321.685 234.621 320.698 233.893 319.971C233.165 319.244 232.178 318.835 231.148 318.835C230.119 318.835 229.132 319.244 228.404 319.971C227.675 320.698 227.265 321.685 227.264 322.714C227.262 323.743 227.669 324.731 228.396 325.46C229.122 326.19 230.108 326.601 231.137 326.604H231.16ZM254.149 325.722C253.625 325.9 253.064 325.933 252.522 325.819C251.981 325.705 251.481 325.448 251.073 325.074C250.665 324.701 250.365 324.224 250.205 323.695C250.044 323.166 250.028 322.603 250.16 322.066C250.336 321.414 250.719 320.837 251.251 320.42C251.783 320.004 252.436 319.771 253.111 319.757C253.786 319.742 254.448 319.946 254.998 320.339C255.548 320.732 255.955 321.292 256.16 321.936C256.285 322.316 256.332 322.718 256.298 323.117C256.264 323.516 256.15 323.904 255.962 324.258C255.774 324.611 255.517 324.923 255.205 325.175C254.894 325.427 254.534 325.613 254.149 325.722ZM275.119 325.395C274.441 325.673 273.698 325.749 272.979 325.616C272.259 325.482 271.593 325.144 271.061 324.641C270.599 324.119 270.32 323.461 270.264 322.767C270.208 322.072 270.378 321.378 270.75 320.788C271.121 320.199 271.674 319.745 272.325 319.496C272.976 319.247 273.69 319.216 274.36 319.406C276.986 320.165 277.817 324.495 275.114 325.395H275.119ZM296.662 323.433C296.316 324.02 295.794 324.485 295.17 324.759C294.546 325.033 293.851 325.104 293.185 324.962C292.518 324.819 291.913 324.469 291.456 323.963C290.999 323.457 290.713 322.82 290.639 322.142C290.564 321.465 290.706 320.781 291.042 320.188C291.378 319.595 291.893 319.123 292.513 318.839C293.133 318.555 293.827 318.473 294.495 318.606C295.164 318.739 295.774 319.079 296.239 319.578C296.699 320.098 296.987 320.748 297.063 321.438C297.138 322.128 296.998 322.825 296.662 323.433Z" fill="#976EFF"/>
<path d="M418.5 378.586C409.479 370.313 399.815 362.771 389.599 356.028C393.05 304.764 395.293 262.766 394.626 210.963C394.455 197.323 394.946 183.271 393.287 169.732C393.255 169.106 392.977 168.517 392.514 168.094C392.05 167.672 391.439 167.448 390.813 167.472C383.976 167.015 291.257 167.621 258.602 169.168C258.469 169.168 258.34 169.221 258.245 169.316C258.151 169.41 258.098 169.539 258.098 169.673C258.098 169.807 258.151 169.935 258.245 170.03C258.34 170.124 258.469 170.178 258.602 170.178C294.395 171.295 352.004 170.306 391.441 169.721C391.555 225.139 391.985 259.889 389.087 314.663C388.37 328.373 386.514 355.971 386.519 356.046C320.563 357.139 150.762 357.287 131.824 357.938C131.323 340.2 129.141 329.113 127.21 285.602C126.125 261.176 126.996 179.037 126.504 172.65C135.208 173.244 213.826 172.058 230.134 171.464C232.215 171.386 232.256 168.133 230.134 168.208C213.654 168.802 133.572 168.453 124.642 170.315C123.676 170.516 122.549 231.338 122.72 243.663C123.081 269.561 125.412 332.92 129.635 358.167C126.235 360.909 88.0483 402.777 87.7947 404.296C86.8807 408.078 89.2365 415.747 89.2365 415.747H443.845C444.74 411.935 445.317 408.055 445.57 404.148C445.648 403.444 422.88 382.525 418.5 378.586ZM101.203 393.422C101.203 393.422 118.34 374.098 121.731 370.165C125.065 366.731 128.142 363.056 130.94 359.172C131.157 359.661 387.943 360.466 390.611 359.024C394.804 362.824 419.965 382.404 429.685 393.07C432.841 396.536 436.163 399.846 439.641 402.99C394.93 402.761 116.999 402.894 91.8643 403.981C95.2323 400.746 98.148 396.873 101.203 393.422Z" fill="black"/>
<path d="M246.91 184.925C238.803 193.105 231.018 201.647 223.754 210.588C223.639 210.724 223.58 210.899 223.586 211.077C223.593 211.255 223.667 211.425 223.792 211.552C223.917 211.679 224.084 211.755 224.263 211.766C224.441 211.776 224.616 211.719 224.755 211.607C232.869 204.327 240.423 196.439 247.934 188.547C254.09 196.343 260.242 204.145 266.39 211.952C267.681 213.595 269.995 211.301 268.707 209.667L249.204 184.932C248.901 184.627 248.489 184.455 248.059 184.453C247.628 184.452 247.215 184.622 246.91 184.925Z" fill="black"/>
<path d="M255.134 225.216C253.854 221.965 250.194 222.2 247.728 220.9C246.021 214.731 236.568 212.037 232.435 218.053C231.507 218.951 230.822 220.069 230.442 221.304C230.063 222.538 230.001 223.848 230.263 225.112C230.525 226.376 231.103 227.554 231.942 228.535C232.781 229.517 233.854 230.27 235.063 230.726C234.051 232.354 233.466 234.212 233.36 236.126C233.255 238.041 233.633 239.951 234.46 241.681C235.287 243.41 236.536 244.904 238.092 246.025C239.648 247.145 241.461 247.856 243.364 248.092C242.361 253.029 244.838 254.416 245.537 253.208C245.921 252.54 245.226 250.075 245.19 248.181C246.183 248.172 247.158 247.91 248.022 247.42C248.886 246.931 249.612 246.229 250.13 245.382C250.184 245.291 250.219 245.191 250.234 245.087C250.249 244.983 250.244 244.877 250.218 244.775C250.192 244.673 250.146 244.578 250.083 244.494C250.02 244.409 249.941 244.338 249.851 244.285C248.729 243.615 242.628 247.312 238.264 242.512C235.389 239.333 235.654 235.051 236.747 231.215C239.312 231.703 241.968 231.205 244.182 229.821C245.632 229.71 247.074 230.109 248.261 230.949C250.454 232.579 252.525 238.657 252.525 238.657C252.337 249.488 252.486 250.31 253.112 251.524C253.206 251.677 253.342 251.8 253.504 251.878C253.667 251.956 253.848 251.986 254.026 251.964C254.205 251.942 254.373 251.869 254.512 251.755C254.65 251.64 254.753 251.487 254.807 251.316C255.401 249.798 254.867 242.422 254.807 240.375C254.736 238.111 255.283 231.235 255.479 230.051C255.84 228.441 255.72 226.759 255.134 225.216Z" fill="black"/>
<path d="M352.975 190.071C324.104 190.736 295.238 191.851 266.401 192.852C266.256 192.852 266.117 192.909 266.015 193.012C265.913 193.114 265.855 193.253 265.855 193.398C265.855 193.543 265.913 193.682 266.015 193.784C266.117 193.886 266.256 193.944 266.401 193.944C294.793 193.874 323.183 193.676 351.57 193.35C351.2 196.018 351.148 198.722 351.417 201.402C349.079 201.343 320.54 202.755 313.55 202.91C299.803 203.205 285.933 202.851 272.219 203.888C272.037 203.899 271.866 203.978 271.741 204.11C271.616 204.243 271.546 204.418 271.546 204.6C271.546 204.782 271.616 204.957 271.741 205.09C271.866 205.222 272.037 205.302 272.219 205.312C285.929 206.205 299.815 205.495 313.543 205.223C337.142 204.747 353.711 204.645 354.566 203.852C355.057 199.659 355.075 195.424 354.618 191.227C354.533 190.867 354.319 190.55 354.016 190.337C353.714 190.124 353.343 190.029 352.975 190.071Z" fill="black"/>
<path d="M207.512 193.494C213.293 193.361 219.746 194.086 225.468 193.156C226.416 192.996 226.059 191.714 225.271 191.606C219.211 190.829 160.638 191.821 154.879 192.603C153.936 192.733 155.3 207.071 155.928 207.185C161.047 208.115 217.059 206.893 222.129 205.677C222.35 205.611 222.544 205.475 222.681 205.29C222.819 205.104 222.893 204.88 222.893 204.649C222.893 204.418 222.819 204.194 222.681 204.009C222.544 203.823 222.35 203.687 222.129 203.621C219.632 203.027 205.264 204.343 190.779 204.807C175.787 205.264 160.66 204.907 158.437 205.305C158.252 201.741 157.586 198.218 156.456 194.833C162.125 195.249 201.765 193.622 207.512 193.494Z" fill="black"/>
<path d="M145.279 370.961C142.711 374.116 139.938 377.099 136.978 379.89H124.669C124.478 379.905 124.3 379.991 124.171 380.132C124.041 380.272 123.969 380.456 123.969 380.647C123.969 380.838 124.041 381.022 124.171 381.162C124.3 381.302 124.478 381.388 124.669 381.403C128.107 381.609 131.546 381.769 134.985 381.906C132.981 383.675 131.416 385.886 130.415 388.366C130.36 388.591 130.379 388.828 130.469 389.041C130.559 389.255 130.715 389.434 130.915 389.552C131.114 389.67 131.347 389.721 131.577 389.697C131.808 389.673 132.024 389.576 132.195 389.419C134.435 387.086 136.534 384.622 138.479 382.038C153.533 382.537 178.19 382.63 176.906 382.63C175.149 384.749 173.814 387.184 172.973 389.805C172.934 390.042 172.967 390.285 173.069 390.503C173.17 390.72 173.335 390.902 173.542 391.024C173.749 391.146 173.988 391.203 174.227 391.186C174.467 391.169 174.696 391.081 174.884 390.932C177.018 388.44 178.767 385.641 180.071 382.63C193.715 382.735 207.354 382.769 220.988 382.731C220.263 384.967 220.016 387.33 220.264 389.668C220.301 389.796 220.364 389.914 220.447 390.018C220.531 390.121 220.634 390.207 220.75 390.271C220.867 390.335 220.995 390.375 221.127 390.389C221.259 390.403 221.393 390.391 221.521 390.353C223.152 389.878 223.778 383.853 223.922 382.719C223.922 382.719 256.826 382.546 271.222 382.377C271.427 385.513 272.154 388.593 273.374 391.489C273.486 391.673 273.654 391.816 273.854 391.897C274.053 391.978 274.274 391.992 274.482 391.938C274.69 391.883 274.876 391.763 275.01 391.595C275.145 391.427 275.222 391.22 275.23 391.005C275.119 388.075 274.653 385.169 273.843 382.351C289.394 382.182 304.948 381.985 320.505 381.76C321.631 384.767 322.332 387.975 323.703 390.879C323.822 391.074 324 391.226 324.212 391.312C324.423 391.398 324.657 391.413 324.878 391.356C325.099 391.299 325.295 391.172 325.439 390.994C325.582 390.817 325.664 390.598 325.673 390.37C325.368 387.391 324.617 384.475 323.448 381.719L368.819 381.006C370.646 384.901 372.911 388.576 375.571 391.958C375.735 392.121 375.948 392.225 376.178 392.256C376.407 392.287 376.641 392.242 376.842 392.128C377.044 392.014 377.203 391.837 377.294 391.624C377.386 391.412 377.406 391.175 377.351 390.95C375.911 387.372 373.983 384.01 371.622 380.96L391.86 380.651C392.196 380.651 392.517 380.518 392.754 380.281C392.991 380.044 393.124 379.723 393.124 379.388C393.124 379.053 392.991 378.731 392.754 378.494C392.517 378.257 392.196 378.124 391.86 378.124L369.986 378.462C367.974 375.31 365.918 372.187 363.817 369.094C363.719 368.968 363.578 368.882 363.422 368.852C363.265 368.822 363.103 368.849 362.965 368.93C362.828 369.01 362.724 369.138 362.673 369.289C362.623 369.44 362.629 369.605 362.69 369.752C364.235 372.7 365.816 375.623 367.434 378.522L322.367 379.244C320.911 376.209 319.282 373.261 317.486 370.415C317.354 370.221 317.155 370.084 316.927 370.031C316.7 369.978 316.46 370.012 316.257 370.127C316.053 370.242 315.9 370.43 315.828 370.652C315.756 370.875 315.771 371.116 315.868 371.329C317.197 373.927 318.415 376.576 319.524 379.276C304.139 379.517 288.753 379.734 273.367 379.927C272.804 376.914 272.318 373.887 271.909 370.849C271.761 369.757 269.876 369.99 269.965 371.098C270.214 374.068 270.516 377.027 270.895 379.95C255.368 380.133 239.837 380.268 224.304 380.354C224.87 377.635 225.261 374.882 225.474 372.112C225.468 371.863 225.374 371.624 225.209 371.438C225.044 371.251 224.818 371.129 224.571 371.093C224.324 371.058 224.073 371.111 223.862 371.243C223.651 371.375 223.493 371.578 223.417 371.815C222.593 374.612 221.954 377.461 221.507 380.343C208.279 380.402 181.321 380.343 181.321 380.343C182.75 377.696 183.846 374.881 184.581 371.964C184.644 371.743 184.617 371.506 184.505 371.305C184.45 371.206 184.376 371.118 184.287 371.048C184.198 370.977 184.095 370.925 183.986 370.893C183.765 370.83 183.528 370.858 183.327 370.969C183.127 371.081 182.979 371.268 182.915 371.489C181.749 374.595 180.231 377.557 178.391 380.318C165.719 380.231 153.048 379.975 140.383 379.879C142.756 377.401 144.914 374.726 146.833 371.882C147.498 370.888 145.967 370.047 145.279 370.961Z" fill="black"/>
<path d="M115.197 100.638C115.988 99.7491 115.037 93.9659 115.037 93.9659C112.606 90.5933 110.65 88.0842 108.226 84.7161L95.6719 84.3438L95.8798 100.14C95.9712 108.039 109.067 100.497 115.197 100.638Z" fill="black"/>
<path d="M105.638 365.422C110.187 365.173 115.559 365.504 119.869 363.886C120.801 363.537 121.126 361.578 119.869 361.697C105.691 363.002 73.3025 362.095 64.2059 362.741C64.635 356.899 64.422 351.027 63.5706 345.232C73.748 345.337 121.382 344.318 124.055 343.367C124.245 343.309 124.412 343.191 124.53 343.031C124.648 342.871 124.712 342.677 124.712 342.478C124.712 342.279 124.648 342.086 124.53 341.926C124.412 341.766 124.245 341.648 124.055 341.589C121.462 340.945 118.782 340.719 116.117 340.92C116.135 340.691 119.147 172.104 115.523 127.174C115.511 126.95 115.415 126.74 115.252 126.586C115.09 126.432 114.875 126.346 114.651 126.346C114.427 126.346 114.212 126.432 114.05 126.586C113.888 126.74 113.791 126.95 113.779 127.174V128.591L105.946 134.76C105.946 134.76 98.0901 128.065 95.3504 125.894C98.2204 125.86 112.367 125.035 120.438 126.228C122.81 126.582 122.753 116.942 122.81 113.466C127.245 109.733 133.712 102.523 135.59 98.1907C137.73 100.586 140.043 102.822 142.509 104.882C145.106 107.29 147.732 109.662 150.385 111.997C141.656 112.26 132.946 112.657 124.21 112.959C124.048 112.973 123.896 113.047 123.786 113.167C123.675 113.287 123.614 113.445 123.614 113.608C123.614 113.771 123.675 113.929 123.786 114.049C123.896 114.169 124.048 114.243 124.21 114.257C134.932 114.168 218.597 114.57 233.591 114.814C233.344 118.013 234.622 146.576 236.207 151.461C236.409 152.083 237.457 152.231 237.599 151.461C238.742 145.443 236.788 120.543 235.65 114.833C240.27 114.915 244.891 115.015 249.513 115.134C249.406 120.893 250.237 145.127 250.978 151.384C250.978 151.698 251.103 152 251.325 152.222C251.547 152.445 251.849 152.569 252.164 152.569C252.478 152.569 252.78 152.445 253.002 152.222C253.225 152 253.35 151.698 253.35 151.384C253.505 144.89 251.979 120.685 251.364 115.159L288.911 116.302C291.283 116.38 290.22 113.633 289.841 113.331C288.792 111.714 266.655 93.6093 265.974 93.6093C242.03 93.5545 134.683 93.3808 122.972 94.0663C122.883 92.8804 122.597 90.5086 122.597 90.4103C122.597 87.6455 114.924 75.2699 113.869 75.1579C105.467 74.2919 96.63 75.1099 88.1618 74.9043C86.4618 74.8609 86.8114 90.913 86.7908 93.2391C82.639 93.3922 60.2597 93.3991 53.6789 93.5522L53.5121 83.6856C53.511 83.3 53.359 82.9301 53.0887 82.6551C52.8184 82.3801 52.4512 82.2218 52.0657 82.214C43.0285 82.3008 21.5541 82.8995 12.2518 84.956C11.8611 85.0451 11.4224 85.3353 11.4338 86.2265C11.4818 92.1126 11.4338 115.722 11.7537 121.644C11.7623 122.067 11.9333 122.47 12.2311 122.77C12.5289 123.07 12.9307 123.244 13.3532 123.255C19.4016 123.571 46.3395 123.849 48.8849 122.835C49.1146 122.764 49.3157 122.622 49.4586 122.429C49.6014 122.236 49.6785 122.002 49.6785 121.762C49.6785 121.522 49.6014 121.288 49.4586 121.095C49.3157 120.902 49.1146 120.759 48.8849 120.689C46.424 119.835 20.4207 120.333 14.8819 120.095C14.4729 109.095 16.1089 97.1831 13.1041 86.5441C22.0499 86.6538 27.9863 85.2485 50.6033 85.132C50.6627 90.9861 50.1051 115.091 51.1974 120.902C51.281 121.201 51.4603 121.465 51.7079 121.652C51.9554 121.84 52.2576 121.942 52.5684 121.942C52.8791 121.942 53.1813 121.84 53.4289 121.652C53.6764 121.465 53.8557 121.201 53.9394 120.902C54.2708 118.583 54.4054 116.24 54.3415 113.898C59.8392 114.076 86.7383 115.084 86.7383 115.084C86.7383 115.084 86.2516 125.218 86.8022 125.355C89.1588 125.697 91.5365 125.873 93.9177 125.883C93.9177 125.883 103.572 135.994 104.082 136.437C101.332 138.821 98.4253 141.018 95.3824 143.014C95.0811 137.791 94.6659 132.575 94.1371 127.37C94.0251 126.274 92.3594 126.185 92.3594 127.37C92.453 141.254 94.5118 199.193 94.6832 211.575C94.8911 226.322 94.5941 283.194 94.2673 296.412C94.1188 302.628 92.7021 333.178 92.6496 341.9C82.8058 342.256 73.0283 343.561 63.1731 343.477C60.3625 343.477 61.2217 364.901 62.8897 365.068C69.8864 365.705 100.794 365.687 105.638 365.422ZM160.786 111.787C159.039 111.81 157.287 111.841 155.531 111.88C160.349 107.347 164.846 102.482 168.987 97.3224C173.228 102.383 177.763 107.19 182.567 111.718C175.568 111.762 167.715 111.702 160.75 111.803L160.786 111.787ZM185.693 111.579C188.385 108.873 198.441 99.7194 200.043 97.3819C203.892 102.489 208.18 107.251 212.857 111.613C197.918 111.508 184.816 111.579 185.693 111.579ZM218.668 111.627C222.519 107.261 226.055 102.626 229.247 97.7566C232.683 102.786 236.55 107.505 240.805 111.862C229.496 111.686 217.669 111.627 218.675 111.627H218.668ZM243.177 110.985C241.849 108.359 233.047 99.2007 230.838 96.8449H252.344C252.175 97.0848 242.786 110.985 243.177 110.985ZM216.794 110.836C212.139 105.85 207.216 101.121 202.047 96.6689C209.997 96.7238 217.951 96.7672 225.909 96.7992C222.606 101.301 219.564 105.988 216.794 110.836ZM244.671 111.947C248.351 107.838 251.681 103.428 254.627 98.7643C258.131 103.792 262.238 108.373 266.854 112.404C259.789 112.219 244.662 111.947 244.662 111.947H244.671ZM285.44 112.984C280.143 112.806 269.463 112.42 269.463 112.42C269.463 112.42 275.15 103.419 275.161 103.28C275.822 103.84 284.595 112.082 285.431 112.984H285.44ZM273.727 102.016C273.586 102.064 268.776 109.1 268.392 110.062C266.884 108.154 258.518 99.3218 255.991 96.8929H265.995C268.671 98.4416 271.249 100.152 273.717 102.014L273.727 102.016ZM196.51 96.5341C194.724 98.2527 193.03 100.064 191.435 101.961C188.961 104.557 186.692 107.256 184.45 110.055C180.383 105.284 176.026 100.768 171.403 96.5341H196.51ZM165.793 96.4062C163.677 98.321 153.886 110.836 153.886 110.836C153.886 110.836 139.566 98.0582 136.655 96.333C139.966 96.3536 166.129 96.4062 165.793 96.4062ZM133.997 96.2736C130.885 99.6326 131.431 101.141 122.837 111.04C122.837 103.773 123.239 100.702 123.052 95.8829C126.693 96.0733 130.342 96.2035 133.999 96.2736H133.997ZM112.907 77.7194C113.718 80.121 118.569 89.5009 120.424 91.1095C119.493 101.736 119.222 112.41 119.613 123.07C114.531 122.613 94.5941 122.542 89.5191 122.654C89.41 119.171 89.4809 115.684 89.7316 112.207C89.8504 107.914 89.8847 76.5381 89.8847 76.5381C89.8847 76.5381 105.25 77.2327 112.907 77.7194ZM86.6446 110.546C85.9591 109.675 73.6635 96.3148 73.6886 96.2782C78.069 96.2256 82.4402 96.0246 86.7337 95.7389C86.7337 96.9089 86.6446 110.546 86.6446 110.546ZM69.1689 96.2553C66.9524 98.0833 64.8891 100.3 62.8783 102.055C59.9969 104.568 56.8413 107.013 54.1382 109.765C54.0125 107.393 53.7337 97.6675 53.6812 95.1174C58.8144 95.8244 63.9874 96.2045 69.1689 96.2553ZM54.7368 112.212C58.1346 109.927 69.2237 99.9319 71.6664 97.5372C74.6369 100.341 82.6527 110.423 84.0054 112.006C82.5064 111.976 60.0792 111.709 54.7368 112.212ZM113.72 145.906L105.59 157.35C105.59 157.35 100.335 150.134 97.3886 146.903C99.749 147.282 113.72 145.906 113.72 145.906ZM105.905 211.081C103.534 208.033 101.226 204.83 98.5928 202.037C103.04 202.723 113.738 200.785 113.738 200.785C113.738 200.785 108.122 207.688 105.905 211.081ZM114.36 198.004C112.036 193.986 109.393 190.161 106.456 186.566C109.131 183.268 111.326 179.61 112.977 175.698C113.222 174.981 112.308 174.588 111.791 175.013C108.963 177.693 106.563 180.793 104.676 184.203C102.391 181.143 97.2401 174.663 97.2401 174.663L113.999 174.069C113.999 174.069 114.241 190.027 114.33 198.014L114.36 198.004ZM104.882 188.885C107.109 192.459 109.594 195.866 112.317 199.078C111.949 198.916 98.7802 199.389 97.4869 199.535C101.733 193.981 104.614 188.885 104.882 188.885ZM97.4618 203.737C99.539 207.091 101.844 210.297 104.361 213.334C102.195 216.369 99.8062 219.323 97.7177 222.429C97.4823 203.18 97.231 203.744 97.4595 203.744L97.4618 203.737ZM113.96 167.228C111.923 164.517 109.745 161.915 107.436 159.431C109.958 156.169 112.091 152.625 113.793 148.87C113.781 154.992 113.821 161.114 113.912 167.235L113.96 167.228ZM114.001 170.372V172.657C108.277 172.221 102.528 172.221 96.8037 172.657C99.9067 169.17 102.859 165.626 105.629 161.865C108.2 164.91 110.998 167.756 113.999 170.379L114.001 170.372ZM96.4724 169.981C96.2164 162.502 95.956 155.014 95.5721 147.529C98.0773 151.782 100.883 155.851 103.968 159.706C103.696 160.19 98.867 166.821 96.4701 169.988L96.4724 169.981ZM103.202 186.506C101.194 189.584 99.1047 192.676 97.2721 195.875C97.1198 189.449 96.9339 183.031 96.7146 176.619C98.8076 179.951 100.97 183.249 103.2 186.513L103.202 186.506ZM97.704 225.84C100.808 222.708 103.605 219.286 106.058 215.622C108.485 219.053 111.294 222.196 114.433 224.99V226.846C108.863 226.26 103.237 226.46 97.7222 227.44C97.7093 226.907 97.7033 226.374 97.704 225.84ZM107.683 213.353C110.366 209.992 112.616 206.307 114.378 202.385C114.415 206.82 114.444 221.579 114.444 221.579C112.386 218.7 109.932 216.056 107.683 213.353ZM114.426 229.16C114.406 229.636 114.623 228.703 105.764 240.313C103.307 236.52 100.626 232.876 97.7337 229.403C103.282 230.106 108.901 230.024 114.426 229.16ZM105.727 245.011C108.289 248.83 110.809 252.78 113.709 256.372C111.163 256.065 108.595 255.989 106.036 256.144C103.266 256.089 100.495 256.18 97.7337 256.416V255.664C100.663 252.32 103.335 248.759 105.727 245.011ZM113.039 337.481C113.039 337.481 109.564 332.143 107.466 329.737C109.826 325.869 111.866 321.815 113.565 317.615C113.482 321.753 113.501 324.326 113.051 337.481H113.039ZM113.656 311.983C111.236 311.898 100.367 312.474 97.3772 312.629C100.74 309.478 103.634 305.861 105.972 301.89C108.255 305.112 110.836 308.114 113.679 310.856C113.667 311.121 113.667 312.213 113.667 311.983H113.656ZM113.994 285.89C113.994 285.89 103.586 285.221 98.6591 285.488C101.535 282.039 104.181 278.406 106.582 274.611C107.898 276.983 114.006 286.121 114.006 285.89H113.994ZM97.2538 290.46C99.5251 293.543 101.797 296.63 104.18 299.628C101.5 302.934 99.036 306.41 96.8037 310.033L97.2653 290.451L97.2538 290.46ZM105.994 258.927C108.533 259.18 111.088 259.206 113.631 259.005C111.154 262.236 108.983 265.698 106.776 269.125C104.47 265.471 101.968 261.944 99.2806 258.559C99.2875 258.326 98.2547 258.676 106.006 258.923L105.994 258.927ZM105.01 271.835C102.455 275.672 99.7856 279.444 97.3841 283.381C97.5181 275.87 97.6171 268.359 97.6811 260.849C100.207 264.982 102.336 267.215 105.021 271.83L105.01 271.835ZM105.764 297.358C102.969 294.185 97.3087 287.793 97.3087 287.727C102.3 288.643 107.406 288.743 112.429 288.024C110.049 291.015 107.828 294.13 105.775 297.354L105.764 297.358ZM114.035 282.433C112.437 278.721 110.589 275.121 108.503 271.659C110.61 268.477 112.529 265.175 114.25 261.77C114.207 268.659 114.047 282.426 114.047 282.426L114.035 282.433ZM96.7077 314.686C99.9067 314.958 112.125 315.028 112.125 315.028C112.125 315.028 107.916 323.396 105.448 327.367C105.355 327.253 99.5594 320.131 96.6666 316.758C96.6963 316.068 96.7191 314.681 96.7191 314.681L96.7077 314.686ZM103.652 330.162C101.073 333.887 98.001 337.271 95.5744 341.096C96.1685 334.193 96.4175 327.244 96.5843 320.302C98.6043 323.19 103.355 329.726 103.664 330.157L103.652 330.162ZM98.6637 341.635C101.273 338.987 103.568 336.046 105.503 332.872C107.868 335.785 110.43 338.534 113.169 341.098C113.169 341.098 102.348 341.512 98.6751 341.63L98.6637 341.635ZM113.953 289.121L113.725 306.352C113.725 306.352 109.557 301.716 107.676 299.511C110.048 296.221 112.151 292.745 113.965 289.117L113.953 289.121ZM107.395 242.644L114.41 232.59C114.41 232.59 114.351 245.957 114.31 252.646C112.15 249.191 107.395 242.644 107.395 242.644ZM112.852 140.26C111.49 138.879 110.006 137.624 108.417 136.513C110.305 134.683 112.082 132.743 113.738 130.702V143.238L95.9697 144.641C99.4962 142.713 102.918 140.599 106.218 138.306C107.924 139.764 109.828 140.973 111.871 141.899C112.843 142.301 113.489 140.9 112.861 140.26H112.852ZM97.7291 233.216C98.3232 234.064 102.51 240.3 104.052 242.562C101.982 245.224 99.7102 247.934 97.736 250.788C97.7649 244.917 97.7657 239.06 97.7382 233.216H97.7291Z" fill="black"/>
<path d="M106.71 396.854C116.977 398.093 127.465 397.501 137.786 397.579C147.726 397.654 407.124 397.846 418.64 396.962C420.194 396.843 421.57 395.545 420.306 393.404C418.25 389.915 398.384 370.207 388.73 363.699C387.377 362.785 368.354 363.592 363.391 363.628C355.435 363.683 154.556 363.752 136.511 364.494C136.277 364.517 136.059 364.627 135.9 364.802C135.742 364.977 135.654 365.204 135.654 365.44C135.654 365.676 135.742 365.904 135.9 366.079C136.059 366.253 136.277 366.363 136.511 366.386C145.434 366.535 378.395 367.462 387.372 366.688C392.548 371.468 414.564 391.38 416.492 393.07C406.911 392.767 397.234 393.45 387.651 393.591C377.714 393.744 120.21 394.037 109.567 394.592C114.043 390.561 117.987 385.573 122.02 381.168C126.567 376.761 130.76 372.002 134.56 366.937C135.207 365.959 133.874 365.157 133.072 365.751C127.908 369.699 123.585 375.167 119.091 379.863C114.493 384.249 110.173 388.917 106.157 393.84C105.817 394.3 103.955 396.523 106.71 396.854Z" fill="black"/>
</svg>
