<svg width="750" height="500" viewBox="0 0 750 500" fill="none" xmlns="http://www.w3.org/2000/svg">
<path d="M248.791 380.59V231.2H289.761V247.68H318.691V167.98L348.061 152.48V182.68H373.491V221.57H397.431V282.02H419.621V157.88H449.541V100.26H482.381V186.7H508.181V226.56H548.321V113.72H578.501V136.86H588.721V90.5303H627.121V208.25H645.571V197.5H675.751V244.63H715.071V380.82L248.791 380.59Z" fill="#AEAEAE"/>
<path d="M626.621 91.0303V208.75H646.071V198H675.251V245.13H714.571V380.32L249.291 380.1V231.7H289.261V248.18H319.181V168.28L347.561 153.31V183.17H372.991V222.07H396.931V282.52H420.111V158.38H450.031V100.75H481.871V187.19H507.671V227.06H548.811V114.22H577.991V137.36H589.211V91.0303H626.611M627.611 90.0303H588.211V136.36H578.991V113.22H547.811V226.06H508.671V186.19H482.871V99.7603H449.031V157.39H419.111V281.53H397.931V221.08H373.991V182.18H348.561V151.66L347.091 152.43L318.711 167.4L318.181 167.68V247.18H290.261V230.7H248.291V381.09H249.291L714.571 381.31H715.571V380.31V244.13H676.251V197H645.071V207.75H627.621V90.0303H627.611Z" fill="black"/>
<path d="M466.65 110.96H457.33V121.64H466.65V110.96Z" fill="#FAFAFA" stroke="black" stroke-miterlimit="10"/>
<path d="M466.65 128.86H457.33V139.54H466.65V128.86Z" fill="#FAFAFA" stroke="black" stroke-miterlimit="10"/>
<path d="M466.65 146.771H457.33V157.451H466.65V146.771Z" fill="#FAFAFA" stroke="black" stroke-miterlimit="10"/>
<path d="M466.65 164.67H457.33V175.35H466.65V164.67Z" fill="#FAFAFA" stroke="black" stroke-miterlimit="10"/>
<path d="M466.65 182.57H457.33V193.25H466.65V182.57Z" fill="#FAFAFA" stroke="black" stroke-miterlimit="10"/>
<path d="M466.65 200.48H457.33V211.16H466.65V200.48Z" fill="#FAFAFA" stroke="black" stroke-miterlimit="10"/>
<path d="M466.65 218.38H457.33V229.06H466.65V218.38Z" fill="#FAFAFA"/>
<path d="M466.65 236.3H457.33V246.98H466.65V236.3Z" fill="#FAFAFA"/>
<path d="M606.591 96.6699H597.271V107.35H606.591V96.6699Z" fill="#FAFAFA" stroke="black" stroke-miterlimit="10"/>
<path d="M606.591 114.57H597.271V125.25H606.591V114.57Z" fill="#FAFAFA" stroke="black" stroke-miterlimit="10"/>
<path d="M606.591 132.48H597.271V143.16H606.591V132.48Z" fill="#FAFAFA"/>
<path d="M606.591 150.38H597.271V161.06H606.591V150.38Z" fill="#FAFAFA" stroke="black" stroke-miterlimit="10"/>
<path d="M606.591 168.29H597.271V178.97H606.591V168.29Z" fill="#FAFAFA"/>
<path d="M606.591 186.19H597.271V196.87H606.591V186.19Z" fill="#FAFAFA"/>
<path d="M606.591 204.101H597.271V214.781H606.591V204.101Z" fill="#FAFAFA"/>
<path d="M606.591 222H597.271V232.68H606.591V222Z" fill="#FAFAFA"/>
<path d="M425.492 380.18V215.48H388.432V380.16L425.492 380.18Z" fill="#E0E0E0"/>
<path d="M395.732 213.931H391.242V223.201H395.732V213.931Z" fill="#FAFAFA"/>
<path d="M404.711 213.931H400.221V223.201H404.711V213.931Z" fill="#FAFAFA"/>
<path d="M413.701 213.931H409.211V223.201H413.701V213.931Z" fill="#FAFAFA"/>
<path d="M422.681 213.931H418.191V223.201H422.681V213.931Z" fill="#FAFAFA"/>
<path d="M395.732 229.471H391.242V238.741H395.732V229.471Z" fill="#FAFAFA"/>
<path d="M404.711 229.471H400.221V238.741H404.711V229.471Z" fill="#FAFAFA"/>
<path d="M413.701 229.471H409.211V238.741H413.701V229.471Z" fill="#FAFAFA"/>
<path d="M422.681 229.471H418.191V238.741H422.681V229.471Z" fill="#FAFAFA"/>
<path d="M395.732 245.011H391.242V254.281H395.732V245.011Z" fill="#FAFAFA"/>
<path d="M404.711 245.011H400.221V254.281H404.711V245.011Z" fill="#FAFAFA"/>
<path d="M413.701 245.011H409.211V254.281H413.701V245.011Z" fill="#FAFAFA"/>
<path d="M422.681 245.011H418.191V254.281H422.681V245.011Z" fill="#FAFAFA"/>
<path d="M395.732 260.551H391.242V269.821H395.732V260.551Z" fill="#FAFAFA"/>
<path d="M404.711 260.551H400.221V269.821H404.711V260.551Z" fill="#FAFAFA"/>
<path d="M413.701 260.551H409.211V269.821H413.701V260.551Z" fill="#FAFAFA"/>
<path d="M422.681 260.551H418.191V269.821H422.681V260.551Z" fill="#FAFAFA"/>
<path d="M395.732 276.081H391.242V285.351H395.732V276.081Z" fill="#FAFAFA"/>
<path d="M404.711 276.081H400.221V285.351H404.711V276.081Z" fill="#FAFAFA"/>
<path d="M413.701 276.081H409.211V285.351H413.701V276.081Z" fill="#FAFAFA"/>
<path d="M422.681 276.081H418.191V285.351H422.681V276.081Z" fill="#FAFAFA"/>
<path d="M395.732 291.621H391.242V300.891H395.732V291.621Z" fill="#FAFAFA"/>
<path d="M404.711 291.621H400.221V300.891H404.711V291.621Z" fill="#FAFAFA"/>
<path d="M413.701 291.621H409.211V300.891H413.701V291.621Z" fill="#FAFAFA"/>
<path d="M422.681 291.621H418.191V300.891H422.681V291.621Z" fill="#FAFAFA"/>
<path d="M395.732 307.15H391.242V316.42H395.732V307.15Z" fill="#FAFAFA"/>
<path d="M404.711 307.15H400.221V316.42H404.711V307.15Z" fill="#FAFAFA"/>
<path d="M413.701 307.15H409.211V316.42H413.701V307.15Z" fill="#FAFAFA"/>
<path d="M422.681 307.15H418.191V316.42H422.681V307.15Z" fill="#FAFAFA"/>
<path d="M395.732 322.701H391.242V331.971H395.732V322.701Z" fill="#FAFAFA"/>
<path d="M404.711 322.701H400.221V331.971H404.711V322.701Z" fill="#FAFAFA"/>
<path d="M413.701 322.701H409.211V331.971H413.701V322.701Z" fill="#FAFAFA"/>
<path d="M422.681 322.701H418.191V331.971H422.681V322.701Z" fill="#FAFAFA"/>
<path d="M554.291 378.24V186.66H477.441V378.29C477.441 378.29 553.701 378.31 554.291 378.24Z" fill="#AEAEAE" stroke="black" stroke-miterlimit="10"/>
<path d="M492.531 195H483.211V205.68H492.531V195Z" fill="#FAFAFA" stroke="black" stroke-miterlimit="10"/>
<path d="M511.172 195H501.852V205.68H511.172V195Z" fill="#FAFAFA" stroke="black" stroke-miterlimit="10"/>
<path d="M529.8 195H520.48V205.68H529.8V195Z" fill="#FAFAFA" stroke="black" stroke-miterlimit="10"/>
<path d="M548.451 195H539.131V205.68H548.451V195Z" fill="#FAFAFA" stroke="black" stroke-miterlimit="10"/>
<path d="M492.531 212.91H483.211V223.59H492.531V212.91Z" fill="#FAFAFA" stroke="black" stroke-miterlimit="10"/>
<path d="M511.172 212.91H501.852V223.59H511.172V212.91Z" fill="#FAFAFA" stroke="black" stroke-miterlimit="10"/>
<path d="M529.8 212.91H520.48V223.59H529.8V212.91Z" fill="#FAFAFA" stroke="black" stroke-miterlimit="10"/>
<path d="M548.451 212.91H539.131V223.59H548.451V212.91Z" fill="#FAFAFA" stroke="black" stroke-miterlimit="10"/>
<path d="M492.531 230.811H483.211V241.491H492.531V230.811Z" fill="#E0E0E0"/>
<path d="M511.172 230.811H501.852V241.491H511.172V230.811Z" fill="#E0E0E0"/>
<path d="M529.8 230.811H520.48V241.491H529.8V230.811Z" fill="#E0E0E0"/>
<path d="M548.451 230.811H539.131V241.491H548.451V230.811Z" fill="#FAFAFA" stroke="black" stroke-miterlimit="10"/>
<path d="M492.531 248.71H483.211V259.39H492.531V248.71Z" fill="#E0E0E0"/>
<path d="M511.172 248.71H501.852V259.39H511.172V248.71Z" fill="#E0E0E0"/>
<path d="M529.8 248.71H520.48V259.39H529.8V248.71Z" fill="#E0E0E0"/>
<path d="M548.451 248.71H539.131V259.39H548.451V248.71Z" fill="#E0E0E0"/>
<path d="M492.531 266.62H483.211V277.3H492.531V266.62Z" fill="#E0E0E0"/>
<path d="M511.172 266.62H501.852V277.3H511.172V266.62Z" fill="#E0E0E0"/>
<path d="M529.8 266.62H520.48V277.3H529.8V266.62Z" fill="#E0E0E0"/>
<path d="M548.451 266.62H539.131V277.3H548.451V266.62Z" fill="#E0E0E0"/>
<path d="M492.531 284.521H483.211V295.201H492.531V284.521Z" fill="#E0E0E0"/>
<path d="M511.172 284.521H501.852V295.201H511.172V284.521Z" fill="#E0E0E0"/>
<path d="M529.8 284.521H520.48V295.201H529.8V284.521Z" fill="#E0E0E0"/>
<path d="M548.451 284.521H539.131V295.201H548.451V284.521Z" fill="#E0E0E0"/>
<path d="M492.531 302.43H483.211V313.11H492.531V302.43Z" fill="#E0E0E0"/>
<path d="M511.172 302.43H501.852V313.11H511.172V302.43Z" fill="#E0E0E0"/>
<path d="M529.8 302.43H520.48V313.11H529.8V302.43Z" fill="#E0E0E0"/>
<path d="M548.451 302.43H539.131V313.11H548.451V302.43Z" fill="#E0E0E0"/>
<path d="M492.531 320.33H483.211V331.01H492.531V320.33Z" fill="#E0E0E0"/>
<path d="M511.172 320.33H501.852V331.01H511.172V320.33Z" fill="#E0E0E0"/>
<path d="M529.8 320.33H520.48V331.01H529.8V320.33Z" fill="#E0E0E0"/>
<path d="M548.451 320.33H539.131V331.01H548.451V320.33Z" fill="#E0E0E0"/>
<path d="M374.94 380.15V175.271H343.15V380.321C353.21 380.071 374.94 380.161 374.94 380.161V380.15Z" fill="#AEAEAE" stroke="black" stroke-miterlimit="10"/>
<path d="M357.181 179.061H347.861V189.741H357.181V179.061Z" fill="#FAFAFA" stroke="black" stroke-miterlimit="10"/>
<path d="M357.181 196.961H347.861V207.641H357.181V196.961Z" fill="#FAFAFA" stroke="black" stroke-miterlimit="10"/>
<path d="M357.181 214.87H347.861V225.55H357.181V214.87Z" fill="#FAFAFA"/>
<path d="M357.181 232.771H347.861V243.451H357.181V232.771Z" fill="#FAFAFA"/>
<path d="M357.181 250.671H347.861V261.351H357.181V250.671Z" fill="#FAFAFA"/>
<path d="M357.181 268.58H347.861V279.26H357.181V268.58Z" fill="#FAFAFA"/>
<path d="M357.181 286.48H347.861V297.16H357.181V286.48Z" fill="#FAFAFA"/>
<path d="M357.181 304.4H347.861V315.08H357.181V304.4Z" fill="#FAFAFA"/>
<path d="M369.64 179.061H360.32V189.741H369.64V179.061Z" fill="#FAFAFA" stroke="black" stroke-miterlimit="10"/>
<path d="M369.64 196.961H360.32V207.641H369.64V196.961Z" fill="#FAFAFA" stroke="black" stroke-miterlimit="10"/>
<path d="M369.64 214.87H360.32V225.55H369.64V214.87Z" fill="#FAFAFA"/>
<path d="M369.64 232.771H360.32V243.451H369.64V232.771Z" fill="#FAFAFA"/>
<path d="M369.64 250.671H360.32V261.351H369.64V250.671Z" fill="#FAFAFA"/>
<path d="M369.64 268.58H360.32V279.26H369.64V268.58Z" fill="#FAFAFA"/>
<path d="M369.64 286.48H360.32V297.16H369.64V286.48Z" fill="#FAFAFA"/>
<path d="M369.64 304.4H360.32V315.08H369.64V304.4Z" fill="#FAFAFA"/>
<path d="M679.452 178.92H623.342V380.32H679.452V178.92Z" fill="#AEAEAE" stroke="black" stroke-miterlimit="10"/>
<path d="M648.093 187.24H631.643V197.92H648.093V187.24Z" fill="#FAFAFA" stroke="black" stroke-miterlimit="10"/>
<path d="M648.093 205.15H631.643V215.83H648.093V205.15Z" fill="#FAFAFA" stroke="black" stroke-miterlimit="10"/>
<path d="M648.093 223.05H631.643V233.73H648.093V223.05Z" fill="#FAFAFA" stroke="black" stroke-miterlimit="10"/>
<path d="M648.093 240.97H631.643V251.65H648.093V240.97Z" fill="#FAFAFA" stroke="black" stroke-miterlimit="10"/>
<path d="M648.093 258.87H631.643V269.55H648.093V258.87Z" fill="#FAFAFA" stroke="black" stroke-miterlimit="10"/>
<path d="M648.093 276.77H631.643V287.45H648.093V276.77Z" fill="#FAFAFA" stroke="black" stroke-miterlimit="10"/>
<path d="M648.093 294.68H631.643V305.36H648.093V294.68Z" fill="#FAFAFA"/>
<path d="M648.093 312.58H631.643V323.26H648.093V312.58Z" fill="#FAFAFA"/>
<path d="M670.093 187.24H653.643V197.92H670.093V187.24Z" fill="#FAFAFA" stroke="black" stroke-miterlimit="10"/>
<path d="M670.093 205.15H653.643V215.83H670.093V205.15Z" fill="#FAFAFA" stroke="black" stroke-miterlimit="10"/>
<path d="M670.093 223.05H653.643V233.73H670.093V223.05Z" fill="#FAFAFA" stroke="black" stroke-miterlimit="10"/>
<path d="M670.093 240.97H653.643V251.65H670.093V240.97Z" fill="#FAFAFA" stroke="black" stroke-miterlimit="10"/>
<path d="M670.093 258.87H653.643V269.55H670.093V258.87Z" fill="#FAFAFA" stroke="black" stroke-miterlimit="10"/>
<path d="M670.093 276.77H653.643V287.45H670.093V276.77Z" fill="#FAFAFA" stroke="black" stroke-miterlimit="10"/>
<path d="M670.093 294.68H653.643V305.36H670.093V294.68Z" fill="#FAFAFA" stroke="black" stroke-miterlimit="10"/>
<path d="M670.093 312.58H653.643V323.26H670.093V312.58Z" fill="#FAFAFA"/>
<path d="M586.63 380.251V230.811H562.16V380.241H586.63V380.251Z" fill="#E0E0E0"/>
<path d="M566.99 235.541H564.02V243.501H566.99V235.541Z" fill="#FAFAFA"/>
<path d="M572.919 235.541H569.949V243.501H572.919V235.541Z" fill="#FAFAFA"/>
<path d="M578.841 235.541H575.871V243.501H578.841V235.541Z" fill="#FAFAFA"/>
<path d="M584.781 235.541H581.811V243.501H584.781V235.541Z" fill="#FAFAFA"/>
<path d="M566.99 248.891H564.02V256.851H566.99V248.891Z" fill="#FAFAFA"/>
<path d="M572.919 248.891H569.949V256.851H572.919V248.891Z" fill="#FAFAFA"/>
<path d="M578.841 248.891H575.871V256.851H578.841V248.891Z" fill="#FAFAFA"/>
<path d="M584.781 248.891H581.811V256.851H584.781V248.891Z" fill="#FAFAFA"/>
<path d="M566.99 262.24H564.02V270.2H566.99V262.24Z" fill="#FAFAFA"/>
<path d="M572.919 262.24H569.949V270.2H572.919V262.24Z" fill="#FAFAFA"/>
<path d="M578.841 262.24H575.871V270.2H578.841V262.24Z" fill="#FAFAFA"/>
<path d="M584.781 262.24H581.811V270.2H584.781V262.24Z" fill="#FAFAFA"/>
<path d="M566.99 275.58H564.02V283.54H566.99V275.58Z" fill="#FAFAFA"/>
<path d="M572.919 275.58H569.949V283.54H572.919V275.58Z" fill="#FAFAFA"/>
<path d="M578.841 275.58H575.871V283.54H578.841V275.58Z" fill="#FAFAFA"/>
<path d="M584.781 275.58H581.811V283.54H584.781V275.58Z" fill="#FAFAFA"/>
<path d="M566.99 288.94H564.02V296.9H566.99V288.94Z" fill="#FAFAFA"/>
<path d="M572.919 288.94H569.949V296.9H572.919V288.94Z" fill="#FAFAFA"/>
<path d="M578.841 288.94H575.871V296.9H578.841V288.94Z" fill="#FAFAFA"/>
<path d="M584.781 288.94H581.811V296.9H584.781V288.94Z" fill="#FAFAFA"/>
<path d="M566.99 302.291H564.02V310.251H566.99V302.291Z" fill="#FAFAFA"/>
<path d="M572.919 302.291H569.949V310.251H572.919V302.291Z" fill="#FAFAFA"/>
<path d="M578.841 302.291H575.871V310.251H578.841V302.291Z" fill="#FAFAFA"/>
<path d="M584.781 302.291H581.811V310.251H584.781V302.291Z" fill="#FAFAFA"/>
<path d="M566.99 315.641H564.02V323.601H566.99V315.641Z" fill="#FAFAFA"/>
<path d="M572.919 315.641H569.949V323.601H572.919V315.641Z" fill="#FAFAFA"/>
<path d="M578.841 315.641H575.871V323.601H578.841V315.641Z" fill="#FAFAFA"/>
<path d="M584.781 315.641H581.811V323.601H584.781V315.641Z" fill="#FAFAFA"/>
<path d="M566.99 328.99H564.02V336.95H566.99V328.99Z" fill="#FAFAFA"/>
<path d="M572.919 328.99H569.949V336.95H572.919V328.99Z" fill="#FAFAFA"/>
<path d="M578.841 328.99H575.871V336.95H578.841V328.99Z" fill="#FAFAFA"/>
<path d="M584.781 328.99H581.811V336.95H584.781V328.99Z" fill="#FAFAFA"/>
<path d="M345.991 380.321V252.971H280.561V380.111L345.991 380.321Z" fill="#FAFAFA"/>
<path d="M293.44 256.931H285.51V263.611H293.44V256.931Z" fill="#E0E0E0"/>
<path d="M309.311 256.931H301.381V263.611H309.311V256.931Z" fill="#E0E0E0"/>
<path d="M325.16 256.931H317.23V263.611H325.16V256.931Z" fill="#E0E0E0"/>
<path d="M341.03 256.931H333.1V263.611H341.03V256.931Z" fill="#E0E0E0"/>
<path d="M293.44 268.121H285.51V274.801H293.44V268.121Z" fill="#E0E0E0"/>
<path d="M309.311 268.121H301.381V274.801H309.311V268.121Z" fill="#E0E0E0"/>
<path d="M325.16 268.121H317.23V274.801H325.16V268.121Z" fill="#E0E0E0"/>
<path d="M341.03 268.121H333.1V274.801H341.03V268.121Z" fill="#E0E0E0"/>
<path d="M293.44 279.32H285.51V286H293.44V279.32Z" fill="#E0E0E0"/>
<path d="M309.311 279.32H301.381V286H309.311V279.32Z" fill="#E0E0E0"/>
<path d="M325.16 279.32H317.23V286H325.16V279.32Z" fill="#E0E0E0"/>
<path d="M341.03 279.32H333.1V286H341.03V279.32Z" fill="#E0E0E0"/>
<path d="M293.44 290.521H285.51V297.201H293.44V290.521Z" fill="#E0E0E0"/>
<path d="M309.311 290.521H301.381V297.201H309.311V290.521Z" fill="#E0E0E0"/>
<path d="M325.16 290.521H317.23V297.201H325.16V290.521Z" fill="#E0E0E0"/>
<path d="M341.03 290.521H333.1V297.201H341.03V290.521Z" fill="#E0E0E0"/>
<path d="M293.44 301.701H285.51V308.381H293.44V301.701Z" fill="#E0E0E0"/>
<path d="M309.311 301.701H301.381V308.381H309.311V301.701Z" fill="#E0E0E0"/>
<path d="M325.16 301.701H317.23V308.381H325.16V301.701Z" fill="#E0E0E0"/>
<path d="M341.03 301.701H333.1V308.381H341.03V301.701Z" fill="#E0E0E0"/>
<path d="M293.44 312.9H285.51V319.58H293.44V312.9Z" fill="#E0E0E0"/>
<path d="M309.311 312.9H301.381V319.58H309.311V312.9Z" fill="#E0E0E0"/>
<path d="M325.16 312.9H317.23V319.58H325.16V312.9Z" fill="#E0E0E0"/>
<path d="M341.03 312.9H333.1V319.58H341.03V312.9Z" fill="#E0E0E0"/>
<path d="M293.44 324.091H285.51V330.771H293.44V324.091Z" fill="#E0E0E0"/>
<path d="M309.311 324.091H301.381V330.771H309.311V324.091Z" fill="#E0E0E0"/>
<path d="M325.16 324.091H317.23V330.771H325.16V324.091Z" fill="#E0E0E0"/>
<path d="M341.03 324.091H333.1V330.771H341.03V324.091Z" fill="#E0E0E0"/>
<path d="M180.92 53.3701C178.83 51.7901 175.78 51.6101 173.51 52.9401C170.51 46.8701 162.14 44.1901 156.17 47.3901C154.61 40.8501 148.17 35.8301 141.45 35.9101C134.73 35.9901 128.41 41.1701 127.01 47.7401C126.79 48.7801 126.64 49.9301 125.89 50.6901C124.68 51.9301 122.65 51.5101 120.92 51.3801C115.48 50.9601 110 54.7801 108.52 60.0301L183.47 59.7601C184.13 57.2201 183 54.9501 180.91 53.3701H180.92Z" fill="#F0F0F0"/>
<path d="M181.68 52.0803C179.04 50.2103 175.57 50.1103 172.76 51.6503C173.44 51.8303 174.13 52.0103 174.81 52.1903C171.3 45.3503 162.2 42.6003 155.42 46.1003L157.62 47.0003C155.37 38.0703 145.41 32.1703 136.57 35.2803C132.4 36.7403 128.75 39.8403 126.81 43.8403C126.34 44.8003 125.95 45.8003 125.69 46.8403C125.46 47.7303 125.47 49.2703 124.61 49.8203C123.78 50.3603 122.37 50.0203 121.45 49.9403C120.3 49.8303 119.19 49.8603 118.05 50.0403C112.94 50.8503 108.56 54.7003 107.08 59.6503C106.8 60.5903 107.57 61.5503 108.53 61.5503C117.01 61.5203 125.48 61.4903 133.96 61.4603C147.37 61.4103 160.78 61.3603 174.2 61.3103C177.3 61.3003 180.39 61.2903 183.49 61.2803C184.12 61.2803 184.79 60.8203 184.94 60.1803C185.63 57.1003 184.44 54.2703 181.99 52.3303C180.49 51.1503 178.35 53.2503 179.87 54.4503C181.45 55.7003 182.52 57.3003 182.05 59.3803C182.53 59.0103 183.01 58.6503 183.5 58.2803C175.02 58.3103 166.55 58.3403 158.07 58.3703C144.66 58.4203 131.25 58.4703 117.83 58.5203C114.73 58.5303 111.64 58.5403 108.54 58.5503C109.02 59.1803 109.5 59.8203 109.99 60.4503C111.14 56.6003 114.57 53.6703 118.52 53.0003C120.53 52.6603 122.53 53.3103 124.54 52.9803C126.76 52.6103 127.88 50.9403 128.34 48.8703C129.22 44.8703 131.34 41.5403 134.89 39.3903C138.3 37.3303 142.32 36.8903 146.07 38.2503C150.3 39.7903 153.64 43.4503 154.74 47.8103C154.99 48.7903 156.11 49.1403 156.94 48.7103C162.33 45.9203 169.48 48.3803 172.22 53.7203C172.6 54.4603 173.59 54.6303 174.27 54.2603C176.2 53.2103 178.4 53.4403 180.16 54.6903C181.74 55.8103 183.24 53.2103 181.67 52.1003L181.68 52.0803Z" fill="black"/>
<path d="M393.422 71.9204C392.092 70.9204 390.161 70.8004 388.721 71.6404C386.821 67.7904 381.512 66.0904 377.732 68.1204C376.742 63.9704 372.661 60.7904 368.401 60.8404C364.141 60.8904 360.131 64.1804 359.241 68.3404C359.101 69.0004 359.011 69.7304 358.531 70.2104C357.761 71.0004 356.482 70.7304 355.382 70.6504C351.932 70.3804 348.461 72.8004 347.521 76.1404L395.042 75.9704C395.462 74.3604 394.741 72.9204 393.411 71.9204H393.422Z" fill="#F0F0F0"/>
<path d="M394.181 70.6304C392.311 69.3404 389.961 69.3104 387.971 70.3504C388.651 70.5304 389.341 70.7104 390.021 70.8904C387.601 66.2704 381.571 64.5104 376.971 66.8304L379.171 67.7304C378.201 63.9904 375.251 60.9804 371.571 59.8204C367.881 58.6604 363.901 59.7704 361.081 62.3404C359.711 63.5904 358.671 65.1804 358.071 66.9304C357.881 67.4904 357.841 68.9504 357.311 69.2304C356.691 69.5604 355.351 69.1204 354.661 69.1404C350.711 69.2504 347.231 72.0104 346.071 75.7404C345.781 76.6704 346.571 77.6404 347.521 77.6404C352.871 77.6204 358.211 77.6004 363.561 77.5804C372.091 77.5504 380.621 77.5204 389.141 77.4904C391.111 77.4904 393.071 77.4804 395.041 77.4704C395.661 77.4704 396.351 77.0104 396.491 76.3704C396.941 74.2104 396.191 72.2504 394.481 70.8604C392.991 69.6604 390.861 71.7704 392.361 72.9804C393.201 73.6604 393.831 74.4404 393.601 75.5704C394.081 75.2004 394.561 74.8404 395.051 74.4704C389.701 74.4904 384.361 74.5104 379.011 74.5304C370.481 74.5604 361.951 74.5904 353.431 74.6204C351.461 74.6204 349.501 74.6304 347.531 74.6404C348.011 75.2704 348.491 75.9104 348.981 76.5404C349.471 74.9504 350.571 73.6704 352.041 72.8704C353.481 72.0904 354.841 72.1504 356.421 72.2404C357.981 72.3304 359.451 71.8804 360.211 70.4204C360.591 69.6804 360.641 68.8404 360.881 68.0604C361.101 67.3304 361.441 66.6704 361.861 66.0304C363.541 63.4804 366.731 61.9004 369.781 62.4504C372.921 63.0204 375.511 65.4504 376.311 68.5204C376.571 69.5004 377.671 69.8404 378.511 69.4204C381.711 67.8004 385.821 69.2804 387.451 72.4004C387.841 73.1404 388.811 73.3004 389.501 72.9404C390.581 72.3704 391.701 72.5404 392.681 73.2204C394.281 74.3104 395.781 71.7204 394.191 70.6304H394.181Z" fill="black"/>
<path d="M101.68 90.6499C100.32 89.6199 98.3405 89.5099 96.8805 90.3699C94.9305 86.4299 89.5005 84.6999 85.6305 86.7699C84.6205 82.5299 80.4405 79.2699 76.0805 79.3199C71.7205 79.3699 67.6205 82.7299 66.7105 86.9999C66.5705 87.6799 66.4705 88.4199 65.9905 88.9199C65.2005 89.7199 63.8905 89.4499 62.7705 89.3699C59.2405 89.0899 55.6905 91.5699 54.7305 94.9799L103.35 94.7999C103.78 93.1499 103.04 91.6799 101.69 90.6599L101.68 90.6499Z" fill="#F0F0F0"/>
<path d="M102.43 89.3502C100.52 88.0402 98.1301 88.0102 96.1101 89.0702C96.7901 89.2502 97.4801 89.4302 98.1601 89.6102C95.6901 84.9002 89.5501 83.1002 84.8601 85.4702L87.0601 86.3702C85.5201 80.4402 79.0401 76.4302 73.0701 78.2902C70.2001 79.1902 67.6401 81.2502 66.2401 83.9302C65.9101 84.5602 65.6301 85.2302 65.4301 85.9102C65.2801 86.4102 65.2701 87.5802 64.8301 87.8902C64.4101 88.1902 63.4001 87.9102 62.9201 87.8702C62.1401 87.8102 61.3701 87.8502 60.6001 87.9902C57.1401 88.6002 54.2901 91.2502 53.2601 94.5702C52.9701 95.5002 53.7601 96.4702 54.7101 96.4702C60.1901 96.4502 65.6701 96.4302 71.1601 96.4102C79.8901 96.3802 88.6201 96.3502 97.3501 96.3102C99.3401 96.3102 101.34 96.3002 103.33 96.2902C103.95 96.2902 104.64 95.8302 104.78 95.1902C105.24 92.9902 104.47 91.0002 102.73 89.5902C101.24 88.3902 99.1101 90.5002 100.61 91.7102C101.48 92.4102 102.13 93.2202 101.89 94.3902C102.37 94.0202 102.85 93.6602 103.34 93.2902C97.8601 93.3102 92.3801 93.3302 86.8901 93.3502C78.1601 93.3802 69.4301 93.4102 60.7001 93.4502C58.7101 93.4502 56.7101 93.4602 54.7201 93.4702C55.2001 94.1002 55.6801 94.7402 56.1701 95.3702C56.6601 93.8002 57.7101 92.5202 59.1301 91.7002C60.6601 90.8102 62.1001 90.8602 63.8101 90.9502C65.4001 91.0402 66.8801 90.5902 67.6601 89.1002C68.0501 88.3602 68.1001 87.5002 68.3401 86.7102C68.5701 85.9302 68.9401 85.2102 69.3901 84.5402C71.1301 81.9802 74.3401 80.3802 77.4401 80.9202C80.6901 81.4802 83.3701 84.0002 84.1901 87.1702C84.4501 88.1502 85.5501 88.4902 86.3901 88.0702C89.6801 86.4002 93.9101 87.9202 95.5801 91.1302C95.9701 91.8702 96.9401 92.0302 97.6301 91.6702C98.7501 91.0802 99.9001 91.2502 100.92 91.9502C102.52 93.0402 104.02 90.4502 102.43 89.3602V89.3502Z" fill="black"/>
<path d="M375 465.64C565.13 465.64 719.26 458.521 719.26 449.74C719.26 440.959 565.13 433.84 375 433.84C184.871 433.84 30.7402 440.959 30.7402 449.74C30.7402 458.521 184.871 465.64 375 465.64Z" fill="url(#paint0_linear_1007_3758)"/>
<path d="M225.55 58.1201H318.49C325.74 58.1201 331.63 64.0101 331.63 71.2601V271.53C331.63 280.93 324 288.56 314.6 288.56H229.43C220.03 288.56 212.4 280.93 212.4 271.53V71.2601C212.4 64.0101 218.29 58.1201 225.54 58.1201H225.55Z" fill="black" stroke="black" stroke-miterlimit="10"/>
<path d="M296.741 63.29L294.831 67.06H248.181L245.411 63.29H223.361C219.831 63.29 216.971 66.12 216.971 69.6V272.87C216.971 278.14 221.291 282.41 226.621 282.41H317.431C322.761 282.41 327.081 278.14 327.081 272.87V69.6C327.081 66.11 324.221 63.29 320.691 63.29H296.731H296.741Z" fill="#E0E0E0" stroke="black" stroke-miterlimit="10"/>
<path opacity="0.6" d="M236.12 68H234.66V69.94H236.12V68Z" fill="white" stroke="black" stroke-miterlimit="10"/>
<path opacity="0.6" d="M233.741 67.3506H232.281V69.9406H233.741V67.3506Z" fill="white" stroke="black" stroke-miterlimit="10"/>
<path opacity="0.6" d="M231.37 66.7002H229.91V69.9402H231.37V66.7002Z" fill="white" stroke="black" stroke-miterlimit="10"/>
<path opacity="0.6" d="M229.011 66.0605H227.551V69.9406H229.011V66.0605Z" fill="white" stroke="black" stroke-miterlimit="10"/>
<path opacity="0.6" d="M312.811 67.29H311.951V69.23H312.811V67.29Z" fill="white" stroke="black" stroke-miterlimit="10"/>
<path opacity="0.6" d="M320.28 66.5801H313.41V69.9401H320.28V66.5801Z" fill="white" stroke="black" stroke-miterlimit="10"/>
<path d="M271.971 62.9298C271.971 63.9898 271.111 64.8498 270.051 64.8498C268.991 64.8498 268.131 63.9898 268.131 62.9298C268.131 61.8698 268.991 61.0098 270.051 61.0098C271.111 61.0098 271.971 61.8698 271.971 62.9298Z" fill="white" stroke="black" stroke-miterlimit="10"/>
<path d="M274.801 62.9297C274.801 63.4597 274.371 63.8897 273.841 63.8897C273.311 63.8897 272.881 63.4597 272.881 62.9297C272.881 62.3997 273.311 61.9697 273.841 61.9697C274.371 61.9697 274.801 62.3997 274.801 62.9297Z" fill="white" stroke="black" stroke-miterlimit="10"/>
<path opacity="0.4" d="M327.04 86.7598H217.09V249.57H327.04V86.7598Z" fill="white" stroke="black" stroke-miterlimit="10"/>
<path opacity="0.2" d="M327.04 111.81V103.66L301.18 127.5L273.86 118.4L290.98 86.75H284.09L276.79 100.23L223.86 86.75H217.1V91.13L237.02 96.18L220.86 124.65L258.78 133.57L254.28 141.89L217.09 132.57V138.67L251.36 147.26L240.27 167.79L222.75 162.87L217.09 166.43V173.5L223.74 169.29L237.38 173.11L217.09 210.64V223.37L230.36 198.83L248.42 203.95V226.35L285.15 249.56H297.22L254.52 222.64V205.67L327.03 226.22V220.07L305.39 213.91L312.01 178.75L327.07 182.56V176.47L286.42 166.19L304.45 132.65L327.02 111.8L327.04 111.81ZM230.04 120.74L243.13 97.76L273.92 105.61L261.7 128.19L230.04 120.74ZM306.05 177.27L299.5 212.29L233.24 193.51L251.8 159.19L258.9 166.77L281.22 170.98L306.05 177.27ZM280.27 164.8L262.11 161.36L254.84 153.58L271 123.69L297.6 132.55L280.27 164.81V164.8Z" fill="black" stroke="black" stroke-miterlimit="10"/>
<path opacity="0.4" d="M287.58 100.8L278.85 117.08L301.18 123.69L313.5 111.38C304.64 108.36 295.98 104.83 287.57 100.8H287.58Z" fill="white"/>
<path opacity="0.4" d="M327.041 86.7598V97.8798L316.111 108.83C308.761 106.3 301.511 103.57 294.451 100.41C292.661 99.6098 290.891 98.7798 289.131 97.9298L295.081 86.7698H327.031L327.041 86.7598Z" fill="white"/>
<path opacity="0.4" d="M272.061 127.29L292.801 134.03L282.431 154.97L261.381 148.44L272.061 127.29Z" fill="white"/>
<path opacity="0.4" d="M292.82 163.331C292.99 162.771 303.01 142.771 303.01 142.771L317.85 147.23L320.47 169.84L292.83 163.331H292.82Z" fill="white"/>
<path opacity="0.4" d="M306.641 138.77L322.181 142.77L323.421 125.75L309.391 133.16L306.641 138.77Z" fill="white"/>
<path opacity="0.4" d="M262.451 194.35C262.761 194.1 269.651 173.61 269.651 173.61L301.781 179.07L296.431 206.42L262.451 194.35Z" fill="white"/>
<path opacity="0.4" d="M245.161 182.64L254.851 185.72L250.011 194.34C250.011 194.34 239.811 192.08 239.811 191.42C239.811 190.76 245.171 182.64 245.171 182.64H245.161Z" fill="white"/>
<path opacity="0.4" d="M245.69 208.58C245.45 209.14 239.57 249.58 239.57 249.58H217.09L217.76 235.81L231.37 205.59L245.69 208.58Z" fill="white"/>
<path opacity="0.4" d="M327.041 228.54V245.62L302.471 246.56L281.111 231.2C281.111 231.2 284.791 220.99 285.891 217.74L327.051 228.55L327.041 228.54Z" fill="white"/>
<path opacity="0.4" d="M282.59 216.84L264.14 211.99L261.52 220.74L278.22 229.46C278.22 229.46 282.59 217.67 282.59 216.84Z" fill="white"/>
<path opacity="0.4" d="M327.041 193.5V212.15L310.061 208.58L313.521 190.93L327.041 193.5Z" fill="white"/>
<path opacity="0.4" d="M225.451 157.77L230.831 145.89L245.831 150.15L239.801 162.56L225.451 157.77Z" fill="white"/>
<path opacity="0.4" d="M239.111 116.45L246.501 103.53L266.561 109.14L259.831 122.95L239.111 116.45Z" fill="white"/>
<path opacity="0.4" d="M279.19 86.7598C277.33 90.3898 274.93 94.9998 274.55 95.2898C274.17 95.5798 249.37 89.5198 238.41 86.7598H279.19Z" fill="white" stroke="black" stroke-miterlimit="10"/>
<path opacity="0.4" d="M230.83 99.74L217.09 127.44V96.29L230.83 99.74Z" fill="white" stroke="black" stroke-miterlimit="10"/>
<path opacity="0.4" d="M245.691 249.58C244.981 249.58 251.271 236.1 251.231 235.84C251.061 234.76 274.431 249.58 274.431 249.58H245.691Z" fill="white"/>
<path d="M238.73 155.56C235.71 152.54 230.81 152.54 227.79 155.56C224.83 158.57 224.83 163.4 227.79 166.41L233.21 171.83L238.63 166.41C241.61 163.42 241.65 158.6 238.72 155.56H238.73ZM235.69 163.46C234.35 164.8 232.17 164.8 230.83 163.46C229.49 162.12 229.49 159.94 230.83 158.6C232.17 157.26 234.34 157.26 235.68 158.6C237.04 159.93 237.07 162.12 235.73 163.48C235.71 163.5 235.7 163.51 235.68 163.53V163.46H235.69Z" fill="#976EFF"/>
<path d="M419.281 178.94L331.641 180.34C331.641 180.34 283.461 167.48 282.601 167.29C281.741 167.1 301.781 131 301.781 131L269.961 120.25L241.741 171.57L233.301 168.16" stroke="#976EFF" stroke-width="2" stroke-miterlimit="10"/>
<path d="M413.251 187.62C417.923 187.62 421.711 183.833 421.711 179.16C421.711 174.488 417.923 170.7 413.251 170.7C408.579 170.7 404.791 174.488 404.791 179.16C404.791 183.833 408.579 187.62 413.251 187.62Z" fill="#976EFF" stroke="black" stroke-miterlimit="10"/>
<path d="M433.63 140.64L419.25 160.6C416.63 163.22 407.87 162.15 405.25 159.53L386.38 140.65C373.93 127.71 373.93 107.25 386.38 94.3103C399.18 81.0203 420.33 80.6203 433.62 93.4103C446.65 106.45 446.65 127.59 433.62 140.63L433.63 140.64ZM410 132.53C418.55 132.53 425.49 125.6 425.51 117.05C425.51 108.24 418.17 101.14 409.27 101.55C401.37 101.91 394.87 108.41 394.51 116.31C394.1 125.21 401.2 132.55 410.01 132.55V132.52L410 132.53Z" fill="#976EFF" stroke="black" stroke-miterlimit="10"/>
<path d="M392.861 93.7303C406.151 80.9303 427.301 81.3303 440.101 94.6303C452.551 107.57 452.561 128.03 440.101 140.97L421.231 159.85C418.611 162.47 414.361 162.47 411.741 159.85L392.851 140.96C379.821 127.92 379.821 106.78 392.851 93.7403L392.861 93.7303ZM416.491 132.88C425.301 132.88 432.391 125.54 431.991 116.64C431.631 108.74 425.131 102.24 417.231 101.88C408.331 101.47 400.991 108.57 400.991 117.38C401.011 125.94 407.951 132.86 416.501 132.86V132.89L416.491 132.88Z" fill="#976EFF" stroke="black" stroke-miterlimit="10"/>
<path opacity="0.5" d="M392.861 93.7303C406.151 80.9303 427.301 81.3303 440.101 94.6303C452.551 107.57 452.561 128.03 440.101 140.97L421.231 159.85C418.611 162.47 414.361 162.47 411.741 159.85L392.851 140.96C379.821 127.92 379.821 106.78 392.851 93.7403L392.861 93.7303ZM416.491 132.88C425.301 132.88 432.391 125.54 431.991 116.64C431.631 108.74 425.131 102.24 417.231 101.88C408.331 101.47 400.991 108.57 400.991 117.38C401.011 125.94 407.951 132.86 416.501 132.86V132.89L416.491 132.88Z" fill="white"/>
<path d="M544.561 118.009C534.261 116.369 524.581 123.379 522.941 133.679C521.301 143.979 528.311 153.659 538.611 155.299C546.561 156.569 554.121 152.669 557.921 146.089L563.471 144.939L560.161 139.949C560.181 139.849 560.211 139.749 560.221 139.639C561.861 129.339 554.851 119.659 544.551 118.019L544.561 118.009Z" fill="#976EFF" stroke="black" stroke-miterlimit="10"/>
<path d="M520.02 137.83C519.36 131.73 522 125.37 526.78 121.52" stroke="black" stroke-width="0.75" stroke-linecap="round" stroke-linejoin="round"/>
<path d="M529.051 119.12C529.731 118.48 530.551 117.99 531.441 117.68" stroke="black" stroke-width="0.75" stroke-linecap="round" stroke-linejoin="round"/>
<path d="M540.9 143.979L532.24 137.529L534.49 134.509L540.29 138.829L548.26 129.319L551.15 131.739L540.9 143.979Z" fill="white"/>
<path d="M164.269 152.79C171.679 145.45 171.739 133.5 164.399 126.09C157.059 118.68 145.109 118.62 137.699 125.96C131.979 131.62 130.659 140.03 133.719 146.98L131.369 152.14L137.349 152.42C137.419 152.5 137.479 152.58 137.559 152.65C144.899 160.06 156.849 160.12 164.259 152.78L164.269 152.79Z" fill="#976EFF" stroke="black" stroke-miterlimit="10"/>
<path d="M162.77 121.279C168.08 124.349 171.66 130.239 171.93 136.369" stroke="black" stroke-width="0.75" stroke-linecap="round" stroke-linejoin="round"/>
<path d="M171.949 139.189C172.059 140.119 171.979 141.069 171.709 141.969" stroke="black" stroke-width="0.75" stroke-linecap="round" stroke-linejoin="round"/>
<path d="M150.33 146.519L141.68 140.069L143.92 137.049L149.73 141.369L157.7 131.859L160.58 134.279L150.33 146.519Z" fill="white"/>
<path d="M649.401 428.58L639.471 430.47L630.361 409.61L643.321 404.99L649.401 428.58Z" fill="#FFB7B1"/>
<path d="M638.181 428.81L641.311 427.79C642.021 427.56 642.791 427.7 643.391 428.14C645.991 430.02 647.041 428.64 648.251 425.69C649.451 425.14 650.251 426.46 650.481 426.81L655.581 434.55C656.011 435.19 655.841 436.07 655.201 436.5C655.091 436.58 654.961 436.64 654.831 436.68C651.031 437.91 649.241 438.5 644.521 440.03L630.071 444.73C626.131 446.01 624.031 442.31 625.531 441.41C632.301 437.43 636.771 433.6 638.331 430.74C638.631 430.23 638.111 430.09 638.191 428.8L638.181 428.81Z" fill="#263238"/>
<path d="M634.461 433.22C635.441 432.88 636.381 432.43 637.271 431.89C637.351 431.83 637.361 431.71 637.301 431.63C637.271 431.59 637.221 431.56 637.161 431.56C636.651 431.49 632.151 430.93 631.401 431.95C631.261 432.13 631.231 432.38 631.321 432.58C631.461 432.98 631.781 433.3 632.181 433.43C632.941 433.6 633.741 433.53 634.461 433.22ZM636.581 431.85C635.501 432.44 633.451 433.42 632.341 433.05C632.051 432.94 631.821 432.72 631.711 432.43C631.661 432.34 631.671 432.24 631.741 432.16C632.161 431.61 634.731 431.66 636.581 431.85Z" fill="#407BFF"/>
<path d="M637.231 431.91C637.231 431.91 637.321 431.9 637.351 431.87C637.391 431.81 637.381 431.73 637.351 431.67C637.301 431.51 635.131 427.96 633.071 428.9C632.561 429.14 632.491 429.45 632.541 429.67C632.741 430.73 635.821 431.86 637.161 431.97L637.241 431.91H637.231ZM633.371 429.14C634.731 428.7 636.241 430.69 636.801 431.5C635.311 431.24 633.001 430.22 632.911 429.56C632.891 429.51 632.851 429.37 633.231 429.2L633.371 429.14Z" fill="#407BFF"/>
<path d="M636.801 431.931C637.921 431.731 639.131 432.051 640.011 432.781" stroke="#407BFF" stroke-width="0.5" stroke-linecap="round" stroke-linejoin="round"/>
<path d="M635.33 434.02C636.45 433.82 637.66 434.14 638.54 434.87" stroke="#407BFF" stroke-width="0.5" stroke-linecap="round" stroke-linejoin="round"/>
<path d="M633.311 436.03C634.431 435.83 635.641 436.15 636.521 436.88" stroke="#407BFF" stroke-width="0.5" stroke-linecap="round" stroke-linejoin="round"/>
<path d="M584.33 433.52L574.229 433.14L570.02 410.77L583.69 409.17L584.33 433.52Z" fill="#FFB7B1"/>
<path d="M573.35 431.23L576.62 430.94C577.36 430.87 578.08 431.19 578.57 431.75C580.69 434.16 582.02 433.06 583.86 430.45C585.15 430.18 585.64 431.65 585.78 432.04L589.02 440.72C589.3 441.44 588.94 442.26 588.21 442.54C588.08 442.59 587.95 442.62 587.81 442.63C583.84 442.98 581.95 443.15 577.01 443.59L561.88 444.94C557.76 445.31 556.53 441.23 558.2 440.69C565.69 438.32 570.9 435.59 573.06 433.16C573.46 432.73 572.99 432.48 573.36 431.23H573.35Z" fill="#263238"/>
<path d="M568.74 434.7C569.77 434.58 570.79 434.36 571.77 434.03C571.86 433.99 571.9 433.88 571.86 433.79C571.84 433.74 571.79 433.7 571.74 433.69C571.26 433.51 567 431.96 566.04 432.78C565.86 432.92 565.77 433.16 565.82 433.38C565.86 433.8 566.1 434.18 566.47 434.4C567.17 434.74 567.97 434.85 568.74 434.7ZM571.11 433.84C569.92 434.17 567.71 434.67 566.71 434.06C566.45 433.89 566.28 433.62 566.23 433.32C566.2 433.23 566.23 433.12 566.32 433.06C566.85 432.61 569.34 433.24 571.11 433.84Z" fill="#976EFF"/>
<path d="M571.731 434.05C571.731 434.05 571.821 434.05 571.861 434.04C571.911 433.99 571.921 433.91 571.901 433.84C571.881 433.67 570.561 429.73 568.341 430.18C567.791 430.3 567.651 430.59 567.651 430.81C567.611 431.89 570.361 433.68 571.641 434.09L571.731 434.05ZM568.591 430.48C570.011 430.35 571.041 432.63 571.401 433.55C570.001 432.96 567.981 431.45 568.041 430.79C568.041 430.74 568.021 430.59 568.431 430.51L568.581 430.49L568.591 430.48Z" fill="#976EFF"/>
<path d="M571.301 433.96C572.441 434.01 573.551 434.59 574.241 435.5" stroke="#976EFF" stroke-width="0.5" stroke-linecap="round" stroke-linejoin="round"/>
<path d="M569.4 435.67C570.54 435.72 571.65 436.3 572.34 437.21" stroke="#976EFF" stroke-width="0.5" stroke-linecap="round" stroke-linejoin="round"/>
<path d="M566.99 437.189C568.13 437.239 569.24 437.819 569.93 438.729" stroke="#976EFF" stroke-width="0.5" stroke-linecap="round" stroke-linejoin="round"/>
<path d="M626.901 333.261C622.001 294.461 621.211 253.541 615.391 244.881L584.881 244.391C585.031 245.001 598.501 319.621 603.091 339.991C609.271 366.861 635.301 425.571 635.301 425.571L649.391 422.301C649.391 422.301 636.031 363.281 626.891 333.271L626.901 333.261Z" fill="#407BFF"/>
<path opacity="0.2" d="M626.901 333.261C622.001 294.461 621.211 253.541 615.391 244.881L584.881 244.391C585.031 245.001 598.501 319.621 603.091 339.991C609.271 366.861 635.301 425.571 635.301 425.571L649.391 422.301C649.391 422.301 636.031 363.281 626.891 333.271L626.901 333.261Z" fill="black"/>
<path d="M567.62 245.031C564.94 242.991 556.19 348.411 568.84 426.121L585.89 425.421C585.89 425.421 585.41 358.141 587.13 327.741C588.85 297.341 599.11 245.031 599.11 245.031H567.61H567.62Z" fill="#407BFF"/>
<path opacity="0.2" d="M567.62 245.031C564.94 242.991 556.19 348.411 568.84 426.121L585.89 425.421C585.89 425.421 585.41 358.141 587.13 327.741C588.85 297.341 599.11 245.031 599.11 245.031H567.61H567.62Z" fill="black"/>
<path opacity="0.2" d="M587.849 318.45C587.849 318.45 586.729 310.62 586.239 300.71C585.759 290.91 587.039 281.11 589.889 271.73L592.249 284.45L587.839 318.45H587.849Z" fill="black"/>
<path opacity="0.2" d="M565.74 253.571C565.74 253.571 571.21 262.341 589.2 260.151C607.19 257.961 618.05 252.321 618.05 252.321L616.72 247.261L566.47 249.321L565.74 253.561V253.571Z" fill="black"/>
<path d="M607.01 184.07C608.01 184.64 628.94 198.53 638.51 199.16C650.61 199.96 651.26 157.35 651.26 157.35L644.54 160.64C644.54 160.64 638.81 184.39 634.74 184.24C630.67 184.09 616.14 172.17 616.14 172.17L607.01 184.07Z" fill="#FFB7B1"/>
<path d="M574.62 188.42C572.62 194.68 570.43 200.86 568.14 207.01C567 210.09 565.84 213.16 564.63 216.22C563.42 219.28 562.21 222.34 560.93 225.4C560.64 226.13 560.23 227.01 559.87 227.83C559.51 228.65 559.11 229.44 558.72 230.22C558.33 231 557.92 231.77 557.5 232.52C557.08 233.27 556.68 234.03 556.25 234.76C554.59 237.76 552.76 240.52 550.95 243.32C547.27 248.89 542.86 254.16 537.46 259.31L532.67 255.13L542.36 238.38C545.21 232.82 547.7 227.09 549.82 221.21L555.9 202.7C557.9 196.52 560.05 190.33 562.22 184.21L574.62 188.42Z" fill="#FFB7B1"/>
<path d="M587.24 165.689C587.22 165.349 573.72 166.039 572.19 168.519C570.66 170.999 563.92 242.979 563.76 249.449C563.59 256.119 604.11 260.669 619.5 249.269C619.5 249.269 616.51 195.809 617.07 186.389C617.63 176.929 609.64 167.969 609.64 167.969L599.03 166.449L587.24 165.689Z" fill="#263238"/>
<path d="M585.02 174.53C582.91 181.47 575.62 198.8 575.62 198.8L556.34 194.92C556.34 194.92 561.85 175.86 568.46 170.55C577.84 163.02 587.74 165.58 585.02 174.53Z" fill="#263238"/>
<path opacity="0.2" d="M611.531 184.31C610.821 187.49 613.621 206.07 617.071 209.64C617.341 205.01 616.461 196.06 617.071 191.11L611.531 184.31Z" fill="black"/>
<path d="M614.671 168.79C623.641 172.74 635.501 182.96 635.501 182.96L624.101 199.18C619.191 196.31 615.121 191.71 609.901 187.43C602.861 181.53 600.741 173.15 605.271 169.43C607.561 167.55 611.971 167.6 614.691 168.79H614.671Z" fill="#263238"/>
<path opacity="0.2" d="M568.48 197.3L569.97 180.72L562.43 196.09L568.48 197.3Z" fill="black"/>
<path d="M537.75 258.57C537.71 258.81 535.54 263.7 534.95 264.57C534.36 265.43 528.02 269.92 527.83 268.88C527.64 267.85 527.82 267.51 529.07 266.36C530.32 265.21 531.58 264.26 530.99 264.16C530.4 264.05 525.93 266.37 525.08 267.56C524.23 268.75 522.75 270.97 521.71 270.65C520.67 270.33 521.14 269.21 521.14 269.21C521.14 269.21 520.08 268.89 520.04 267.96C520 267.03 521.01 263.5 522.17 262.22C523.33 260.94 530.35 256.5 531.89 255.58C532.35 255.3 534.94 251.52 534.94 251.52L541.7 254.93L537.76 258.59L537.75 258.57Z" fill="#FFB7B1"/>
<path d="M655.939 143.43C655.669 143.26 655.239 143.82 654.769 144.63C654.959 143.44 655.049 142.53 654.969 142.13C654.659 140.58 653.679 140.84 653.669 140.75C653.669 140.75 653.669 140.76 653.669 140.77C653.609 140.11 653.519 139.53 653.359 139.18C652.849 138.03 651.629 138.72 651.629 138.72C651.629 138.72 651.119 137.55 650.049 137.63C648.969 137.71 647.899 141.15 647.029 142.94C646.389 144.26 645.379 147.02 644.419 149.7C644.229 148.06 644.349 147.43 644.369 145.55C644.369 145.1 644.349 144.61 644.029 144.3C643.689 143.98 643.119 144.01 642.719 144.27C642.329 144.53 642.079 144.95 641.879 145.38C641.079 147.1 640.959 149.06 641.059 150.96C641.179 153.31 641.629 154.39 642.079 156.07C642.779 157.72 644.719 159.35 644.719 159.35L643.809 165.9L650.199 165.94C650.159 166.12 650.419 158.55 650.419 158.55C650.419 158.55 650.509 158.42 650.739 158.02C651.119 157.71 651.509 157.29 651.839 156.68C652.869 154.78 655.709 148 656.119 146.68C656.539 145.36 656.709 143.89 655.939 143.41V143.43Z" fill="#FFB7B1"/>
<path d="M644.269 150.35C645.729 151.04 646.839 152.36 647.229 153.93C647.349 154.4 648.069 154.2 647.949 153.73C647.509 151.99 646.269 150.47 644.639 149.7C644.459 149.61 644.239 149.65 644.129 149.83C644.029 149.99 644.079 150.26 644.259 150.34L644.269 150.35Z" fill="#EF8274"/>
<path d="M646.749 147.81C648.399 148.71 649.949 150 651.049 151.53C651.169 151.69 651.379 151.77 651.559 151.66C651.719 151.57 651.809 151.31 651.689 151.15C650.509 149.52 648.889 148.13 647.119 147.17C646.699 146.94 646.319 147.59 646.739 147.82L646.749 147.81Z" fill="#EF8274"/>
<path d="M648.67 148.16C649.03 145.57 649.77 143.04 650.88 140.67C651.08 140.24 650.44 139.85 650.23 140.29C649.09 142.72 648.32 145.3 647.94 147.96C647.87 148.43 648.6 148.64 648.66 148.16H648.67Z" fill="#EF8274"/>
<path d="M650.839 149.56C651.359 147.27 651.799 144.95 652.629 142.75C652.799 142.3 652.079 142.1 651.909 142.55C651.079 144.75 650.639 147.07 650.119 149.36C650.009 149.83 650.739 150.03 650.839 149.56Z" fill="#EF8274"/>
<path d="M584.6 165.661C584.68 165.661 586.84 165.441 586.84 165.441C587.17 163.841 587.03 161.701 586.81 159.971C586.63 158.761 586.36 157.561 585.98 156.381L592.28 151.121L597.98 146.301C597.63 148.421 597.38 150.561 597.26 152.711C596.94 156.421 597.36 159.391 597.85 162.961C598.3 164.551 598.36 165.941 599.73 166.611C599.73 166.611 593.57 171.681 589.13 171.561C584.69 171.441 584.62 165.661 584.62 165.661H584.6Z" fill="#FFB7B1"/>
<path opacity="0.2" d="M597.35 155.54C597.35 155.54 593.61 164.52 586.92 161.01L586.82 159.44L597.35 155.53V155.54Z" fill="black"/>
<path d="M600.701 135.3C598.571 129.09 591.611 125.54 585.161 127.38C576.261 129.92 574.281 142.36 575.741 150.11C577.361 158.75 588.101 163.64 595.241 157.75C600.001 153.83 600.161 148.85 601.221 140.46C601.451 138.74 601.271 136.97 600.701 135.3Z" fill="#FFB7B1"/>
<path d="M573.18 132.71C573.18 132.71 574 133.67 574.77 133.39C574 132.14 574.1 130.6 575.02 129.49C575.02 129.49 575.58 130.82 576.23 130.84C576.62 127.71 578.02 124.79 580.23 122.49C584.06 118.22 596.63 123.72 596.63 123.72C596.63 123.72 599.64 121.17 604.42 125.49C608.25 128.96 608.7 136.04 608.35 139.09C606.95 142.03 603.66 144.87 599.2 146.32C597.01 143.83 596.85 140.07 597.07 137.46C596.41 137.28 595.79 136.94 595.29 136.45C593.33 134.57 594.79 128.03 586.98 129C585.6 128.16 583.85 128.15 582.52 128.98C580.12 130.38 578.82 138.02 575.5 135.78C572.18 133.54 573.18 132.69 573.18 132.69V132.71Z" fill="#263238"/>
<path d="M587.78 142.361C587.68 143.321 586.95 143.981 586.28 143.861C585.61 143.731 585.23 142.861 585.39 141.901C585.55 140.951 586.23 140.281 586.89 140.401C587.54 140.521 587.94 141.391 587.78 142.361Z" fill="#263238"/>
<path d="M579.441 141.43C579.341 142.39 578.601 143.05 577.941 142.93C577.291 142.81 576.891 141.93 577.051 140.97C577.211 140.02 577.901 139.35 578.551 139.47C579.201 139.59 579.601 140.52 579.441 141.43Z" fill="#263238"/>
<path d="M576.49 136.98C576.61 137.1 576.79 137.16 576.95 137.13C578.08 136.86 579.3 137.13 580.24 137.85C580.43 138.02 580.72 138.02 580.89 137.85C581.06 137.68 581.05 137.4 580.86 137.22C579.7 136.28 578.16 135.92 576.73 136.26C576.48 136.31 576.33 136.54 576.39 136.78C576.39 136.78 576.39 136.78 576.39 136.79C576.42 136.86 576.45 136.92 576.5 136.98H576.49Z" fill="#263238"/>
<path d="M589.691 137.9C589.781 137.88 589.861 137.83 589.921 137.76C590.041 137.54 589.961 137.28 589.731 137.17C588.411 136.5 586.821 136.49 585.471 137.14C585.251 137.26 585.171 137.53 585.301 137.74C585.431 137.95 585.711 138.01 585.931 137.9C587.011 137.42 588.261 137.45 589.301 137.97C589.431 138 589.581 137.98 589.691 137.91V137.9Z" fill="#263238"/>
<path d="M605.93 147.74C604.97 149.86 603.16 151.5 600.89 152.31C597.87 153.36 596.03 150.81 596.57 147.95C597.08 145.41 599.24 141.71 602.42 141.93C605.59 142.14 607.08 145.13 605.94 147.74H605.93Z" fill="#FFB7B1"/>
<path opacity="0.1" d="M598.701 148.52C598.881 146.96 599.821 145.51 601.201 144.68C601.791 144.33 602.601 144.1 603.171 144.52" stroke="black" stroke-width="0.5" stroke-miterlimit="10"/>
<path d="M582.2 140.65C580.87 142.74 579.24 144.63 577.35 146.28C578.31 147.22 579.64 147.72 580.99 147.65L582.2 140.65Z" fill="#EF8274"/>
<g opacity="0.3">
<path d="M587.391 128.27C586.981 127.14 586.461 126.21 585.581 125.37C584.791 124.61 583.741 124.06 582.641 123.97C581.351 123.86 580.071 124.46 579.191 125.38C578.291 126.31 577.761 127.51 577.391 128.73C577.251 129.19 577.971 129.39 578.111 128.93C578.661 127.08 579.801 125.04 581.911 124.74C582.731 124.62 583.471 124.83 584.201 125.26C585.441 125.99 586.181 127.16 586.661 128.47C586.821 128.92 587.551 128.73 587.381 128.27H587.391Z" fill="black"/>
</g>
<g opacity="0.3">
<path d="M589.19 127.7C588.9 124.8 586.81 122.25 584.01 121.42C583.55 121.28 583.35 122.01 583.81 122.14C586.27 122.87 588.18 125.14 588.44 127.7C588.49 128.18 589.24 128.18 589.19 127.7Z" fill="black"/>
</g>
<path d="M583.2 151.141C584.68 150.961 586.03 150.011 586.62 148.621C586.7 148.431 586.68 148.221 586.49 148.111C586.33 148.021 586.06 148.061 585.98 148.241C585.49 149.381 584.41 150.231 583.2 150.381C583 150.401 582.83 150.531 582.83 150.761C582.83 150.941 583 151.161 583.2 151.141Z" fill="#263238"/>
<g opacity="0.3">
<path d="M609.279 167.88C606.209 169.19 604.399 172.39 604.179 175.64C603.919 179.5 605.899 183.13 608.389 185.94C608.709 186.3 609.239 185.77 608.919 185.41C606.619 182.8 604.779 179.47 604.919 175.89C605.039 172.8 606.749 169.77 609.659 168.53C610.099 168.34 609.719 167.7 609.279 167.88Z" fill="black"/>
</g>
<path d="M364.61 449.74C364.61 449.74 383.95 449.74 392.02 449.57C401.68 449.36 411.46 445.74 418.79 434.48C432.04 414.13 432.04 381.13 418.79 360.78C412.16 350.6 399.41 345.52 390.72 345.52H364.86C351.61 365.87 351.35 429.4 364.61 449.75V449.74Z" fill="black"/>
<path d="M364.86 449.73C383.599 449.73 398.79 426.399 398.79 397.62C398.79 368.84 383.599 345.51 364.86 345.51C346.121 345.51 330.93 368.84 330.93 397.62C330.93 426.399 346.121 449.73 364.86 449.73Z" fill="#263238"/>
<path opacity="0.4" d="M364.861 429.57C376.348 429.57 385.661 415.265 385.661 397.62C385.661 379.974 376.348 365.67 364.861 365.67C353.373 365.67 344.061 379.974 344.061 397.62C344.061 415.265 353.373 429.57 364.861 429.57Z" fill="white"/>
<g opacity="0.3">
<path d="M363.199 371.43V387.81C363.199 389.22 363.939 390.36 364.859 390.36H364.869C365.789 390.36 366.529 389.22 366.529 387.81V371.43C366.529 370.02 365.789 368.88 364.869 368.88H364.859C363.939 368.88 363.199 370.02 363.199 371.43Z" fill="white"/>
</g>
<g opacity="0.3">
<path d="M363.199 407.43V423.81C363.199 425.22 363.939 426.36 364.859 426.36H364.869C365.789 426.36 366.529 425.22 366.529 423.81V407.43C366.529 406.02 365.789 404.88 364.869 404.88H364.859C363.939 404.88 363.199 406.02 363.199 407.43Z" fill="white"/>
</g>
<g opacity="0.3">
<path d="M358.519 394.94C359.309 395.63 360.319 395.2 360.769 393.98C361.229 392.76 360.959 391.199 360.169 390.489L350.929 382.26C350.129 381.56 349.119 381.98 348.659 383.2C348.199 384.43 348.479 385.99 349.269 386.69L358.499 394.92C358.499 394.92 358.519 394.93 358.519 394.94Z" fill="white"/>
</g>
<g opacity="0.3">
<path d="M381.08 411.919C381.54 410.699 381.26 409.139 380.47 408.439L371.24 400.209C370.44 399.499 369.42 399.909 368.96 401.129C368.5 402.359 368.77 403.929 369.57 404.639L378.8 412.869C379.6 413.579 380.62 413.159 381.08 411.929V411.919Z" fill="white"/>
</g>
<g opacity="0.3">
<path d="M348.659 412C349.119 413.22 350.139 413.64 350.929 412.93L360.169 404.7C360.959 403.98 361.229 402.42 360.769 401.19C360.309 399.97 359.289 399.56 358.499 400.27L349.269 408.5C348.479 409.21 348.199 410.77 348.659 411.99V412Z" fill="white"/>
</g>
<g opacity="0.3">
<path d="M368.97 394.009C369.43 395.229 370.45 395.629 371.24 394.919L380.47 386.689C381.26 385.979 381.54 384.419 381.08 383.199C380.62 381.969 379.6 381.549 378.8 382.259L369.57 390.489C368.78 391.199 368.5 392.759 368.96 393.979C368.96 393.979 368.96 393.999 368.96 394.009H368.97Z" fill="white"/>
</g>
<path d="M364.861 393.319C363.321 393.319 362.061 395.239 362.061 397.619C362.061 399.999 363.311 401.919 364.861 401.919C366.411 401.919 367.661 399.999 367.661 397.619C367.661 395.239 366.411 393.319 364.861 393.319Z" fill="#263238"/>
<path opacity="0.3" d="M364.86 449.73C383.599 449.73 398.79 426.399 398.79 397.62C398.79 368.84 383.599 345.51 364.86 345.51C346.121 345.51 330.93 368.84 330.93 397.62C330.93 426.399 346.121 449.73 364.86 449.73Z" fill="black"/>
<path d="M468.129 420.199C468.129 420.199 475.419 339.479 425.049 339.479C425.049 339.479 397.489 339.799 393.049 377.499C388.609 415.199 391.469 420.209 391.469 420.209H468.139L468.129 420.199Z" fill="#976EFF"/>
<path opacity="0.3" d="M468.129 420.199C468.129 420.199 475.419 339.479 425.049 339.479C425.049 339.479 397.489 339.799 393.049 377.499C388.609 415.199 391.469 420.209 391.469 420.209H468.139L468.129 420.199Z" fill="black"/>
<path d="M237.66 423.419C237.66 423.419 245.67 337.329 193 327.069C193 327.069 163.29 327.429 158.51 370.709C153.73 413.989 174.53 421.449 174.53 421.449L237.66 423.419Z" fill="#976EFF"/>
<path opacity="0.3" d="M237.66 423.419C237.66 423.419 245.67 337.329 193 327.069C193 327.069 163.29 327.429 158.51 370.709C153.73 413.989 174.53 421.449 174.53 421.449L237.66 423.419Z" fill="black"/>
<path d="M191.559 447.379C191.559 447.379 209.509 447.379 217.009 447.209C225.979 446.999 235.059 443.379 241.859 432.119C254.159 411.769 254.159 378.769 241.859 358.419C235.709 348.239 223.859 343.159 215.799 343.159H191.789C179.489 363.509 179.249 427.039 191.549 447.389L191.559 447.379Z" fill="black"/>
<path d="M191.789 447.379C209.186 447.379 223.289 424.049 223.289 395.269C223.289 366.49 209.186 343.159 191.789 343.159C174.392 343.159 160.289 366.49 160.289 395.269C160.289 424.049 174.392 447.379 191.789 447.379Z" fill="#263238"/>
<path opacity="0.4" d="M191.789 427.219C202.453 427.219 211.099 412.915 211.099 395.269C211.099 377.624 202.453 363.319 191.789 363.319C181.124 363.319 172.479 377.624 172.479 395.269C172.479 412.915 181.124 427.219 191.789 427.219Z" fill="white"/>
<g opacity="0.3">
<path d="M190.25 369.079V385.459C190.25 386.869 190.94 388.009 191.79 388.009H191.8C192.65 388.009 193.34 386.869 193.34 385.459V369.079C193.34 367.669 192.65 366.529 191.8 366.529H191.79C190.94 366.529 190.25 367.669 190.25 369.079Z" fill="white"/>
</g>
<g opacity="0.3">
<path d="M190.25 405.079V421.459C190.25 422.869 190.94 424.009 191.79 424.009H191.8C192.65 424.009 193.34 422.869 193.34 421.459V405.079C193.34 403.669 192.65 402.529 191.8 402.529H191.79C190.94 402.529 190.25 403.669 190.25 405.079Z" fill="white"/>
</g>
<g opacity="0.3">
<path d="M185.899 392.589C186.639 393.279 187.569 392.849 187.989 391.629C188.419 390.409 188.169 388.849 187.429 388.139L178.849 379.909C178.109 379.209 177.169 379.629 176.739 380.849C176.319 382.069 176.569 383.629 177.309 384.329L185.879 392.559C185.879 392.559 185.889 392.569 185.899 392.579V392.589Z" fill="white"/>
</g>
<g opacity="0.3">
<path d="M206.849 409.569C207.269 408.349 207.019 406.789 206.279 406.089L197.709 397.859C196.969 397.149 196.019 397.559 195.589 398.779C195.159 400.009 195.419 401.579 196.159 402.289L204.729 410.519C205.469 411.229 206.419 410.809 206.849 409.579V409.569Z" fill="white"/>
</g>
<g opacity="0.3">
<path d="M176.749 409.639C177.179 410.859 178.119 411.279 178.859 410.569L187.439 402.339C188.179 401.619 188.429 400.059 187.999 398.829C187.569 397.609 186.629 397.199 185.889 397.909L177.319 406.139C176.579 406.849 176.329 408.409 176.759 409.629L176.749 409.639Z" fill="white"/>
</g>
<g opacity="0.3">
<path d="M195.599 391.649C196.029 392.869 196.979 393.269 197.709 392.559L206.279 384.329C207.019 383.619 207.269 382.059 206.839 380.839C206.409 379.609 205.459 379.189 204.719 379.899L196.149 388.129C195.409 388.839 195.159 390.399 195.589 391.619C195.589 391.619 195.589 391.639 195.589 391.649H195.599Z" fill="white"/>
</g>
<path d="M191.789 390.969C190.359 390.969 189.189 392.889 189.189 395.269C189.189 397.649 190.349 399.569 191.789 399.569C193.229 399.569 194.389 397.649 194.389 395.269C194.389 392.889 193.229 390.969 191.789 390.969Z" fill="#263238"/>
<path d="M426.68 449.74C426.68 449.74 446.02 449.74 454.09 449.57C463.75 449.36 473.53 445.74 480.86 434.48C494.11 414.13 494.11 381.13 480.86 360.78C474.23 350.6 461.48 345.52 452.79 345.52H426.93C413.68 365.87 413.42 429.4 426.68 449.75V449.74Z" fill="black"/>
<path d="M426.93 449.73C445.669 449.73 460.86 426.399 460.86 397.62C460.86 368.84 445.669 345.51 426.93 345.51C408.191 345.51 393 368.84 393 397.62C393 426.399 408.191 449.73 426.93 449.73Z" fill="#263238"/>
<path opacity="0.4" d="M426.931 429.57C438.418 429.57 447.731 415.265 447.731 397.62C447.731 379.974 438.418 365.67 426.931 365.67C415.443 365.67 406.131 379.974 406.131 397.62C406.131 415.265 415.443 429.57 426.931 429.57Z" fill="white"/>
<g opacity="0.3">
<path d="M425.27 371.43V387.81C425.27 389.22 426.01 390.36 426.93 390.36H426.94C427.86 390.36 428.6 389.22 428.6 387.81V371.43C428.6 370.02 427.86 368.88 426.94 368.88H426.93C426.01 368.88 425.27 370.02 425.27 371.43Z" fill="white"/>
</g>
<g opacity="0.3">
<path d="M425.27 407.43V423.81C425.27 425.22 426.01 426.36 426.93 426.36H426.94C427.86 426.36 428.6 425.22 428.6 423.81V407.43C428.6 406.02 427.86 404.88 426.94 404.88H426.93C426.01 404.88 425.27 406.02 425.27 407.43Z" fill="white"/>
</g>
<g opacity="0.3">
<path d="M420.59 394.94C421.38 395.63 422.39 395.2 422.84 393.98C423.3 392.76 423.03 391.199 422.24 390.489L413 382.26C412.2 381.56 411.19 381.98 410.73 383.2C410.27 384.42 410.55 385.979 411.34 386.679L420.57 394.91C420.57 394.91 420.59 394.919 420.59 394.929V394.94Z" fill="white"/>
</g>
<g opacity="0.3">
<path d="M443.151 411.919C443.611 410.699 443.331 409.139 442.541 408.439L433.311 400.209C432.511 399.499 431.491 399.909 431.031 401.129C430.571 402.359 430.841 403.929 431.641 404.639L440.871 412.869C441.671 413.579 442.691 413.159 443.151 411.929V411.919Z" fill="white"/>
</g>
<g opacity="0.3">
<path d="M410.73 412C411.19 413.22 412.21 413.64 413 412.93L422.24 404.7C423.03 403.98 423.3 402.42 422.84 401.19C422.38 399.97 421.36 399.56 420.57 400.27L411.34 408.5C410.55 409.21 410.27 410.77 410.73 411.99V412Z" fill="white"/>
</g>
<g opacity="0.3">
<path d="M431.031 394.009C431.491 395.229 432.511 395.629 433.301 394.919L442.531 386.689C443.321 385.979 443.601 384.419 443.141 383.199C442.681 381.969 441.661 381.549 440.861 382.259L431.631 390.489C430.841 391.199 430.561 392.759 431.021 393.979C431.021 393.979 431.021 393.999 431.021 394.009H431.031Z" fill="white"/>
</g>
<path d="M426.931 393.319C425.391 393.319 424.131 395.239 424.131 397.619C424.131 399.999 425.381 401.919 426.931 401.919C428.481 401.919 429.731 399.999 429.731 397.619C429.731 395.239 428.481 393.319 426.931 393.319Z" fill="#263238"/>
<path d="M638.981 449.74C638.981 449.74 658.321 449.74 666.391 449.57C676.051 449.36 685.831 445.74 693.161 434.48C706.411 414.13 706.411 381.13 693.161 360.78C686.531 350.6 673.781 345.52 665.091 345.52H639.231C625.981 365.87 625.721 429.4 638.981 449.75V449.74Z" fill="black"/>
<path d="M639.241 449.73C657.98 449.73 673.171 426.399 673.171 397.62C673.171 368.84 657.98 345.51 639.241 345.51C620.502 345.51 605.311 368.84 605.311 397.62C605.311 426.399 620.502 449.73 639.241 449.73Z" fill="#263238"/>
<path opacity="0.3" d="M639.241 449.73C657.98 449.73 673.171 426.399 673.171 397.62C673.171 368.84 657.98 345.51 639.241 345.51C620.502 345.51 605.311 368.84 605.311 397.62C605.311 426.399 620.502 449.73 639.241 449.73Z" fill="black"/>
<path opacity="0.4" d="M639.241 429.57C650.729 429.57 660.041 415.265 660.041 397.62C660.041 379.974 650.729 365.67 639.241 365.67C627.754 365.67 618.441 379.974 618.441 397.62C618.441 415.265 627.754 429.57 639.241 429.57Z" fill="white"/>
<g opacity="0.3">
<path d="M637.58 371.43V387.81C637.58 389.22 638.32 390.36 639.24 390.36H639.25C640.17 390.36 640.91 389.22 640.91 387.81V371.43C640.91 370.02 640.17 368.88 639.25 368.88H639.24C638.32 368.88 637.58 370.02 637.58 371.43Z" fill="white"/>
</g>
<g opacity="0.3">
<path d="M637.58 407.43V423.81C637.58 425.22 638.32 426.36 639.24 426.36H639.25C640.17 426.36 640.91 425.22 640.91 423.81V407.43C640.91 406.02 640.17 404.88 639.25 404.88H639.24C638.32 404.88 637.58 406.02 637.58 407.43Z" fill="white"/>
</g>
<g opacity="0.3">
<path d="M632.9 394.94C633.69 395.63 634.7 395.2 635.15 393.98C635.61 392.76 635.34 391.199 634.55 390.489L625.31 382.26C624.51 381.56 623.5 381.98 623.04 383.2C622.58 384.43 622.86 385.99 623.65 386.69L632.88 394.92C632.88 394.92 632.9 394.93 632.9 394.94Z" fill="white"/>
</g>
<g opacity="0.3">
<path d="M655.45 411.919C655.91 410.699 655.63 409.139 654.84 408.439L645.61 400.209C644.81 399.499 643.79 399.909 643.33 401.129C642.87 402.359 643.14 403.929 643.94 404.639L653.17 412.869C653.97 413.579 654.99 413.159 655.45 411.929V411.919Z" fill="white"/>
</g>
<g opacity="0.3">
<path d="M623.04 412C623.5 413.22 624.52 413.64 625.31 412.93L634.55 404.7C635.34 403.98 635.61 402.42 635.15 401.19C634.69 399.97 633.67 399.56 632.88 400.27L623.65 408.5C622.86 409.21 622.58 410.77 623.04 411.99V412Z" fill="white"/>
</g>
<g opacity="0.3">
<path d="M643.341 394.009C643.801 395.229 644.821 395.629 645.611 394.919L654.841 386.689C655.631 385.979 655.911 384.419 655.451 383.199C654.991 381.969 653.971 381.549 653.171 382.259L643.941 390.489C643.151 391.199 642.871 392.759 643.331 393.979C643.331 393.979 643.331 393.999 643.331 394.009H643.341Z" fill="white"/>
</g>
<path d="M639.241 393.319C637.701 393.319 636.441 395.239 636.441 397.619C636.441 399.999 637.691 401.919 639.241 401.919C640.791 401.919 642.041 399.999 642.041 397.619C642.041 395.239 640.791 393.319 639.241 393.319Z" fill="#263238"/>
<path d="M153.6 329.94C156.51 314.41 161.36 289.18 163.79 286.27C166.22 283.36 178.83 282.39 178.83 282.39C191.93 267.83 233.66 243.09 255.01 232.41C276.36 221.74 292.86 219.31 373.89 214.46C454.92 209.61 502.96 221.25 502.96 221.25C544.2 225.62 612.62 284.33 612.62 284.33C651.35 291.58 677.64 311.5 677.64 311.5C677.64 311.5 698.5 314.41 707.72 324.6C716.94 334.79 717.91 346.44 717.91 346.44C717.91 346.44 723.25 346.44 726.16 350.81C729.07 355.18 727.62 385.26 726.16 400.3C724.7 415.34 713.06 422.14 713.06 422.14L477.48 420.7H477.42C472.43 420.67 468.45 416.58 468.49 411.59C468.66 390.51 464.92 339.92 425.04 339.92C425.04 339.92 397.48 340.24 393.04 377.94C389.24 410.27 390.79 418.55 391.31 420.25L227.83 422.14L226.86 421.93C227.42 411.68 231.65 363.24 207.04 345.56C199.67 340.27 186.95 339.65 179.28 344.5C171.52 349.4 162.52 359.46 160.46 380.01C159.47 387.88 159.46 394.98 159.76 404.69L153.59 401.28C152.62 395.46 150.68 345.48 153.59 329.95L153.6 329.94Z" fill="#976EFF" stroke="black" stroke-miterlimit="10"/>
<path d="M695.299 341.39C696.499 342.99 708.209 359.46 708.209 359.46C711.229 361.07 698.499 370.38 698.499 368.88H598.289L571.189 359.62C572.109 357.36 582.599 342.59 591.429 341.39C600.249 340.19 695.289 341.39 695.289 341.39H695.299Z" fill="#263238"/>
<g opacity="0.2">
<path d="M291.369 283.35C288.719 285.17 286.359 287.59 284.499 290.19C282.909 292.42 281.659 294.96 281.209 297.68C280.979 299.07 280.979 300.49 280.979 301.89C280.959 310.47 281.429 319.06 281.809 327.63C282.229 337.14 282.719 346.64 283.159 356.15C283.569 365.17 283.849 374.19 284.369 383.2C284.869 391.81 285.389 400.42 286.059 409.02C286.069 409.17 286.079 409.32 286.089 409.47C286.129 409.95 286.879 409.95 286.839 409.47C286.319 402.36 285.849 395.25 285.409 388.14C284.819 378.54 284.449 368.95 284.049 359.35C283.679 350.53 283.209 341.71 282.799 332.88C282.369 323.68 281.919 314.47 281.759 305.25C281.699 301.89 281.479 298.39 282.649 295.18C284.209 290.9 287.499 287.24 291.069 284.49C291.299 284.32 291.519 284.15 291.759 283.99C292.159 283.72 291.779 283.07 291.379 283.34L291.369 283.35Z" fill="black"/>
</g>
<g opacity="0.2">
<path d="M398.879 286.759C394.969 288.039 391.309 290.779 388.569 293.789C384.819 297.889 382.499 303.139 381.979 308.659C381.079 318.319 381.339 328.159 381.369 337.849C381.409 351.289 381.619 364.739 381.839 378.179C382.009 388.319 382.249 398.469 382.279 408.609C382.279 409.779 382.279 410.949 382.249 412.119C382.249 412.399 382.149 412.789 382.199 413.059C382.219 413.149 382.149 413.179 382.179 413.209C382.149 413.189 382.459 412.969 382.499 413.009C382.389 412.889 381.619 412.969 381.469 412.969C380.619 412.939 379.759 412.899 378.909 412.869C371.449 412.569 363.989 412.259 356.529 411.959C344.889 411.489 333.239 411.009 321.599 410.539C308.859 410.019 296.119 409.499 283.379 408.989C272.629 408.549 261.879 408.119 251.139 407.679C245.469 407.449 239.809 407.219 234.139 406.989C233.879 406.979 233.619 406.969 233.359 406.959L233.739 407.339C233.229 402.909 232.719 398.479 232.209 394.059C231.909 391.489 231.619 388.919 231.319 386.349C230.999 383.569 230.299 380.879 229.589 378.179C226.009 364.589 220.089 351.159 209.689 341.399C207.269 339.129 204.549 337.249 202.109 335.009C201.449 334.399 200.819 333.769 200.519 332.899C199.929 331.189 199.769 329.259 199.539 327.479C197.889 314.909 197.109 302.099 196.769 289.429C196.729 287.849 196.559 286.149 196.769 284.589C197.079 282.389 199.449 280.429 200.959 279.009C205.599 274.639 210.859 271.019 215.889 267.139C216.419 266.729 216.989 266.329 217.459 265.839C217.789 265.489 217.259 264.959 216.929 265.309C215.509 266.799 213.599 267.939 211.959 269.169C209.279 271.179 206.599 273.199 204.019 275.339C201.669 277.279 199.259 279.309 197.399 281.739C196.349 283.109 195.989 284.289 195.969 285.969C195.909 291.289 196.279 296.639 196.599 301.949C197.019 308.879 197.519 315.809 198.239 322.709C198.499 325.239 198.779 327.779 199.199 330.299C199.399 331.499 199.539 332.889 200.179 333.959C201.469 336.099 204.089 337.579 205.969 339.129C215.829 347.259 222.269 358.189 226.409 370.199C228.029 374.889 229.619 379.849 230.399 384.759C230.649 386.359 230.769 387.989 230.959 389.589C231.599 395.109 232.229 400.639 232.869 406.159C232.919 406.549 232.959 406.949 233.009 407.339C233.029 407.549 233.159 407.709 233.389 407.719C237.339 407.879 241.289 408.039 245.239 408.199C255.069 408.599 264.889 408.999 274.719 409.399C287.259 409.909 299.799 410.419 312.349 410.929C324.579 411.429 336.809 411.919 349.039 412.419C357.779 412.779 366.519 413.129 375.259 413.489C377.359 413.579 379.469 413.659 381.569 413.749C382.619 413.789 382.979 413.819 383.039 412.639C383.179 409.929 383.079 407.189 383.059 404.479C383.009 399.509 382.919 394.529 382.839 389.559C382.619 376.389 382.389 363.209 382.259 350.039C382.149 338.439 382.009 326.819 382.419 315.229C382.529 312.249 382.529 309.139 383.129 306.209C384.599 298.949 389.369 292.739 395.769 289.109C396.839 288.499 397.969 287.919 399.139 287.529C399.599 287.379 399.399 286.659 398.939 286.809L398.879 286.759Z" fill="black"/>
</g>
<path d="M598.3 282.929H419.89C419.89 282.929 374.49 240.319 361.35 226.779C377.8 224.319 474.6 222.529 504.32 226.779C504.32 226.779 555.3 235.939 598.31 282.929H598.3Z" fill="#263238"/>
<path d="M399.509 282.93C399.509 282.93 352.199 234.92 342.459 230.74C332.719 226.57 300.019 229 286.799 230.74C273.579 232.48 225.549 253.37 217.199 265.55C217.199 265.55 224.879 276.66 238.439 280.14C252.009 283.62 248.529 281.19 277.059 282.92C305.589 284.66 399.519 287.44 399.519 287.44V282.92L399.509 282.93Z" fill="#263238"/>
<g opacity="0.2">
<path d="M677.46 311.39C679.47 312.94 681.89 315.23 683.81 317.23C687.77 321.37 691.41 326.09 693.5 331.46C694.73 334.62 695.34 337.99 694.93 341.38C694.87 341.86 695.62 341.85 695.68 341.38C696.42 335.31 693.93 329.41 690.63 324.45C687.76 320.13 684.2 316.27 680.33 312.83C679.52 312.11 678.7 311.4 677.84 310.74C677.46 310.45 677.08 311.1 677.46 311.39Z" fill="black"/>
</g>
<path opacity="0.7" d="M717.92 346C716.78 347.59 715.87 356.48 707.53 356.55L698.51 345.4C698.51 345.4 702.59 328.12 700.04 318.31C700.04 318.31 708.16 323.4 711.13 328.48C714.1 333.56 717.93 346 717.93 346H717.92Z" fill="white"/>
<path opacity="0.3" d="M488.08 315.569C488.08 315.569 474.03 301.509 421.95 290.799L399.5 287.449C395.56 287.719 391.52 290.679 387.42 295.279C370.61 298.559 261.84 289.649 261.84 289.649C261.84 289.649 373.26 298.349 406.76 300.549C440.26 302.749 439.4 302.899 488.08 315.569Z" fill="black"/>
<path d="M161.91 291.019C162.25 290.829 173.9 292.569 181.73 294.589C181.73 294.589 166.33 311.839 161.21 312.669L157.1 311.889C157.1 311.889 157.81 293.259 161.91 291.019Z" fill="#D7504D"/>
<g opacity="0.2">
<path d="M494.179 322.81C494.769 321.53 494.299 319.97 493.529 318.89C491.649 316.22 488.129 315.03 485.139 314.14C479.589 312.48 473.919 311.17 468.299 309.77C460.879 307.91 453.459 306.06 446.089 304.02C440.209 302.4 434.139 300.84 428.559 298.34C427.719 297.96 426.849 297.56 426.099 297.02C425.099 296.3 424.669 295.11 424.169 294.02C422.509 290.45 421.259 286.63 420.249 282.83C420.129 282.36 419.399 282.56 419.529 283.03C420.349 286.11 421.359 289.15 422.539 292.11C423.409 294.28 424.149 296.74 426.239 298C427.979 299.05 429.959 299.76 431.869 300.45C434.739 301.48 437.659 302.38 440.579 303.24C454.099 307.21 467.859 310.26 481.459 313.9C484.519 314.72 487.729 315.49 490.449 317.16C492.069 318.16 494.459 320.46 493.539 322.45C493.339 322.89 493.979 323.27 494.189 322.83L494.179 322.81Z" fill="black"/>
</g>
<path opacity="0.3" d="M377.24 402.83C377.24 402.83 241.36 400.92 239.63 398.32C237.89 395.71 249.58 387.83 249.58 387.83C251.32 386.63 376.38 395.24 377.25 402.83H377.24Z" fill="white"/>
<path d="M652.559 347.8C659.706 347.8 665.499 345.328 665.499 342.28C665.499 339.231 659.706 336.76 652.559 336.76C645.413 336.76 639.619 339.231 639.619 342.28C639.619 345.328 645.413 347.8 652.559 347.8Z" fill="#E0E0E0"/>
<path d="M702.549 397.11C702.549 397.11 713.099 402.05 712.689 402.07C712.279 402.09 710.219 412.81 710.219 412.81L548.199 410.57L532.939 397.63L581.589 396.96L702.559 397.11H702.549Z" fill="#263238"/>
<path d="M492.119 397.619C492.619 398.449 507.379 397.619 507.379 397.619L522.329 410.239L500.359 409.729L492.119 397.629V397.619Z" fill="#263238"/>
<g opacity="0.2">
<path d="M591.28 341.909C586.13 341.369 580.97 340.819 575.82 340.279C575.08 340.199 574.34 340.119 573.59 340.049C573.11 339.999 573.11 340.749 573.59 340.799C578.74 341.339 583.9 341.889 589.05 342.429C589.79 342.509 590.53 342.589 591.28 342.659C591.76 342.709 591.76 341.959 591.28 341.909Z" fill="black"/>
</g>
<path opacity="0.7" d="M573.589 339.489C573.589 339.489 486.549 319.929 479.829 320.609C473.109 321.279 454.499 326.729 455.849 331.779C457.199 336.839 471.419 344.549 490.309 347.579C505.349 349.999 529.759 352.979 545.949 353.989C565.699 355.219 573.599 339.489 573.599 339.489H573.589Z" fill="white"/>
<path opacity="0.3" d="M569.69 376.089C569.69 376.089 536.54 359.919 523.74 359.919C510.94 359.919 453.83 343.159 453.83 343.159C453.83 343.159 496.56 370.219 506.01 372.459C515.46 374.709 569.69 376.089 569.69 376.089Z" fill="black"/>
<path opacity="0.3" d="M588.2 279.16C588.2 279.16 540.01 235.42 499.8 231.34C459.58 227.26 434.49 228.44 434.49 228.44C434.49 228.44 446.44 259.07 468.51 265.13C490.58 271.19 588.21 279.16 588.21 279.16H588.2Z" fill="white"/>
<path opacity="0.3" d="M724.509 354.06C724.509 354.06 725.649 362.7 723.559 366.69C721.469 370.69 702.049 375.99 702.049 375.99L724.509 354.06Z" fill="black"/>
<path opacity="0.7" d="M488.811 336.91C488.811 342.29 494.661 346.65 501.871 346.65C509.081 346.65 514.931 342.29 514.931 336.91C514.931 331.53 509.081 327.17 501.871 327.17C494.661 327.17 488.811 331.53 488.811 336.91Z" fill="white"/>
<path opacity="0.7" d="M498.58 326.409L479.83 324.559C479.83 324.559 474.24 336.259 485.35 343.109C485.35 343.109 471.65 339.069 475.83 324.559C476.1 323.279 476.68 321.959 479.83 322.619C480.85 322.829 498.58 326.409 498.58 326.409Z" fill="white"/>
<path opacity="0.3" d="M601.55 285.37C601.55 285.37 673.7 297.18 686.55 332.78C686.55 332.78 501.08 286.65 501.88 285.37C502.68 284.09 601.55 285.37 601.55 285.37Z" fill="white"/>
<g opacity="0.2">
<path d="M399.769 282.659C392.929 275.719 385.989 268.869 378.999 262.089C373.289 256.549 367.529 251.059 361.649 245.689C356.969 241.409 352.239 237.109 347.159 233.309C345.729 232.239 344.239 231.119 342.589 230.399C339.619 229.109 336.199 228.769 333.019 228.479C323.489 227.629 313.809 228.069 304.279 228.709C299.879 228.999 295.479 229.379 291.089 229.849C288.339 230.149 285.609 230.459 282.919 231.139C275.729 232.949 268.739 235.729 261.909 238.589C253.449 242.129 245.119 246.039 237.079 250.469C230.809 253.929 224.209 257.659 219.089 262.739C218.269 263.549 217.509 264.409 216.849 265.359C216.779 265.459 216.779 265.639 216.849 265.739C220.049 270.359 224.779 274.239 229.639 276.979C235.099 280.069 241.649 281.799 247.899 282.379C252.979 282.849 258.149 282.539 263.249 282.679C270.719 282.879 278.179 283.409 285.649 283.769C300.019 284.469 314.389 284.999 328.769 285.519C344.039 286.069 359.299 286.569 374.569 287.059C380.069 287.229 385.569 287.409 391.079 287.579C393.759 287.659 396.479 287.879 399.159 287.819C399.279 287.819 399.389 287.819 399.509 287.829C399.709 287.829 399.879 287.649 399.879 287.449V282.929C399.879 282.449 399.129 282.449 399.129 282.929V287.449L399.499 287.069C392.349 286.859 385.189 286.639 378.039 286.409C362.499 285.919 346.949 285.409 331.409 284.849C316.389 284.319 301.379 283.769 286.369 283.039C278.769 282.669 271.169 282.129 263.559 281.919C258.279 281.779 252.909 282.119 247.639 281.589C240.559 280.879 233.349 278.689 227.439 274.719C224.369 272.659 221.559 270.169 219.139 267.379C218.609 266.769 217.999 266.139 217.579 265.449C217.559 265.419 217.509 265.379 217.509 265.349C217.599 265.839 217.799 265.319 217.969 265.099C218.329 264.629 218.729 264.189 219.139 263.759C223.759 258.899 229.909 255.369 235.689 252.099C243.279 247.809 251.169 244.019 259.169 240.549C266.069 237.569 273.099 234.749 280.319 232.619C286.289 230.859 292.449 230.379 298.619 229.869C307.919 229.089 317.289 228.589 326.619 228.859C330.449 228.969 334.319 229.179 338.089 229.889C340.219 230.289 342.229 230.879 344.059 232.039C348.459 234.819 352.399 238.429 356.289 241.859C361.809 246.739 367.189 251.789 372.519 256.879C381.079 265.049 389.509 273.359 397.839 281.759C398.309 282.229 398.769 282.699 399.239 283.169C399.579 283.509 400.109 282.979 399.769 282.639V282.659Z" fill="black"/>
</g>
<path opacity="0.3" d="M311.761 308.974L292.89 307.483C291.695 307.388 290.65 308.28 290.556 309.475L290.195 314.031C290.101 315.225 290.993 316.27 292.188 316.365L311.059 317.857C312.254 317.951 313.299 317.059 313.393 315.864L313.753 311.309C313.848 310.114 312.956 309.069 311.761 308.974Z" fill="black"/>
<path opacity="0.3" d="M228.452 300.067L209.581 298.575C208.386 298.481 207.341 299.373 207.247 300.568L206.887 305.123C206.792 306.318 207.684 307.363 208.879 307.458L227.75 308.949C228.945 309.044 229.99 308.152 230.084 306.957L230.445 302.401C230.539 301.207 229.647 300.162 228.452 300.067Z" fill="black"/>
<path d="M297.659 229.59C296.769 229.66 286.449 283.67 286.449 283.67H301.409L308.349 228.84C308.349 228.84 298.539 229.52 297.659 229.59Z" fill="black"/>
<path d="M383.639 267.14L375.609 286.31L399.509 287.45V282.52L383.639 267.14Z" fill="black"/>
<path d="M231.9 239.72C247.59 230.18 263.96 222.55 284.37 217.96" stroke="black" stroke-linecap="round" stroke-linejoin="round"/>
<path d="M289.871 215.83L298.681 214.56" stroke="black" stroke-linecap="round" stroke-linejoin="round"/>
<path d="M359.11 270.99C359.2 270.87 359.29 270.74 359.39 270.61C361.66 267.48 371.76 263.5 381.42 266.77C388.47 269.16 387.2 277.44 386 281.75C385.42 283.82 383.69 285.35 381.57 285.66C375.79 286.51 365.1 285.67 362.38 284.26C362.23 284.18 362.09 284.11 361.95 284.03C357.28 281.42 355.95 275.31 359.12 271L359.11 270.99Z" fill="#976EFF"/>
<path opacity="0.3" d="M382.619 269.339C382.619 269.339 380.249 267.509 376.049 267.289C371.849 267.069 360.859 267.919 359.349 274.109C357.849 280.309 387.869 271.249 382.619 269.339Z" fill="white"/>
<path d="M97.0215 178.26C101.641 174.42 100.221 162.64 99.0215 156.61L113.181 167.48C112.901 168.19 112.661 168.91 112.481 169.65C112.101 170.97 112.071 172.37 112.391 173.71C112.701 174.81 114.331 179.21 114.331 179.21C114.331 179.21 118.891 192.11 110.361 192.27C101.941 192.05 97.0215 178.25 97.0215 178.25V178.26Z" fill="#B97964"/>
<path opacity="0.2" d="M101.801 162.66C101.421 169.8 108.731 172.82 112.391 173.73C112.071 172.39 112.101 170.99 112.481 169.67L101.791 162.66H101.801Z" fill="black"/>
<path d="M114.451 135.601C121.521 134.861 117.341 140.091 124.871 141.861C124.601 146.521 118.811 151.211 117.091 148.171C115.201 144.831 108.581 136.151 114.461 135.601H114.451Z" fill="#263238"/>
<path d="M96.3911 151.45C98.5511 159.73 99.6011 164.45 104.801 167.88C112.621 173.05 122.311 167.33 122.741 158.55C123.131 150.64 119.531 138.43 110.431 136.77C101.461 135.14 94.2311 143.17 96.3911 151.45Z" fill="#B97964"/>
<path d="M109.56 151.151C109.74 152.081 110.4 152.731 111.02 152.611C111.65 152.491 112.01 151.631 111.83 150.701C111.65 149.771 110.99 149.121 110.37 149.241C109.74 149.361 109.38 150.221 109.56 151.151Z" fill="#263238"/>
<path d="M118.162 150.321C118.342 151.251 119.002 151.901 119.622 151.781C120.252 151.661 120.612 150.801 120.432 149.871C120.252 148.941 119.592 148.291 118.972 148.411C118.342 148.531 117.982 149.391 118.162 150.321Z" fill="#263238"/>
<path d="M115 150.12C115 150.12 118.63 153.85 119.86 155.42C118.84 156.73 116.63 156.64 116.63 156.64L115 150.13V150.12Z" fill="#A24E3F"/>
<path d="M106.27 147.901C106.41 147.931 106.57 147.881 106.67 147.761C107.91 146.381 109.45 146.561 109.47 146.561C109.7 146.591 109.91 146.431 109.95 146.211C109.98 145.991 109.82 145.781 109.59 145.751C109.51 145.741 107.58 145.511 106.04 147.231C105.89 147.401 105.9 147.661 106.08 147.811C106.14 147.861 106.2 147.891 106.27 147.901Z" fill="#263238"/>
<path d="M121.031 145.71C121.101 145.68 121.171 145.63 121.221 145.56C121.351 145.37 121.301 145.12 121.111 144.99C119.181 143.74 117.411 144.5 117.321 144.52C117.111 144.61 117.011 144.85 117.101 145.06C117.191 145.27 117.431 145.36 117.651 145.27C117.721 145.24 119.101 144.67 120.651 145.67C120.771 145.75 120.921 145.76 121.041 145.7L121.031 145.71Z" fill="#263238"/>
<path d="M116.521 159.58C115.881 160.55 115.311 161.56 114.821 162.62C114.621 162.56 114.421 162.5 114.231 162.43C111.561 161.54 110.581 160.24 110.321 159.06C110.201 158.48 110.221 157.89 110.361 157.33C110.441 157.01 110.551 156.71 110.711 156.42C111.871 157.75 114.301 158.77 115.621 159.26C116.201 159.45 116.521 159.58 116.521 159.58Z" fill="#263238"/>
<path d="M115.621 159.26L115.091 160.14C112.581 159.29 110.921 158.37 110.361 157.32C110.441 157 110.551 156.7 110.711 156.41C111.881 157.75 114.301 158.76 115.621 159.25V159.26Z" fill="white"/>
<path d="M114.23 162.49C111.56 161.6 110.58 160.3 110.32 159.12C111.33 159.48 112.27 160.01 113.11 160.7C113.66 161.17 114.05 161.79 114.23 162.49Z" fill="#D7504D"/>
<path d="M123.371 130.01C117.811 128.9 115.851 129.32 111.031 130.7C111.031 130.7 112.431 128.44 112.241 125.61C100.601 133.75 96.3807 128.95 90.6507 133.71C86.9907 136.75 89.8107 141.33 89.8107 141.33C89.8107 141.33 80.6107 146.06 92.6507 157.08C92.9507 158.19 92.9607 159.23 92.4707 159.86C91.5607 161.02 90.0707 161.52 88.6607 161.95C90.8007 162.8 93.2407 162.89 95.4407 162.19C94.9107 163.52 94.0507 164.71 92.9507 165.62C95.8607 166.11 98.9807 164.99 100.921 162.77L99.3607 156.68C99.8707 156.68 100.401 156.73 100.971 156.88C101.561 154.94 101.881 152.92 101.911 150.89C101.781 149.29 101.441 147.71 100.891 146.2C100.891 146.2 105.981 143.85 106.441 140.44C106.441 140.44 114.771 143.84 119.751 140.44C124.731 137.04 120.851 131.48 123.371 130.01Z" fill="#263238"/>
<path d="M94.3501 159.091C95.4601 161.121 97.4401 162.441 99.3101 162.941C102.13 163.691 102.56 160.781 101.8 158.181C101.12 155.841 99.8401 153.081 97.0001 153.471C94.2001 153.851 93.0901 156.761 94.3601 159.081L94.3501 159.091Z" fill="#B97964"/>
<path opacity="0.2" d="M95.8711 156.4C96.1211 155.83 96.7911 155.52 97.4311 155.54C98.0611 155.57 98.6411 155.89 99.1111 156.31C99.6711 156.81 100.081 157.45 100.311 158.16" stroke="black" stroke-width="0.5" stroke-linecap="round" stroke-linejoin="round"/>
<path d="M48.1602 438.23L58.0902 440.13L67.2002 419.26L54.2302 414.65L48.1602 438.23Z" fill="#263238"/>
<path d="M59.3797 438.47L56.2497 437.45C55.5397 437.22 54.7697 437.36 54.1697 437.8C51.5697 439.68 50.5197 438.3 49.3097 435.35C48.1097 434.8 47.3097 436.12 47.0797 436.47L41.9797 444.21C41.5497 444.85 41.7197 445.73 42.3597 446.16C42.4697 446.24 42.5997 446.3 42.7297 446.34C46.5297 447.57 48.3197 448.16 53.0397 449.69L67.4897 454.39C71.4297 455.67 73.5297 451.97 72.0297 451.07C65.2597 447.09 60.7897 443.26 59.2297 440.4C58.9297 439.89 59.4497 439.75 59.3697 438.46L59.3797 438.47Z" fill="#263238"/>
<path d="M65.3695 443.09C65.7795 442.96 66.0995 442.65 66.2295 442.24C66.3295 442.03 66.2995 441.79 66.1495 441.61C65.3995 440.6 60.8895 441.15 60.3895 441.22C60.3395 441.22 60.2795 441.25 60.2495 441.29C60.1895 441.37 60.1995 441.48 60.2795 441.55C61.1695 442.09 62.1095 442.54 63.0895 442.88C63.8095 443.19 64.6095 443.27 65.3695 443.09ZM65.8195 441.82C65.8795 441.9 65.8895 442 65.8495 442.09C65.7395 442.38 65.5095 442.6 65.2195 442.71C64.1195 443.08 62.0695 442.1 60.9795 441.51C62.8295 441.32 65.3995 441.27 65.8195 441.82Z" fill="#976EFF"/>
<path d="M60.4094 441.631C61.7394 441.521 64.8294 440.391 65.0294 439.331C65.0794 439.111 65.0094 438.801 64.4994 438.561C62.4394 437.621 60.2694 441.171 60.2194 441.331C60.1794 441.391 60.1694 441.471 60.2194 441.531C60.2594 441.551 60.2994 441.571 60.3394 441.571L60.4194 441.631H60.4094ZM64.3194 438.851C64.6994 439.021 64.6594 439.161 64.6394 439.211C64.5494 439.871 62.2394 440.891 60.7494 441.151C61.3094 440.341 62.8194 438.351 64.1794 438.791L64.3194 438.851Z" fill="#976EFF"/>
<path d="M60.7588 441.58C59.6388 441.38 58.4288 441.7 57.5488 442.43Z" fill="#976EFF"/>
<path d="M60.7588 441.58C59.6388 441.38 58.4288 441.7 57.5488 442.43" stroke="#976EFF" stroke-width="0.5" stroke-linecap="round" stroke-linejoin="round"/>
<path d="M62.2295 443.681C61.1095 443.481 59.8995 443.801 59.0195 444.531Z" fill="#976EFF"/>
<path d="M62.2295 443.681C61.1095 443.481 59.8995 443.801 59.0195 444.531" stroke="#976EFF" stroke-width="0.5" stroke-linecap="round" stroke-linejoin="round"/>
<path d="M64.2491 445.69C63.1291 445.49 61.9191 445.81 61.0391 446.54Z" fill="#976EFF"/>
<path d="M64.2491 445.69C63.1291 445.49 61.9191 445.81 61.0391 446.54" stroke="#976EFF" stroke-width="0.5" stroke-linecap="round" stroke-linejoin="round"/>
<path d="M113.23 443.17L123.33 442.8L127.54 420.43L113.87 418.82L113.23 443.17Z" fill="#263238"/>
<path d="M124.21 440.89L120.94 440.6C120.2 440.53 119.48 440.85 118.99 441.41C116.87 443.82 115.54 442.72 113.7 440.11C112.41 439.84 111.92 441.31 111.78 441.7L108.54 450.38C108.26 451.1 108.62 451.92 109.35 452.2C109.48 452.25 109.61 452.28 109.75 452.29C113.73 452.64 115.61 452.81 120.55 453.25L135.68 454.6C139.8 454.97 141.03 450.89 139.36 450.35C131.87 447.98 126.66 445.25 124.5 442.82C124.1 442.39 124.57 442.14 124.2 440.89H124.21Z" fill="#263238"/>
<path d="M131.091 444.05C131.461 443.83 131.701 443.45 131.741 443.03C131.791 442.8 131.711 442.57 131.521 442.43C130.561 441.61 126.301 443.16 125.821 443.34C125.771 443.35 125.721 443.39 125.701 443.44C125.661 443.53 125.701 443.64 125.791 443.68C126.771 444.01 127.791 444.23 128.821 444.35C129.591 444.49 130.381 444.39 131.091 444.05ZM131.241 442.72C131.321 442.78 131.351 442.88 131.331 442.98C131.291 443.28 131.111 443.56 130.851 443.72C129.861 444.33 127.641 443.83 126.451 443.5C128.221 442.9 130.711 442.27 131.241 442.72Z" fill="#976EFF"/>
<path d="M125.921 443.75C127.191 443.35 129.951 441.56 129.911 440.47C129.911 440.24 129.771 439.96 129.221 439.84C127.001 439.38 125.681 443.33 125.661 443.5C125.631 443.57 125.651 443.64 125.701 443.7C125.741 443.72 125.791 443.72 125.831 443.71L125.921 443.75ZM129.111 440.17C129.521 440.25 129.511 440.4 129.501 440.45C129.561 441.11 127.541 442.62 126.141 443.21C126.501 442.29 127.531 440.02 128.951 440.14L129.101 440.16L129.111 440.17Z" fill="#976EFF"/>
<path d="M126.26 443.62C125.12 443.67 124.01 444.25 123.32 445.16Z" fill="#976EFF"/>
<path d="M126.26 443.62C125.12 443.67 124.01 444.25 123.32 445.16" stroke="#407BFF" stroke-width="0.5" stroke-linecap="round" stroke-linejoin="round"/>
<path d="M128.161 445.33C127.021 445.38 125.911 445.96 125.221 446.87Z" fill="#976EFF"/>
<path d="M128.161 445.33C127.021 445.38 125.911 445.96 125.221 446.87" stroke="#407BFF" stroke-width="0.5" stroke-linecap="round" stroke-linejoin="round"/>
<path d="M130.571 446.84C129.431 446.89 128.321 447.47 127.631 448.38Z" fill="#976EFF"/>
<path d="M130.571 446.84C129.431 446.89 128.321 447.47 127.631 448.38" stroke="#407BFF" stroke-width="0.5" stroke-linecap="round" stroke-linejoin="round"/>
<path d="M70.6599 342.92C75.5599 304.12 76.3499 263.2 82.1699 254.53L112.68 254.04C112.53 254.65 99.0599 329.27 94.4699 349.64C88.2899 376.51 62.2599 435.22 62.2599 435.22L48.1699 431.95C48.1699 431.95 61.5299 372.93 70.6699 342.92H70.6599Z" fill="black"/>
<path d="M129.939 254.68C132.619 252.64 141.369 358.06 128.719 435.77L111.669 435.07C111.669 435.07 112.149 367.79 110.429 337.39C108.709 306.99 98.4492 254.68 98.4492 254.68H129.949H129.939Z" fill="black"/>
<path opacity="0.2" d="M109.711 328.11C109.711 328.11 110.831 320.28 111.321 310.37C111.801 300.57 110.521 290.77 107.671 281.39L105.311 294.11L109.721 328.11H109.711Z" fill="black"/>
<path opacity="0.2" d="M131.81 263.23C131.81 263.23 126.34 272 108.35 269.81C90.36 267.62 79.5 261.98 79.5 261.98L80.83 256.92L131.08 258.98L131.81 263.22V263.23Z" fill="black"/>
<path d="M48.79 263.18C54.92 246.26 64.65 231.04 73.48 215.46C75.96 211.09 78.36 206.69 80.59 202.19C81.45 200.47 78.86 198.94 78 200.68C69.96 216.86 59.76 231.85 51.92 248.14C49.68 252.79 47.65 257.54 45.89 262.39C45.23 264.21 48.13 264.99 48.78 263.19L48.79 263.18Z" fill="#263238"/>
<path d="M151.569 225.259L165.919 201.149L159.359 198.739L137.459 222.959L151.569 225.259Z" fill="#B97964"/>
<path d="M167.329 196.97C167.109 199.19 166.109 201 165.899 201.17L162.869 205.94L155.639 203.88C155.639 203.88 159.459 199.76 159.479 199.16C159.529 197.17 158.779 188.51 158.929 185.65C159.029 183.74 158.689 180.28 159.619 179.81C160.549 179.34 161.429 180.18 161.429 180.18C161.429 180.18 162.249 179.11 163.129 179.94C164.009 180.77 165.289 183.94 165.689 185.52C166.309 187.94 167.149 191.32 167.319 193.4V196.97H167.329Z" fill="#B97964"/>
<path d="M159.769 199.54C158.649 198.09 157.509 196.63 156.659 195.01C155.809 193.39 155.229 191.58 155.289 189.75C155.309 189.3 155.369 188.83 155.619 188.45C155.869 188.08 156.369 187.83 156.789 187.99C157.189 188.14 157.399 188.58 157.559 188.97C158.289 190.75 158.379 191.31 159.319 192.91" fill="#B97964"/>
<path d="M159.319 193.28C160.819 193.34 162.299 194.09 163.209 195.29C163.329 195.45 163.529 195.54 163.719 195.42C163.879 195.33 163.979 195.07 163.849 194.91C162.769 193.49 161.099 192.6 159.309 192.53C158.829 192.51 158.829 193.26 159.309 193.28H159.319Z" fill="#A24E3F"/>
<path d="M161.099 180.349C161.349 183.179 162.069 185.939 162.079 188.799C162.079 189.279 162.829 189.279 162.829 188.799C162.819 185.939 162.099 183.179 161.849 180.349C161.809 179.869 161.059 179.869 161.099 180.349Z" fill="#A24E3F"/>
<path d="M164.01 181.21C164.05 181.29 164.83 180.68 165.68 181.94C166.54 183.2 168.53 193.27 168.13 195.76C167.72 198.25 166.5 199.68 166.38 199.53C166.26 199.39 164.02 181.21 164.02 181.21H164.01Z" fill="#B97964"/>
<path d="M163.709 181.45C163.869 182.98 164.059 184.51 164.259 186.03C164.399 187.07 164.469 188.18 164.769 189.19C164.899 189.65 165.629 189.46 165.489 188.99C165.209 188.01 165.129 186.93 164.999 185.92C164.799 184.43 164.629 182.94 164.469 181.45C164.419 180.98 163.669 180.97 163.719 181.45H163.709Z" fill="#A24E3F"/>
<path d="M161.688 189.17C163.198 189.17 164.738 189.38 166.228 189.62C166.428 189.65 166.628 189.57 166.688 189.36C166.738 189.18 166.628 188.93 166.428 188.9C164.868 188.65 163.268 188.43 161.688 188.42C161.208 188.42 161.208 189.17 161.688 189.17Z" fill="#A24E3F"/>
<path d="M126.309 182.59C126.309 182.59 132.879 210.4 131.019 266.97C117.159 271.68 98.9493 270.46 79.1093 267.01C78.7393 259.04 89.1193 225.4 81.4093 187.86C87.1493 186.75 93.3893 177.89 99.2193 177.53C99.2193 177.53 110.159 185.79 110.699 185.97L113.929 179.63C118.969 180.12 121.419 181.31 126.309 182.58V182.59Z" fill="#407BFF"/>
<path d="M126.309 182.59C126.309 182.59 132.879 210.4 131.019 266.97C118.529 271.56 99.6493 270.61 79.1093 267.01C78.7393 259.04 89.1193 225.4 81.4093 187.86C87.1493 186.75 93.3893 177.89 99.2193 177.53C99.2193 177.53 110.159 185.79 110.699 185.97L113.929 179.63C118.969 180.12 121.419 181.31 126.309 182.58V182.59Z" fill="white"/>
<path opacity="0.3" d="M97.5588 277.18C97.5588 277.18 99.9988 276.13 100.899 274.68C101.809 273.23 103.609 253.62 104.159 243.11C104.719 232.6 101.549 192.26 101.549 192.26L97.5488 277.18H97.5588Z" fill="black"/>
<path d="M80.1593 180.6L95.2593 177.53L99.6193 171.63C99.6193 171.63 101.379 178.7 101.419 179.19C102.689 195.24 102.069 246.58 101.349 252.66C100.479 260.07 96.8893 281.11 96.8893 281.11C85.3393 282.48 75.0193 274.18 68.0293 277.07C68.0293 277.07 80.4193 232.58 80.0693 226.46C79.7193 220.34 77.8093 204.14 77.8093 204.14L80.1393 180.6H80.1593Z" fill="#976EFF"/>
<path opacity="0.3" d="M73.5488 315.76C73.5488 315.76 84.3188 312.02 85.6888 308.78C87.0588 305.54 91.6688 272.46 90.8188 269.18C89.9688 265.9 81.8388 264.88 81.8388 264.88L75.1888 296.75L73.5488 315.76Z" fill="black"/>
<path d="M112.58 174.84L117.94 179.73L127.07 181.93C127.07 181.93 129.34 204.12 131.34 222.27C133.82 244.66 137.46 279.84 137.46 279.84C131.54 280.17 123.38 279.65 123.38 279.65C123.38 279.65 120.75 253.53 118.85 234.75C117.16 218.01 116.64 194.47 114.17 182.46C113.2 177.76 112.57 174.84 112.57 174.84H112.58Z" fill="#976EFF"/>
<path d="M157.26 199.61L144.2 212.69C144.2 212.69 144.2 211.74 143.49 211.22C142.78 210.7 142.07 211.98 142.07 211.98C142.07 211.98 136.16 191 134.03 186.9C131.9 182.81 126.92 181.91 126.92 181.91C126.92 181.91 130.53 224.91 130.88 225.27C131.24 225.62 132.33 237.01 139.9 235.59C147.47 234.17 165.2 207.75 165.2 207.75L157.25 199.62L157.26 199.61Z" fill="#976EFF"/>
<path d="M86.1489 179.64C86.1689 179.74 86.1789 179.84 86.1889 179.95C86.2089 180.07 86.2189 180.19 86.2389 180.31C86.2689 180.54 86.1789 179.89 86.2389 180.24C86.2489 180.34 86.2689 180.44 86.2789 180.54C86.4289 181.7 86.5589 182.87 86.6889 184.04C87.1389 188.24 87.4389 192.46 87.6389 196.69C88.2589 209.87 87.8689 223.16 85.9989 236.23C84.7689 244.76 82.8989 253.21 80.1489 261.38C79.5289 263.21 82.4289 264 83.0389 262.18C87.8689 247.82 90.0289 232.64 90.6889 217.54C91.1589 206.73 90.8689 195.86 89.7989 185.1C89.5889 183.02 89.3689 180.93 89.0489 178.87C88.7589 176.97 85.8689 177.78 86.1589 179.67L86.1489 179.64Z" fill="#263238"/>
<path d="M77.1498 308.649L33.1198 298.539C30.4098 297.919 28.7798 295.299 29.6098 292.899L40.5598 261.439C41.1698 259.699 42.9298 258.559 44.9398 258.589L83.7598 259.349C86.6198 259.409 88.8598 261.789 88.4898 264.379L82.7498 305.189C82.3998 307.669 79.8198 309.259 77.1498 308.649Z" fill="#263238"/>
<path opacity="0.3" d="M77.1498 308.649L33.1198 298.539C30.4098 297.919 28.7798 295.299 29.6098 292.899L40.5598 261.439C41.1698 259.699 42.9298 258.559 44.9398 258.589L83.7598 259.349C86.6198 259.409 88.8598 261.789 88.4898 264.379L82.7498 305.189C82.3998 307.669 79.8198 309.259 77.1498 308.649Z" fill="white"/>
<g opacity="0.2">
<path d="M132.73 230.06C132.23 223.29 131.7 216.52 131.11 209.75C130.81 206.34 130.51 202.93 130.22 199.51C130.17 198.91 130.1 198.55 130.3 198.01C130.47 197.55 130.65 197.08 130.82 196.62L131.7 194.27C131.87 193.82 131.15 193.62 130.98 194.07C130.69 194.85 130.39 195.64 130.1 196.42C129.8 197.22 129.36 198 129.41 198.86C129.63 202.39 130.03 205.92 130.33 209.45C130.93 216.32 131.47 223.19 131.98 230.06C132.02 230.54 132.77 230.54 132.73 230.06Z" fill="black"/>
</g>
<path opacity="0.2" d="M78.9006 213.7L81.5906 205.02C81.5906 205.02 83.8606 220.98 79.9006 223.96L78.8906 213.69L78.9006 213.7Z" fill="black"/>
<g opacity="0.2">
<path d="M82.4702 261.81C79.8802 275.99 77.5602 290.21 74.6402 304.32C74.5402 304.79 75.2702 304.99 75.3602 304.52C78.2802 290.41 80.6002 276.18 83.1902 262.01C83.2802 261.54 82.5502 261.34 82.4702 261.81Z" fill="black"/>
</g>
<g opacity="0.2">
<path d="M81.9307 262.59C80.6207 266.66 79.2207 270.69 77.7207 274.69C76.9507 276.73 76.1607 278.76 75.3507 280.77C74.9907 281.67 74.6007 282.56 74.2507 283.45C74.1007 283.82 74.0507 284.59 73.7307 284.69C73.2507 284.83 72.2007 284.45 71.7107 284.38C70.3107 284.16 68.9107 283.95 67.5007 283.73C59.4307 282.48 51.3507 281.23 43.2807 279.98C41.1207 279.65 38.9507 279.31 36.7907 278.98C36.3207 278.91 36.1107 279.63 36.5907 279.7C42.5107 280.62 48.4307 281.53 54.3607 282.45C58.5807 283.1 62.8007 283.76 67.0207 284.41C68.5007 284.64 69.9807 284.87 71.4507 285.1C72.1107 285.2 72.8607 285.43 73.5307 285.42C74.4407 285.4 74.5707 284.62 74.8807 283.88C75.8507 281.58 76.7807 279.26 77.6807 276.92C79.4807 272.26 81.1407 267.54 82.6707 262.78C82.8207 262.32 82.0907 262.12 81.9507 262.58L81.9307 262.59Z" fill="black"/>
</g>
<path d="M65.57 275.149C65.75 275.389 68.4 281.539 68.68 282.819C68.96 284.099 67.68 293.719 66.58 293.019C65.47 292.319 65.31 291.859 65.32 289.729C65.33 287.599 65.54 285.639 64.93 286.099C64.33 286.549 62.65 292.609 63.02 294.409C63.39 296.209 64.16 299.439 62.98 300.129C61.8 300.809 61.18 299.429 61.18 299.429C61.18 299.429 59.99 300.129 59.1 299.369C58.21 298.619 55.84 294.689 55.65 292.539C55.46 290.389 57.37 280.179 57.82 277.989C57.96 277.329 56.69 271.739 56.69 271.739L65.56 268.439V275.159L65.57 275.149Z" fill="#B97964"/>
<path d="M80.1605 180.6C79.3905 180.47 73.9905 183.84 69.1705 195.74C63.7505 209.12 59.4405 220.28 56.6805 228.88C54.9205 234.35 54.1705 275.91 57.2105 276.97C60.2505 278.03 66.6205 274.52 67.0805 273.39C67.5405 272.25 70.6605 241.32 70.5305 236.47C70.4505 233.53 81.7705 208.36 82.2305 205.02C82.6905 201.68 80.1505 180.6 80.1505 180.6H80.1605Z" fill="#976EFF"/>
<g opacity="0.2">
<path d="M80.5393 182.88C81.7693 184.32 82.2993 186.3 82.6593 188.11C83.0893 190.22 83.2593 192.37 83.2993 194.51C83.2993 194.99 84.0593 194.99 84.0493 194.51C84.0093 192.24 83.8093 189.95 83.3493 187.73C82.9493 185.84 82.3493 183.84 81.0693 182.35C80.7593 181.98 80.2293 182.52 80.5393 182.88Z" fill="black"/>
</g>
<g opacity="0.2">
<path d="M141.689 211.88C140.029 213.1 138.629 214.65 137.609 216.44C137.369 216.86 138.019 217.24 138.259 216.82C139.219 215.14 140.509 213.67 142.069 212.53C142.229 212.41 142.309 212.2 142.199 212.02C142.109 211.86 141.849 211.76 141.689 211.89V211.88Z" fill="black"/>
</g>
<g opacity="0.2">
<path d="M143.659 212.59C141.839 214.25 140.319 216.24 139.189 218.43C138.969 218.86 139.619 219.24 139.839 218.81C140.939 216.67 142.409 214.74 144.189 213.12C144.549 212.79 144.019 212.26 143.659 212.59Z" fill="black"/>
</g>
<defs>
<linearGradient id="paint0_linear_1007_3758" x1="30.7402" y1="449.74" x2="719.26" y2="449.74" gradientUnits="userSpaceOnUse">
<stop stop-color="#F5F5F5"/>
<stop offset="1" stop-color="#8F8F8F"/>
</linearGradient>
</defs>
</svg>
