<svg width="124" height="25" viewBox="0 0 124 25" fill="none" xmlns="http://www.w3.org/2000/svg">
<path d="M119.426 14.5122C119.426 13.5979 119.314 12.7459 119.09 11.9563C118.884 11.1459 118.595 10.5018 118.222 10.0239C117.867 9.54594 117.484 9.30698 117.074 9.30698C116.57 9.30698 116.01 9.64984 115.394 10.3356C114.778 11.0213 114.283 11.8628 113.91 12.8602C113.872 18.4083 113.826 22.2836 113.77 24.4862C112.65 24.4862 111.138 24.4446 109.234 24.3615C109.14 21.5979 109.094 15.8732 109.094 7.1875C110.736 7.10438 112.342 7.06283 113.91 7.06283V8.87062C114.638 8.22646 115.394 7.72776 116.178 7.37451C116.962 7.00049 117.708 6.81348 118.418 6.81348C119.351 6.81348 120.21 7.10439 120.994 7.6862C121.796 8.24724 122.44 9.02646 122.926 10.0239C123.43 11.0005 123.719 12.0914 123.794 13.2966C122.226 13.8576 120.77 14.2628 119.426 14.5122Z" fill="black"/>
<path d="M99.7105 24.5797C98.2171 24.5797 96.8545 24.1953 95.6225 23.4265C94.4091 22.6576 93.4571 21.5979 92.7665 20.2472C92.0758 18.8758 91.7305 17.3485 91.7305 15.6654C91.7305 14.0031 92.0665 12.4966 92.7385 11.1459C93.4291 9.79529 94.3718 8.73555 95.5665 7.96672C96.7798 7.19789 98.1238 6.81348 99.5985 6.81348C100.998 6.81348 102.268 7.16672 103.406 7.87322C104.545 8.55893 105.46 9.53555 106.15 10.8031C106.86 12.0498 107.28 13.5044 107.41 15.1667L96.2945 17.4732C96.6678 18.8446 97.2371 19.9459 98.0025 20.7771C98.7678 21.6083 99.6171 22.0239 100.55 22.0239C101.428 22.0239 102.296 21.6914 103.154 21.0265C104.013 20.3407 104.676 19.468 105.142 18.4083L107.13 20.2784C106.216 21.6498 105.114 22.7096 103.826 23.4576C102.538 24.2057 101.166 24.5797 99.7105 24.5797ZM95.9305 14.7304L102.454 13.733C102.324 12.4031 101.941 11.333 101.306 10.5226C100.672 9.71218 99.8971 9.30698 98.9825 9.30698C98.0305 9.30698 97.2838 9.76413 96.7425 10.6784C96.2011 11.5719 95.9305 12.8187 95.9305 14.4187V14.7304Z" fill="black"/>
<path d="M82.3472 24.5797C80.8539 24.5797 79.4912 24.1953 78.2592 23.4265C77.0459 22.6576 76.0939 21.5979 75.4032 20.2472C74.7125 18.8758 74.3672 17.3485 74.3672 15.6654C74.3672 14.0031 74.7032 12.4966 75.3752 11.1459C76.0659 9.79529 77.0085 8.73555 78.2032 7.96672C79.4165 7.19789 80.7605 6.81348 82.2352 6.81348C83.6352 6.81348 84.9045 7.16672 86.0432 7.87322C87.1819 8.55893 88.0965 9.53555 88.7872 10.8031C89.4965 12.0498 89.9165 13.5044 90.0472 15.1667L78.9312 17.4732C79.3045 18.8446 79.8739 19.9459 80.6392 20.7771C81.4045 21.6083 82.2539 22.0239 83.1872 22.0239C84.0645 22.0239 84.9325 21.6914 85.7912 21.0265C86.6499 20.3407 87.3125 19.468 87.7792 18.4083L89.7672 20.2784C88.8525 21.6498 87.7512 22.7096 86.4632 23.4576C85.1752 24.2057 83.8032 24.5797 82.3472 24.5797ZM78.5672 14.7304L85.0912 13.733C84.9605 12.4031 84.5779 11.333 83.9432 10.5226C83.3085 9.71218 82.5339 9.30698 81.6192 9.30698C80.6672 9.30698 79.9205 9.76413 79.3792 10.6784C78.8379 11.5719 78.5672 12.8187 78.5672 14.4187V14.7304Z" fill="black"/>
<path d="M59.0098 24.5801C57.9831 24.5801 56.8444 24.5281 55.5938 24.4242C55.5938 13.1619 55.6591 5.31774 55.7897 0.891766C57.1711 0.683974 58.5524 0.580078 59.9338 0.580078C64.2084 0.580078 67.4471 1.56709 69.6497 3.54112C71.8524 5.49436 72.9538 8.38268 72.9538 12.2061C72.9538 16.2372 71.7498 19.3125 69.3418 21.432C66.9524 23.5307 63.5084 24.5801 59.0098 24.5801ZM60.5497 21.9931C62.3417 21.9931 63.7791 21.7125 64.8617 21.1515C65.9444 20.5697 66.7378 19.6554 67.2418 18.4087C67.7458 17.1619 67.9977 15.5099 67.9977 13.4528C67.9977 10.1905 67.4004 7.71774 66.2057 6.03462C65.0297 4.35151 63.2004 3.37488 60.7178 3.10475C60.6804 4.43462 60.6431 7.13592 60.6057 11.2086C60.5684 15.2814 60.5497 18.8762 60.5497 21.9931Z" fill="black"/>
<path d="M49.5351 14.5122C49.5351 13.5979 49.4231 12.7459 49.1991 11.9563C48.9938 11.1459 48.7045 10.5018 48.3311 10.0239C47.9765 9.54594 47.5938 9.30698 47.1831 9.30698C46.6791 9.30698 46.1191 9.64984 45.5031 10.3356C44.8871 11.0213 44.3925 11.8628 44.0191 12.8602C43.9818 18.4083 43.9351 22.2836 43.8791 24.4862C42.7591 24.4862 41.2471 24.4446 39.3431 24.3615C39.2498 21.5979 39.2031 15.8732 39.2031 7.1875C40.8458 7.10438 42.4511 7.06283 44.0191 7.06283V8.87062C44.7471 8.22646 45.5031 7.72776 46.2871 7.37451C47.0711 7.00049 47.8178 6.81348 48.5271 6.81348C49.4605 6.81348 50.3191 7.10439 51.1031 7.6862C51.9058 8.24724 52.5498 9.02646 53.0351 10.0239C53.5391 11.0005 53.8285 12.0914 53.9031 13.2966C52.3351 13.8576 50.8791 14.2628 49.5351 14.5122Z" fill="black"/>
<path d="M31.8348 22.5226C29.9121 23.894 27.9987 24.5797 26.0947 24.5797C24.5081 24.5797 23.2107 24.1537 22.2027 23.3018C21.2134 22.4291 20.7188 21.2966 20.7188 19.9044C20.7188 18.6576 21.1294 17.494 21.9508 16.4135C22.7908 15.3122 23.9481 14.3875 25.4228 13.6394C26.9161 12.8706 28.6054 12.3407 30.4907 12.0498C29.8187 10.2213 28.8948 9.30698 27.7188 9.30698C27.0094 9.30698 26.0948 9.60828 24.9748 10.2109C23.8548 10.8135 22.7161 11.6031 21.5588 12.5797L20.7188 9.46283C23.5001 7.69659 26.1321 6.81348 28.6147 6.81348C30.5561 6.81348 32.1148 7.40568 33.2908 8.5901C34.4668 9.75373 35.3254 11.6135 35.8668 14.1693C36.4081 16.7252 36.6787 20.1226 36.6787 24.3615C35.7081 24.4446 34.1028 24.4862 31.8628 24.4862L31.8348 22.5226ZM25.3388 19.6862C25.3388 20.3304 25.5627 20.8394 26.0107 21.2135C26.4774 21.5875 27.0934 21.7745 27.8588 21.7745C29.1841 21.7745 30.4814 21.1304 31.7508 19.842C31.6388 17.7226 31.4241 15.8628 31.1068 14.2628C30.1548 14.4706 29.2308 14.8654 28.3348 15.4472C27.4574 16.0291 26.7388 16.7044 26.1788 17.4732C25.6188 18.242 25.3388 18.9797 25.3388 19.6862Z" fill="black"/>
<path d="M10.5826 24.5801C8.62259 24.5801 6.87726 24.1022 5.34659 23.1463C3.83459 22.1905 2.65859 20.8606 1.81859 19.1567C0.978594 17.432 0.558594 15.458 0.558594 13.2346C0.558594 10.8866 1.02526 8.74631 1.95859 6.81385C2.89193 4.88138 4.17059 3.36449 5.79459 2.26319C7.43726 1.14112 9.25726 0.580078 11.2546 0.580078C12.8226 0.580078 14.3066 0.933325 15.7066 1.63982C17.1066 2.32553 18.2173 3.2606 19.0386 4.44501C17.6759 6.21125 16.4066 7.44761 15.2306 8.1541C14.5026 6.5541 13.7093 5.36969 12.8506 4.60086C12.0106 3.83203 11.0773 3.44761 10.0506 3.44761C8.66926 3.44761 7.56793 4.08138 6.74659 5.34891C5.92526 6.61644 5.51459 8.32034 5.51459 10.4606C5.51459 12.2892 5.81326 14.0762 6.41059 15.8216C7.00793 17.5671 7.78259 18.9905 8.73459 20.0918C9.68659 21.1723 10.6666 21.7125 11.6746 21.7125C12.4959 21.7125 13.3639 21.3593 14.2786 20.6528C15.1933 19.9463 15.9119 19.0528 16.4346 17.9723L19.0386 20.2476C16.7613 23.1359 13.9426 24.5801 10.5826 24.5801Z" fill="black"/>
</svg>
