<svg width="500" height="500" viewBox="0 0 500 500" fill="none" xmlns="http://www.w3.org/2000/svg">
<path d="M67.7319 405.781H51.6719V406.031H67.7319V405.781Z" fill="#E0E0E0"/>
<path d="M223.882 403.071H170.352V403.321H223.882V403.071Z" fill="#E0E0E0"/>
<path d="M104.982 415.071H68.7324V415.321H104.982V415.071Z" fill="#E0E0E0"/>
<path d="M421.542 402.941H378.352V403.191H421.542V402.941Z" fill="#E0E0E0"/>
<path d="M436.781 402.941H430.451V403.191H436.781V402.941Z" fill="#E0E0E0"/>
<path d="M370.101 409.171H316.211V409.421H370.101V409.171Z" fill="#E0E0E0"/>
<path d="M349.724 94.4017C354.397 75.2605 342.669 55.9548 323.528 51.2813C304.387 46.6078 285.081 58.3362 280.407 77.4775C275.734 96.6187 287.462 115.924 306.604 120.598C325.745 125.271 345.05 113.543 349.724 94.4017Z" fill="#987951"/>
<path d="M336.721 103.705C346.533 91.7429 344.789 74.0914 332.827 64.2796C320.865 54.4678 303.213 56.2112 293.402 68.1735C283.59 80.1358 285.333 97.7872 297.295 107.599C309.258 117.41 326.909 115.667 336.721 103.705Z" fill="#976EFF"/>
<path opacity="0.3" d="M322.107 61.9483C336.47 66.1633 344.894 80.8713 341.481 95.2673C341.646 94.7983 341.8 94.3233 341.942 93.8413C346.298 78.9963 337.796 63.4303 322.951 59.0743C308.106 54.7183 292.54 63.2203 288.184 78.0653C288.043 78.5473 287.916 79.0303 287.801 79.5143C292.708 65.5563 307.744 57.7333 322.107 61.9483Z" fill="#976EFF"/>
<path d="M320.155 100.042C318.192 101.05 315.707 101.28 312.702 100.735L311.43 105.069L308.256 104.137L309.518 99.8417C307.646 99.1517 305.943 98.2757 304.407 97.2067C302.87 96.1397 301.728 95.0187 300.979 93.8477L303.868 90.4497C304.595 91.5047 305.565 92.4967 306.777 93.4267C307.989 94.3567 309.31 95.1027 310.743 95.6627L313.016 87.9237C311.312 86.9457 309.926 86.0147 308.857 85.1257C307.786 84.2367 306.988 83.1617 306.462 81.8997C305.935 80.6387 305.918 79.1707 306.41 77.4937C307.023 75.4037 308.305 73.8477 310.26 72.8237C312.213 71.7997 314.678 71.5707 317.651 72.1337L318.934 67.7617L322.108 68.6927L320.846 72.9897C322.268 73.4897 323.609 74.1497 324.867 74.9677C326.127 75.7837 327.174 76.6807 328.01 77.6547L325.276 81.0967C323.648 79.3867 321.763 78.0767 319.621 77.1667L317.327 84.9847C319.055 85.9687 320.457 86.8977 321.531 87.7727C322.604 88.6487 323.411 89.7177 323.95 90.9827C324.49 92.2487 324.515 93.7207 324.022 95.3967C323.406 97.4867 322.117 99.0357 320.155 100.042ZM311.872 81.0737C312.39 81.7857 313.23 82.5087 314.389 83.2407L316.411 76.3517C315.035 76.1727 313.932 76.2967 313.107 76.7267C312.28 77.1567 311.734 77.8237 311.469 78.7257C311.219 79.5777 311.353 80.3597 311.872 81.0737ZM317.329 96.2087C318.161 95.8087 318.707 95.1697 318.964 94.2927C319.221 93.4157 319.078 92.6097 318.536 91.8767C317.995 91.1447 317.133 90.4067 315.949 89.6667L313.939 96.5167C315.367 96.7117 316.497 96.6087 317.329 96.2087Z" fill="white"/>
<path d="M243.141 72.8803C248.492 60.0174 242.403 45.2519 229.539 39.9006C216.676 34.5494 201.91 40.6388 196.559 53.5016C191.208 66.3645 197.298 81.1299 210.161 86.4812C223.025 91.8325 237.79 85.7431 243.141 72.8803Z" fill="#B28D5F"/>
<path d="M239.438 66.1908C237.786 77.0048 227.68 84.4318 216.866 82.7798C206.052 81.1278 198.625 71.0218 200.277 60.2078C201.929 49.3938 212.035 41.9668 222.849 43.6198C233.663 45.2708 241.09 55.3768 239.438 66.1908Z" fill="#976EFF"/>
<path opacity="0.3" d="M222.529 45.7126C232.992 47.3116 240.283 56.8236 239.249 67.2336C239.32 66.8896 239.384 66.5426 239.437 66.1906C241.089 55.3766 233.663 45.2706 222.849 43.6186C212.035 41.9666 201.929 49.3936 200.277 60.2066C200.223 60.5576 200.18 60.9086 200.145 61.2576C202.268 51.0146 212.067 44.1136 222.529 45.7126Z" fill="#976EFF"/>
<path d="M224.804 72.5715C223.523 73.4635 221.804 73.8595 219.646 73.7615L219.164 76.9175L216.852 76.5635L217.331 73.4345C215.954 73.1265 214.678 72.6725 213.5 72.0695C212.323 71.4665 211.417 70.7905 210.781 70.0395L212.485 67.3875C213.094 68.0575 213.867 68.6605 214.804 69.1975C215.742 69.7355 216.739 70.1325 217.795 70.3895L218.656 64.7515C217.371 64.2285 216.311 63.7055 215.477 63.1845C214.643 62.6625 213.983 61.9855 213.495 61.1515C213.006 60.3165 212.855 59.2885 213.043 58.0665C213.275 56.5435 214.027 55.3325 215.301 54.4305C216.573 53.5295 218.278 53.1365 220.414 53.2505L220.9 50.0645L223.212 50.4185L222.734 53.5475C223.777 53.7645 224.779 54.1005 225.739 54.5545C226.698 55.0095 227.516 55.5365 228.194 56.1405L226.603 58.8115C225.301 57.7665 223.856 57.0275 222.268 56.5915L221.398 62.2865C222.703 62.8115 223.772 63.3315 224.608 63.8435C225.443 64.3565 226.109 65.0305 226.607 65.8675C227.103 66.7025 227.259 67.7305 227.073 68.9525C226.841 70.4755 226.083 71.6825 224.804 72.5715ZM217.21 60.0615C217.642 60.5125 218.297 60.9395 219.178 61.3425L219.945 56.3245C218.964 56.3295 218.203 56.5195 217.665 56.8995C217.126 57.2775 216.807 57.7975 216.706 58.4545C216.61 59.0745 216.778 59.6105 217.21 60.0615ZM222.462 70.1515C223.007 69.7945 223.329 69.2945 223.427 68.6545C223.524 68.0155 223.349 67.4665 222.9 67.0025C222.452 66.5405 221.777 66.1065 220.879 65.6985L220.116 70.6885C221.134 70.6895 221.916 70.5115 222.462 70.1515Z" fill="white"/>
<path d="M80.1477 114.373C88.2059 108.45 89.9375 97.1174 84.0153 89.0592C78.0932 81.001 66.7599 79.2694 58.7018 85.1915C50.6436 91.1137 48.912 102.447 54.8341 110.505C60.7562 118.563 72.0895 120.295 80.1477 114.373Z" fill="#B28D5F"/>
<path d="M81.6869 106.963C85.6532 100.187 83.3749 91.4781 76.5983 87.5119C69.8217 83.5456 61.1129 85.8239 57.1467 92.6005C53.1804 99.3771 55.4587 108.086 62.2353 112.052C69.0119 116.018 77.7207 113.74 81.6869 106.963Z" fill="#976EFF"/>
<path opacity="0.3" d="M71.3414 87.2315C78.8514 88.3785 84.0854 95.2065 83.3434 102.679C83.3944 102.432 83.4404 102.183 83.4784 101.931C84.6644 94.1695 79.3334 86.9155 71.5714 85.7295C63.8094 84.5435 56.5554 89.8745 55.3694 97.6365C55.3304 97.8885 55.3004 98.1405 55.2754 98.3915C56.7974 91.0375 63.8314 86.0845 71.3414 87.2315Z" fill="#976EFF"/>
<path d="M72.9927 106.5C72.0737 107.139 70.8397 107.424 69.2907 107.353L68.9447 109.62L67.2857 109.367L67.6287 107.12C66.6397 106.9 65.7247 106.574 64.8797 106.141C64.0347 105.708 63.3837 105.223 62.9277 104.684L64.1507 102.779C64.5877 103.26 65.1437 103.694 65.8147 104.079C66.4887 104.465 67.2047 104.75 67.9627 104.935L68.5807 100.888C67.6577 100.513 66.8967 100.137 66.2987 99.7617C65.6997 99.3887 65.2257 98.9007 64.8757 98.3027C64.5237 97.7037 64.4177 96.9657 64.5517 96.0887C64.7187 94.9957 65.2577 94.1267 66.1727 93.4797C67.0857 92.8327 68.3097 92.5498 69.8427 92.6318L70.1927 90.3457L71.8517 90.5987L71.5077 92.8447C72.2567 92.9997 72.9757 93.2417 73.6647 93.5677C74.3527 93.8937 74.9397 94.2737 75.4267 94.7067L74.2847 96.6237C73.3497 95.8737 72.3127 95.3417 71.1747 95.0297L70.5497 99.1167C71.4857 99.4947 72.2537 99.8677 72.8527 100.236C73.4527 100.604 73.9297 101.088 74.2877 101.687C74.6437 102.287 74.7557 103.025 74.6217 103.902C74.4557 104.994 73.9117 105.86 72.9927 106.5ZM67.5427 97.5187C67.8507 97.8417 68.3217 98.1487 68.9547 98.4387L69.5057 94.8367C68.8007 94.8397 68.2547 94.9767 67.8687 95.2487C67.4827 95.5207 67.2527 95.8937 67.1807 96.3657C67.1117 96.8107 67.2317 97.1947 67.5427 97.5187ZM71.3117 104.762C71.7037 104.505 71.9347 104.146 72.0047 103.688C72.0747 103.229 71.9477 102.834 71.6267 102.502C71.3057 102.17 70.8207 101.857 70.1757 101.565L69.6287 105.147C70.3577 105.149 70.9207 105.021 71.3117 104.762Z" fill="white"/>
<path d="M455.732 150.916C462.757 143.799 462.683 132.334 455.565 125.309C448.448 118.284 436.984 118.358 429.958 125.476C422.933 132.593 423.008 144.057 430.125 151.082C437.242 158.108 448.707 158.033 455.732 150.916Z" fill="#B28D5F"/>
<path d="M452.63 148.538C458.326 143.133 458.563 134.134 453.158 128.438C447.753 122.742 438.754 122.505 433.058 127.91C427.362 133.315 427.126 142.314 432.53 148.01C437.935 153.706 446.934 153.943 452.63 148.538Z" fill="#976EFF"/>
<path opacity="0.3" d="M444.76 125.65C452.27 126.798 457.504 133.625 456.762 141.098C456.813 140.851 456.859 140.602 456.897 140.349C458.083 132.587 452.752 125.333 444.99 124.147C437.228 122.961 429.974 128.292 428.787 136.054C428.749 136.306 428.718 136.558 428.693 136.809C430.216 129.456 437.25 124.503 444.76 125.65Z" fill="#976EFF"/>
<path d="M446.411 144.919C445.492 145.558 444.259 145.843 442.709 145.772L442.363 148.039L440.704 147.786L441.047 145.539C440.059 145.319 439.143 144.993 438.298 144.559C437.452 144.126 436.802 143.641 436.346 143.102L437.57 141.197C438.006 141.678 438.562 142.112 439.234 142.497C439.908 142.883 440.624 143.168 441.381 143.353L441.999 139.306C441.076 138.931 440.315 138.556 439.717 138.181C439.118 137.807 438.645 137.32 438.294 136.721C437.942 136.122 437.836 135.385 437.97 134.507C438.137 133.414 438.677 132.545 439.591 131.898C440.503 131.25 441.728 130.968 443.261 131.05L443.611 128.764L445.27 129.017L444.926 131.263C445.675 131.418 446.394 131.66 447.083 131.986C447.771 132.312 448.358 132.692 448.845 133.125L447.703 135.042C446.767 134.292 445.73 133.76 444.593 133.448L443.968 137.535C444.904 137.913 445.672 138.286 446.272 138.654C446.872 139.022 447.349 139.506 447.707 140.105C448.063 140.705 448.176 141.443 448.042 142.32C447.874 143.413 447.33 144.279 446.411 144.919ZM440.961 135.938C441.27 136.261 441.74 136.568 442.373 136.857L442.924 133.255C442.219 133.257 441.673 133.395 441.287 133.667C440.9 133.939 440.671 134.312 440.598 134.784C440.53 135.23 440.65 135.614 440.961 135.938ZM444.73 143.181C445.122 142.924 445.352 142.565 445.422 142.107C445.492 141.649 445.365 141.253 445.044 140.921C444.723 140.589 444.237 140.276 443.593 139.985L443.045 143.566C443.776 143.568 444.339 143.439 444.73 143.181Z" fill="white"/>
<path d="M414.302 270.027C416.309 253.388 404.446 238.273 387.807 236.267C371.168 234.261 356.054 246.123 354.047 262.762C352.041 279.401 363.904 294.516 380.543 296.522C397.181 298.528 412.296 286.666 414.302 270.027Z" fill="#987951"/>
<path d="M406.129 275.622C401.024 287.751 387.052 293.446 374.923 288.34C362.794 283.235 357.099 269.263 362.205 257.134C367.31 245.005 381.282 239.31 393.411 244.416C405.54 249.521 411.234 263.493 406.129 275.622Z" fill="#976EFF"/>
<path opacity="0.3" d="M392.421 246.765C404.156 251.704 409.867 264.943 405.602 276.783C405.786 276.403 405.962 276.016 406.128 275.622C411.233 263.493 405.539 249.521 393.41 244.416C381.281 239.311 367.309 245.005 362.204 257.134C362.038 257.528 361.885 257.924 361.742 258.322C367.227 246.996 380.685 241.825 392.421 246.765Z" fill="#976EFF"/>
<path d="M387.224 278.829C385.468 279.492 383.347 279.449 380.859 278.699L379.368 282.241L376.774 281.149L378.252 277.639C376.737 276.876 375.382 275.971 374.186 274.921C372.99 273.873 372.131 272.817 371.611 271.754L374.379 269.159C374.893 270.12 375.615 271.051 376.552 271.953C377.488 272.855 378.533 273.612 379.691 274.223L382.352 267.9C381.007 266.913 379.923 265.991 379.104 265.137C378.287 264.284 377.713 263.299 377.39 262.182C377.066 261.066 377.192 259.823 377.768 258.452C378.487 256.745 379.721 255.552 381.471 254.874C383.221 254.196 385.325 254.238 387.783 255L389.287 251.427L391.881 252.519L390.403 256.029C391.556 256.589 392.626 257.275 393.612 258.088C394.598 258.899 395.397 259.756 396.009 260.659L393.368 263.307C392.157 261.705 390.688 260.417 388.965 259.444L386.276 265.832C387.643 266.829 388.738 267.748 389.562 268.592C390.385 269.435 390.965 270.416 391.299 271.537C391.633 272.658 391.513 273.904 390.937 275.274C390.217 276.981 388.978 278.166 387.224 278.829ZM382.043 262.002C382.412 262.653 383.051 263.345 383.961 264.074L386.329 258.446C385.183 258.163 384.241 258.162 383.501 258.447C382.761 258.731 382.235 259.242 381.925 259.979C381.632 260.675 381.672 261.349 382.043 262.002ZM385.203 275.317C385.944 275.059 386.466 274.571 386.767 273.854C387.069 273.137 387.027 272.444 386.639 271.771C386.251 271.1 385.593 270.395 384.664 269.656L382.309 275.253C383.497 275.555 384.461 275.576 385.203 275.317Z" fill="white"/>
<path d="M77.5171 370.595C77.5031 370.155 76.0231 326.491 68.9211 319.585C62.0131 312.87 54.0851 319.335 53.7511 319.613L53.0391 318.76C53.1291 318.684 62.0761 311.38 69.6961 318.788C77.1181 326.005 78.5691 368.745 78.6271 370.561L77.5171 370.595Z" fill="#1B9918"/>
<path d="M78.1284 379.176C78.0774 378.654 73.2744 326.756 92.2274 305.005L93.0654 305.734C74.4264 327.125 79.1854 378.55 79.2354 379.067L78.1284 379.176Z" fill="#1B9918"/>
<path d="M77.427 373.686L76.318 373.612C76.357 373.024 80.027 314.612 66.125 301.825L66.877 301.006C81.169 314.153 77.587 371.261 77.427 373.686Z" fill="#1B9918"/>
<path d="M79.237 373.654L78.125 373.645C78.138 372.036 78.584 334.19 89.334 328.03C91.724 326.659 94.064 326.431 96.29 327.351C102.79 330.04 106.012 341.609 106.146 342.1L105.074 342.393C105.043 342.278 101.862 330.858 95.865 328.378C93.975 327.597 91.964 327.804 89.888 328.993C79.685 334.839 79.24 373.266 79.237 373.654Z" fill="#1B9918"/>
<path d="M75.0498 373.681L73.9408 373.618C73.9578 373.319 75.5628 343.711 67.5718 333.278C65.6358 330.751 63.5338 329.546 61.3138 329.701C56.0778 330.067 51.6878 337.729 51.6438 337.806L50.6758 337.259C50.8668 336.922 55.4028 329.001 61.2348 328.593C63.8438 328.407 66.2758 329.759 68.4548 332.603C76.6958 343.362 75.1208 372.448 75.0498 373.681Z" fill="#1B9918"/>
<path d="M76.802 377.708C76.584 374.836 71.578 307.229 80.387 295.316L81.28 295.976C72.716 307.56 77.858 376.924 77.91 377.623L76.802 377.708Z" fill="#1B9918"/>
<path d="M98.6845 334.203C98.6845 334.203 93.4005 336.151 94.9715 340.75C96.5425 345.349 113.252 352.918 113.252 352.918C113.252 352.918 120.25 346.504 113.823 336.072C107.397 325.641 98.8275 330.912 98.6845 334.203Z" fill="#8EE469"/>
<path d="M75.7121 325.448C75.7121 325.448 81.3393 325.212 81.6593 330.062C81.9793 334.911 69.4692 348.328 69.4692 348.328C69.4692 348.328 60.5423 345.101 62.4593 332.999C64.3763 320.898 74.3131 322.465 75.7121 325.448Z" fill="#8EE469"/>
<path d="M70.9487 302.235C70.9487 302.235 74.7007 301.832 74.3977 299.547C74.0957 297.262 59.8147 291.381 51.3887 300.891C51.3887 300.891 56.7837 310.159 64.5827 310.28C72.3817 310.401 70.9487 302.235 70.9487 302.235Z" fill="#8EE469"/>
<path d="M77.9395 296.686C77.9395 296.686 74.5425 298.328 73.5905 296.229C72.6385 294.13 81.6485 281.586 93.8295 285.2C93.8295 285.2 94.1525 295.919 87.5975 300.147C81.0425 304.375 77.9395 296.686 77.9395 296.686Z" fill="#8EE469"/>
<path d="M60.1782 332.354C60.1782 332.354 62.7672 330.263 59.9732 329.243C57.1792 328.222 43.4692 328.513 43.3262 342.093C43.3262 342.093 59.2942 344.747 61.2702 339.573C63.2462 334.401 60.1782 332.354 60.1782 332.354Z" fill="#8EE469"/>
<path d="M92.7382 301.894C92.7382 301.894 90.1492 299.804 92.9432 298.783C95.7372 297.763 109.447 298.053 109.59 311.633C109.59 311.633 93.6222 314.287 91.6462 309.113C89.6692 303.941 92.7382 301.894 92.7382 301.894Z" fill="#8EE469"/>
<path d="M84.2974 312.834C84.2974 312.834 84.0694 310.293 86.1214 311.289C88.1734 312.285 95.3204 319.996 87.9114 327.313C87.9114 327.313 77.9384 319.927 79.7364 316.08C81.5334 312.234 84.2974 312.834 84.2974 312.834Z" fill="#8EE469"/>
<path d="M57.8633 316.456C57.8633 316.456 59.4113 314.428 57.1443 314.176C54.8773 313.925 44.7193 316.636 47.0853 326.777C47.0853 326.777 59.4603 325.847 59.9913 321.634C60.5223 317.421 57.8633 316.456 57.8633 316.456Z" fill="#8EE469"/>
<path d="M89.6391 393.242H64.6771L58.0371 362.618H95.6481L89.6391 393.242Z" fill="#3F1709"/>
<path d="M56.2734 362.674H97.3144V370.481H56.2734V362.674Z" fill="#3F1709" stroke="white"/>
<path d="M421.12 370.595C421.106 370.155 419.626 326.491 412.524 319.585C405.616 312.87 397.688 319.335 397.355 319.613L396.643 318.76C396.733 318.684 405.68 311.38 413.3 318.788C420.721 326.005 422.173 368.745 422.231 370.561L421.12 370.595Z" fill="#1B9918"/>
<path d="M421.73 379.176C421.679 378.654 416.876 326.756 435.829 305.005L436.667 305.734C418.029 327.125 422.787 378.55 422.836 379.067L421.73 379.176Z" fill="#1B9918"/>
<path d="M421.029 373.686L419.92 373.612C419.959 373.024 423.629 314.612 409.727 301.825L410.479 301.006C424.771 314.153 421.189 371.261 421.029 373.686Z" fill="#1B9918"/>
<path d="M422.838 373.654L421.727 373.645C421.74 372.036 422.186 334.19 432.936 328.03C435.326 326.659 437.666 326.431 439.892 327.351C446.392 330.04 449.614 341.609 449.748 342.1L448.676 342.393C448.644 342.278 445.464 330.858 439.467 328.378C437.577 327.597 435.566 327.804 433.49 328.993C423.287 334.839 422.841 373.266 422.838 373.654Z" fill="#1B9918"/>
<path d="M418.651 373.681L417.542 373.618C417.559 373.319 419.164 343.711 411.173 333.278C409.237 330.751 407.135 329.546 404.915 329.701C399.679 330.067 395.289 337.729 395.245 337.806L394.277 337.259C394.468 336.922 399.004 329.001 404.836 328.593C407.445 328.407 409.877 329.759 412.056 332.603C420.297 343.362 418.722 372.448 418.651 373.681Z" fill="#1B9918"/>
<path d="M420.404 377.708C420.186 374.836 415.18 307.229 423.989 295.316L424.882 295.976C416.317 307.56 421.46 376.924 421.512 377.623L420.404 377.708Z" fill="#1B9918"/>
<path d="M442.286 334.203C442.286 334.203 437.002 336.151 438.573 340.75C440.144 345.349 456.853 352.918 456.853 352.918C456.853 352.918 463.851 346.504 457.424 336.072C450.998 325.641 442.429 330.912 442.286 334.203Z" fill="#8EE469"/>
<path d="M419.314 325.448C419.314 325.448 424.941 325.212 425.261 330.062C425.581 334.911 413.071 348.328 413.071 348.328C413.071 348.328 404.144 345.101 406.061 332.999C407.978 320.898 417.915 322.465 419.314 325.448Z" fill="#8EE469"/>
<path d="M414.55 302.235C414.55 302.235 418.301 301.832 417.999 299.547C417.697 297.262 403.416 291.381 394.99 300.891C394.99 300.891 400.385 310.159 408.184 310.28C415.984 310.401 414.55 302.235 414.55 302.235Z" fill="#8EE469"/>
<path d="M421.541 296.686C421.541 296.686 418.144 298.328 417.192 296.229C416.24 294.13 425.25 281.586 437.431 285.2C437.431 285.2 437.754 295.919 431.199 300.147C424.643 304.375 421.541 296.686 421.541 296.686Z" fill="#8EE469"/>
<path d="M403.78 332.354C403.78 332.354 406.369 330.263 403.575 329.243C400.781 328.222 387.071 328.513 386.928 342.093C386.928 342.093 402.896 344.747 404.872 339.573C406.848 334.401 403.78 332.354 403.78 332.354Z" fill="#8EE469"/>
<path d="M436.34 301.894C436.34 301.894 433.751 299.804 436.545 298.783C439.339 297.763 453.049 298.053 453.192 311.633C453.192 311.633 437.224 314.287 435.248 309.113C433.271 303.941 436.34 301.894 436.34 301.894Z" fill="#8EE469"/>
<path d="M427.899 312.834C427.899 312.834 427.671 310.293 429.723 311.289C431.775 312.285 438.922 319.996 431.513 327.313C431.513 327.313 421.54 319.927 423.338 316.08C425.135 312.234 427.899 312.834 427.899 312.834Z" fill="#8EE469"/>
<path d="M401.465 316.456C401.465 316.456 403.013 314.428 400.746 314.176C398.479 313.925 388.321 316.636 390.687 326.777C390.687 326.777 403.062 325.847 403.593 321.634C404.123 317.422 401.465 316.456 401.465 316.456Z" fill="#8EE469"/>
<path d="M433.242 393.242H408.28L401.641 362.618H439.251L433.242 393.242Z" fill="#3F1709"/>
<path d="M399.875 362.674H440.916V370.481H420.395H399.875V362.674Z" fill="#3F1709" stroke="white"/>
<path d="M452.02 466.747C452.02 470.134 358.503 472.879 243.145 472.879C127.787 472.879 34.2695 470.134 34.2695 466.747C34.2695 463.36 127.786 460.615 243.145 460.615C358.504 460.615 452.02 463.36 452.02 466.747Z" fill="black"/>
<path d="M370.04 93.3682H145.082V416.289H370.04V93.3682Z" fill="#FDD5B2"/>
<path d="M145.582 93.8682H369.54V415.789H145.582V93.8682Z" fill="white" stroke="black"/>
<path d="M291.568 123.502H164.086V172.039H291.568V123.502Z" fill="#976EFF"/>
<path d="M352.651 133.393H303.883V138.202H352.651V133.393Z" fill="#263238"/>
<path d="M278.348 214.761H163.365V219.57H278.348V214.761Z" fill="#263238"/>
<path d="M351.223 214.761H290.721V219.57H351.223V214.761Z" fill="#263238"/>
<path d="M186.177 200.801H163.055V205.61H186.177V200.801Z" fill="#263238"/>
<path d="M233.076 200.801H194.109V205.61H233.076V200.801Z" fill="#263238"/>
<path d="M351.222 200.801H240.006V205.61H351.222V200.801Z" fill="#263238"/>
<path d="M236.592 229.212H163.365V234.021H236.592V229.212Z" fill="#263238"/>
<path d="M283.752 229.212H244.568V234.021H283.752V229.212Z" fill="#263238"/>
<path d="M351.223 229.212H290.721V234.021H351.223V229.212Z" fill="#263238"/>
<path d="M278.872 276.252H163.889V281.061H278.872V276.252Z" fill="#263238"/>
<path d="M351.746 276.252H291.244V281.061H351.746V276.252Z" fill="#263238"/>
<path d="M208.18 304.158H163.889V308.967H208.18V304.158Z" fill="#263238"/>
<path d="M229.946 323.224H163.889V328.033H229.946V323.224Z" fill="#263238"/>
<path d="M229.946 347.722H163.889V352.531H229.946V347.722Z" fill="#263238"/>
<path d="M212.494 335.23H163.889V340.039H212.494V335.23Z" fill="#263238"/>
<path d="M186.7 262.292H163.578V267.101H186.7V262.292Z" fill="#263238"/>
<path d="M233.6 262.292H194.633V267.101H233.6V262.292Z" fill="#263238"/>
<path d="M351.745 262.292H240.529V267.101H351.745V262.292Z" fill="#263238"/>
<path d="M352.651 145.161H303.883V149.97H352.651V145.161Z" fill="#263238"/>
<path d="M333.728 157.339H303.883V162.148H333.728V157.339Z" fill="#263238"/>
<path d="M262.04 346.847C260.151 348.641 257.413 349.728 253.827 350.109V355.442H249.923V350.157C247.573 349.998 245.352 349.57 243.257 348.871C241.162 348.174 239.495 347.284 238.258 346.205L240.4 341.396C241.575 342.348 243.003 343.15 244.686 343.8C246.368 344.45 248.114 344.856 249.923 345.014V335.492C247.668 334.953 245.788 334.357 244.28 333.707C242.772 333.057 241.51 332.104 240.495 330.85C239.479 329.597 238.972 327.939 238.972 325.874C238.972 323.303 239.908 321.113 241.781 319.304C243.654 317.494 246.368 316.416 249.924 316.067V310.686H253.828V315.971C255.605 316.067 257.343 316.368 259.041 316.875C260.739 317.384 262.224 318.05 263.493 318.875L261.541 323.685C259.129 322.289 256.558 321.431 253.828 321.114V330.731C256.113 331.271 258.01 331.859 259.518 332.493C261.025 333.129 262.295 334.073 263.327 335.326C264.358 336.581 264.875 338.239 264.875 340.302C264.873 342.871 263.928 345.054 262.04 346.847ZM246.351 328.111C247.176 328.746 248.367 329.286 249.922 329.73V321.254C248.303 321.509 247.096 322.016 246.303 322.777C245.509 323.539 245.113 324.475 245.113 325.587C245.113 326.635 245.525 327.477 246.351 328.111ZM257.564 343.442C258.374 342.712 258.778 341.808 258.778 340.728C258.778 339.65 258.349 338.785 257.493 338.133C256.636 337.483 255.414 336.935 253.827 336.49V344.918C255.509 344.665 256.755 344.173 257.564 343.442Z" fill="#976EFF"/>
<path d="M291.988 346.847C290.099 348.641 287.361 349.728 283.775 350.109V355.442H279.871V350.157C277.521 349.998 275.3 349.57 273.205 348.871C271.11 348.174 269.443 347.284 268.205 346.205L270.348 341.396C271.523 342.348 272.951 343.15 274.634 343.8C276.316 344.45 278.062 344.856 279.871 345.014V335.492C277.616 334.953 275.736 334.357 274.228 333.707C272.72 333.057 271.458 332.104 270.443 330.85C269.426 329.597 268.92 327.939 268.92 325.874C268.92 323.303 269.855 321.113 271.729 319.304C273.602 317.494 276.316 316.416 279.872 316.067V310.686H283.776V315.971C285.553 316.067 287.291 316.368 288.989 316.875C290.687 317.384 292.172 318.05 293.441 318.875L291.489 323.685C289.077 322.289 286.506 321.431 283.776 321.114V330.731C286.061 331.271 287.958 331.859 289.465 332.493C290.972 333.129 292.242 334.073 293.274 335.326C294.305 336.581 294.822 338.239 294.822 340.302C294.821 342.871 293.876 345.054 291.988 346.847ZM276.3 328.111C277.125 328.746 278.316 329.286 279.871 329.73V321.254C278.252 321.509 277.045 322.016 276.252 322.777C275.458 323.539 275.062 324.475 275.062 325.587C275.062 326.635 275.474 327.477 276.3 328.111ZM287.513 343.442C288.322 342.712 288.727 341.808 288.727 340.728C288.727 339.65 288.298 338.785 287.442 338.133C286.585 337.483 285.363 336.935 283.776 336.49V344.918C285.457 344.665 286.703 344.173 287.513 343.442Z" fill="#976EFF"/>
<path d="M321.937 346.847C320.048 348.641 317.31 349.728 313.724 350.109V355.442H309.82V350.157C307.47 349.998 305.249 349.57 303.154 348.871C301.059 348.174 299.392 347.284 298.154 346.205L300.297 341.396C301.472 342.348 302.899 343.15 304.583 343.8C306.265 344.45 308.011 344.856 309.82 345.014V335.492C307.565 334.953 305.685 334.357 304.177 333.707C302.669 333.057 301.407 332.104 300.392 330.85C299.375 329.597 298.869 327.939 298.869 325.874C298.869 323.303 299.805 321.113 301.678 319.304C303.551 317.494 306.265 316.416 309.821 316.067V310.686H313.725V315.971C315.502 316.067 317.24 316.368 318.938 316.875C320.636 317.384 322.121 318.05 323.39 318.875L321.438 323.685C319.026 322.289 316.455 321.431 313.725 321.114V330.731C316.01 331.271 317.907 331.859 319.415 332.493C320.922 333.129 322.192 334.073 323.224 335.326C324.255 336.581 324.772 338.239 324.772 340.302C324.769 342.871 323.824 345.054 321.937 346.847ZM306.248 328.111C307.073 328.746 308.264 329.286 309.819 329.73V321.254C308.2 321.509 306.993 322.016 306.2 322.777C305.406 323.539 305.009 324.475 305.009 325.587C305.01 326.635 305.422 327.477 306.248 328.111ZM317.461 343.442C318.271 342.712 318.675 341.808 318.675 340.728C318.675 339.65 318.246 338.785 317.39 338.133C316.533 337.483 315.311 336.935 313.724 336.49V344.918C315.405 344.665 316.651 344.173 317.461 343.442Z" fill="#976EFF"/>
<path d="M351.885 346.847C349.996 348.641 347.258 349.728 343.672 350.109V355.442H339.768V350.157C337.418 349.998 335.197 349.57 333.102 348.871C331.007 348.174 329.34 347.284 328.102 346.205L330.245 341.396C331.42 342.348 332.848 343.15 334.531 343.8C336.213 344.45 337.959 344.856 339.768 345.014V335.492C337.513 334.953 335.633 334.357 334.125 333.707C332.617 333.057 331.355 332.104 330.34 330.85C329.323 329.597 328.817 327.939 328.817 325.874C328.817 323.303 329.753 321.113 331.626 319.304C333.499 317.494 336.213 316.416 339.769 316.067V310.686H343.673V315.971C345.45 316.067 347.188 316.368 348.886 316.875C350.584 317.384 352.069 318.05 353.338 318.875L351.386 323.685C348.974 322.289 346.403 321.431 343.673 321.114V330.731C345.958 331.271 347.855 331.859 349.362 332.493C350.869 333.129 352.139 334.073 353.171 335.326C354.202 336.581 354.719 338.239 354.719 340.302C354.718 342.871 353.772 345.054 351.885 346.847ZM336.196 328.111C337.021 328.746 338.212 329.286 339.767 329.73V321.254C338.148 321.509 336.941 322.016 336.148 322.777C335.354 323.539 334.958 324.475 334.958 325.587C334.958 326.635 335.37 327.477 336.196 328.111ZM347.409 343.442C348.219 342.712 348.623 341.808 348.623 340.728C348.623 339.65 348.194 338.785 347.338 338.133C346.48 337.483 345.259 336.935 343.672 336.49V344.918C345.353 344.665 346.6 344.173 347.409 343.442Z" fill="#976EFF"/>
<g opacity="0.5">
<path d="M278.348 214.761H163.365V219.57H278.348V214.761Z" fill="white"/>
<path d="M351.223 214.761H290.721V219.57H351.223V214.761Z" fill="white"/>
</g>
<path opacity="0.5" d="M186.177 200.801H163.055V205.61H186.177V200.801Z" fill="white"/>
<path opacity="0.5" d="M233.076 200.801H194.109V205.61H233.076V200.801Z" fill="white"/>
<path opacity="0.5" d="M351.222 200.801H240.006V205.61H351.222V200.801Z" fill="white"/>
<g opacity="0.5">
<path d="M236.592 229.212H163.365V234.021H236.592V229.212Z" fill="white"/>
<path d="M283.752 229.212H244.568V234.021H283.752V229.212Z" fill="white"/>
<path d="M351.223 229.212H290.721V234.021H351.223V229.212Z" fill="white"/>
</g>
<g opacity="0.5">
<path d="M278.872 276.252H163.889V281.061H278.872V276.252Z" fill="white"/>
<path d="M351.746 276.252H291.244V281.061H351.746V276.252Z" fill="white"/>
</g>
<g opacity="0.5">
<path d="M208.18 304.158H163.889V308.967H208.18V304.158Z" fill="white"/>
</g>
<g opacity="0.5">
<path d="M229.946 323.224H163.889V328.033H229.946V323.224Z" fill="white"/>
</g>
<g opacity="0.5">
<path d="M229.946 347.722H163.889V352.531H229.946V347.722Z" fill="white"/>
</g>
<g opacity="0.5">
<path d="M212.494 335.23H163.889V340.039H212.494V335.23Z" fill="white"/>
</g>
<path opacity="0.5" d="M186.7 262.292H163.578V267.101H186.7V262.292Z" fill="white"/>
<path opacity="0.5" d="M233.6 262.292H194.633V267.101H233.6V262.292Z" fill="white"/>
<path opacity="0.5" d="M351.745 262.292H240.529V267.101H351.745V262.292Z" fill="white"/>
<path d="M186.7 382.129H163.578V386.938H186.7V382.129Z" fill="#263238"/>
<path d="M233.6 382.129H194.633V386.938H233.6V382.129Z" fill="#263238"/>
<path d="M351.745 382.129H240.529V386.938H351.745V382.129Z" fill="#263238"/>
<path opacity="0.5" d="M186.7 382.129H163.578V386.938H186.7V382.129Z" fill="white"/>
<path opacity="0.5" d="M233.6 382.129H194.633V386.938H233.6V382.129Z" fill="white"/>
<path opacity="0.5" d="M351.745 382.129H240.529V386.938H351.745V382.129Z" fill="white"/>
<path opacity="0.5" d="M352.651 133.393H303.883V138.202H352.651V133.393Z" fill="white"/>
<path opacity="0.5" d="M352.651 145.161H303.883V149.97H352.651V145.161Z" fill="white"/>
<path opacity="0.5" d="M333.728 157.339H303.883V162.148H333.728V157.339Z" fill="white"/>
<path d="M429.214 384.358H362.758V398.008H429.214V384.358Z" fill="#976EFF"/>
<path opacity="0.1" d="M429.214 384.358H362.758V398.008H429.214V384.358Z" fill="black"/>
<path d="M371.229 384.944C371.229 389.104 371.229 393.264 371.229 397.423" stroke="#263238" stroke-width="0.5" stroke-miterlimit="10" stroke-linecap="round" stroke-linejoin="round"/>
<path d="M381.373 384.944C381.373 389.104 381.373 393.264 381.373 397.423" stroke="#263238" stroke-width="0.5" stroke-miterlimit="10" stroke-linecap="round" stroke-linejoin="round"/>
<path d="M391.52 384.944C391.52 389.104 391.52 393.264 391.52 397.423" stroke="#263238" stroke-width="0.5" stroke-miterlimit="10" stroke-linecap="round" stroke-linejoin="round"/>
<path d="M401.664 384.944C401.664 389.104 401.664 393.264 401.664 397.423" stroke="#263238" stroke-width="0.5" stroke-miterlimit="10" stroke-linecap="round" stroke-linejoin="round"/>
<path d="M411.811 384.944C411.811 389.104 411.811 393.264 411.811 397.423" stroke="#263238" stroke-width="0.5" stroke-miterlimit="10" stroke-linecap="round" stroke-linejoin="round"/>
<path d="M421.955 384.944C421.955 389.104 421.955 393.264 421.955 397.423" stroke="#263238" stroke-width="0.5" stroke-miterlimit="10" stroke-linecap="round" stroke-linejoin="round"/>
<path d="M423.534 398.009H357.078V411.659H423.534V398.009Z" fill="#976EFF"/>
<path opacity="0.3" d="M423.534 398.009H357.078V411.659H423.534V398.009Z" fill="black"/>
<path d="M365.549 398.594C365.549 402.754 365.549 406.914 365.549 411.073" stroke="#263238" stroke-width="0.5" stroke-miterlimit="10" stroke-linecap="round" stroke-linejoin="round"/>
<path d="M375.693 398.594C375.693 402.754 375.693 406.914 375.693 411.073" stroke="#263238" stroke-width="0.5" stroke-miterlimit="10" stroke-linecap="round" stroke-linejoin="round"/>
<path d="M385.84 398.594C385.84 402.754 385.84 406.914 385.84 411.073" stroke="#263238" stroke-width="0.5" stroke-miterlimit="10" stroke-linecap="round" stroke-linejoin="round"/>
<path d="M395.984 398.594C395.984 402.754 395.984 406.914 395.984 411.073" stroke="#263238" stroke-width="0.5" stroke-miterlimit="10" stroke-linecap="round" stroke-linejoin="round"/>
<path d="M406.131 398.594C406.131 402.754 406.131 406.914 406.131 411.073" stroke="#263238" stroke-width="0.5" stroke-miterlimit="10" stroke-linecap="round" stroke-linejoin="round"/>
<path d="M416.275 398.594C416.275 402.754 416.275 406.914 416.275 411.073" stroke="#263238" stroke-width="0.5" stroke-miterlimit="10" stroke-linecap="round" stroke-linejoin="round"/>
<path d="M423.534 425.479H357.078V439.13H423.534V425.479Z" fill="#976EFF"/>
<path opacity="0.3" d="M423.534 425.479H357.078V439.13H423.534V425.479Z" fill="black"/>
<path d="M365.549 426.065C365.549 430.225 365.549 434.384 365.549 438.544" stroke="#263238" stroke-width="0.5" stroke-miterlimit="10" stroke-linecap="round" stroke-linejoin="round"/>
<path d="M375.693 426.065C375.693 430.225 375.693 434.384 375.693 438.544" stroke="#263238" stroke-width="0.5" stroke-miterlimit="10" stroke-linecap="round" stroke-linejoin="round"/>
<path d="M385.84 426.065C385.84 430.225 385.84 434.384 385.84 438.544" stroke="#263238" stroke-width="0.5" stroke-miterlimit="10" stroke-linecap="round" stroke-linejoin="round"/>
<path d="M395.984 426.065C395.984 430.225 395.984 434.384 395.984 438.544" stroke="#263238" stroke-width="0.5" stroke-miterlimit="10" stroke-linecap="round" stroke-linejoin="round"/>
<path d="M406.131 426.065C406.131 430.225 406.131 434.384 406.131 438.544" stroke="#263238" stroke-width="0.5" stroke-miterlimit="10" stroke-linecap="round" stroke-linejoin="round"/>
<path d="M416.275 426.065C416.275 430.225 416.275 434.384 416.275 438.544" stroke="#263238" stroke-width="0.5" stroke-miterlimit="10" stroke-linecap="round" stroke-linejoin="round"/>
<path d="M423.534 452.907H357.078V466.558H423.534V452.907Z" fill="#976EFF"/>
<path opacity="0.3" d="M423.534 452.907H357.078V466.558H423.534V452.907Z" fill="black"/>
<path d="M365.549 453.492C365.549 457.652 365.549 461.812 365.549 465.971" stroke="#263238" stroke-width="0.5" stroke-miterlimit="10" stroke-linecap="round" stroke-linejoin="round"/>
<path d="M375.693 453.492C375.693 457.652 375.693 461.812 375.693 465.971" stroke="#263238" stroke-width="0.5" stroke-miterlimit="10" stroke-linecap="round" stroke-linejoin="round"/>
<path d="M385.84 453.492C385.84 457.652 385.84 461.812 385.84 465.971" stroke="#263238" stroke-width="0.5" stroke-miterlimit="10" stroke-linecap="round" stroke-linejoin="round"/>
<path d="M395.984 453.492C395.984 457.652 395.984 461.812 395.984 465.971" stroke="#263238" stroke-width="0.5" stroke-miterlimit="10" stroke-linecap="round" stroke-linejoin="round"/>
<path d="M406.131 453.492C406.131 457.652 406.131 461.812 406.131 465.971" stroke="#263238" stroke-width="0.5" stroke-miterlimit="10" stroke-linecap="round" stroke-linejoin="round"/>
<path d="M416.275 453.492C416.275 457.652 416.275 461.812 416.275 465.971" stroke="#263238" stroke-width="0.5" stroke-miterlimit="10" stroke-linecap="round" stroke-linejoin="round"/>
<path d="M417.179 411.744H350.723V425.394H417.179V411.744Z" fill="#976EFF"/>
<path opacity="0.1" d="M417.179 411.744H350.723V425.394H417.179V411.744Z" fill="black"/>
<path d="M359.193 412.329C359.193 416.489 359.193 420.649 359.193 424.808" stroke="#263238" stroke-width="0.5" stroke-miterlimit="10" stroke-linecap="round" stroke-linejoin="round"/>
<path d="M369.34 412.329C369.34 416.489 369.34 420.649 369.34 424.808" stroke="#263238" stroke-width="0.5" stroke-miterlimit="10" stroke-linecap="round" stroke-linejoin="round"/>
<path d="M379.484 412.329C379.484 416.489 379.484 420.649 379.484 424.808" stroke="#263238" stroke-width="0.5" stroke-miterlimit="10" stroke-linecap="round" stroke-linejoin="round"/>
<path d="M389.631 412.329C389.631 416.489 389.631 420.649 389.631 424.808" stroke="#263238" stroke-width="0.5" stroke-miterlimit="10" stroke-linecap="round" stroke-linejoin="round"/>
<path d="M399.775 412.329C399.775 416.489 399.775 420.649 399.775 424.808" stroke="#263238" stroke-width="0.5" stroke-miterlimit="10" stroke-linecap="round" stroke-linejoin="round"/>
<path d="M409.922 412.329C409.922 416.489 409.922 420.649 409.922 424.808" stroke="#263238" stroke-width="0.5" stroke-miterlimit="10" stroke-linecap="round" stroke-linejoin="round"/>
<path d="M417.179 439.064H350.723V452.714H417.179V439.064Z" fill="#976EFF"/>
<path opacity="0.1" d="M417.179 439.064H350.723V452.714H417.179V439.064Z" fill="black"/>
<path d="M359.193 439.649C359.193 443.809 359.193 447.969 359.193 452.128" stroke="#263238" stroke-width="0.5" stroke-miterlimit="10" stroke-linecap="round" stroke-linejoin="round"/>
<path d="M369.34 439.649C369.34 443.809 369.34 447.969 369.34 452.128" stroke="#263238" stroke-width="0.5" stroke-miterlimit="10" stroke-linecap="round" stroke-linejoin="round"/>
<path d="M379.484 439.649C379.484 443.809 379.484 447.969 379.484 452.128" stroke="#263238" stroke-width="0.5" stroke-miterlimit="10" stroke-linecap="round" stroke-linejoin="round"/>
<path d="M389.631 439.649C389.631 443.809 389.631 447.969 389.631 452.128" stroke="#263238" stroke-width="0.5" stroke-miterlimit="10" stroke-linecap="round" stroke-linejoin="round"/>
<path d="M399.775 439.649C399.775 443.809 399.775 447.969 399.775 452.128" stroke="#263238" stroke-width="0.5" stroke-miterlimit="10" stroke-linecap="round" stroke-linejoin="round"/>
<path d="M409.922 439.649C409.922 443.809 409.922 447.969 409.922 452.128" stroke="#263238" stroke-width="0.5" stroke-miterlimit="10" stroke-linecap="round" stroke-linejoin="round"/>
<path opacity="0.3" d="M357.078 407.502C357.078 407.502 377.419 414.045 378.509 437.161C379.599 460.278 369.339 466.557 369.339 466.557L361.863 467.474L357.078 407.502Z" fill="black"/>
<path d="M340.468 476.689C360.171 476.689 376.143 460.717 376.143 441.014C376.143 421.311 360.171 405.339 340.468 405.339C320.765 405.339 304.793 421.311 304.793 441.014C304.793 460.717 320.765 476.689 340.468 476.689Z" fill="#987951"/>
<path d="M340.466 469.027C355.937 469.027 368.479 456.485 368.479 441.014C368.479 425.543 355.937 413.001 340.466 413.001C324.995 413.001 312.453 425.543 312.453 441.014C312.453 456.485 324.995 469.027 340.466 469.027Z" fill="#976EFF"/>
<g opacity="0.3">
<path opacity="0.3" d="M340.466 415.997C355.435 415.997 367.659 427.737 368.438 442.512C368.464 442.016 368.479 441.517 368.479 441.014C368.479 425.543 355.937 413.001 340.466 413.001C324.995 413.001 312.453 425.543 312.453 441.014C312.453 441.517 312.467 442.016 312.494 442.512C313.273 427.738 325.498 415.997 340.466 415.997Z" fill="black"/>
</g>
<path d="M349.357 453.057C347.756 454.577 345.438 455.497 342.4 455.82V460.338H339.092V455.861C337.103 455.726 335.221 455.364 333.446 454.772C331.672 454.18 330.259 453.427 329.211 452.513L331.026 448.44C332.02 449.247 333.23 449.925 334.656 450.476C336.081 451.028 337.559 451.371 339.092 451.504V443.439C337.183 442.982 335.59 442.478 334.314 441.926C333.037 441.375 331.967 440.569 331.107 439.506C330.247 438.444 329.817 437.04 329.817 435.292C329.817 433.114 330.61 431.259 332.196 429.727C333.783 428.194 336.082 427.281 339.093 426.984V422.427H342.401V426.904C343.906 426.984 345.379 427.24 346.817 427.67C348.255 428.101 349.512 428.665 350.587 429.364L348.934 433.437C346.891 432.254 344.712 431.528 342.401 431.259V439.406C344.336 439.864 345.943 440.361 347.22 440.898C348.496 441.436 349.573 442.236 350.447 443.297C351.32 444.36 351.758 445.765 351.758 447.512C351.757 449.69 350.957 451.538 349.357 453.057ZM336.068 437.188C336.767 437.726 337.775 438.183 339.092 438.559V431.38C337.721 431.595 336.699 432.025 336.027 432.67C335.354 433.316 335.018 434.11 335.018 435.05C335.02 435.936 335.369 436.649 336.068 437.188ZM345.566 450.174C346.252 449.556 346.594 448.789 346.594 447.875C346.594 446.961 346.231 446.228 345.505 445.677C344.778 445.126 343.743 444.662 342.4 444.285V451.424C343.825 451.209 344.881 450.792 345.566 450.174Z" fill="white"/>
<path d="M145.43 440.576L153.688 462.864L161.173 460.445L158.591 436.92L145.43 440.576Z" fill="#FECA87"/>
<path d="M165.872 455.551C165.995 454.108 165.9 452.906 164.352 452.819L162.16 452.695C161.331 452.695 160.739 453.248 160.075 453.71C155.051 457.205 152.989 452.693 151.039 452.695C148.534 452.693 150.146 460.701 150.027 461.121L147.289 470.414C147.051 471.19 147.533 472.865 148.364 473.087C148.512 473.126 148.665 473.145 148.819 473.143C153.267 473.143 155.371 473.143 160.906 473.143H177.836C182.451 473.143 182.504 467.493 180.603 467.091C172.055 465.328 168.682 462.532 165.866 460.487C165.866 460.487 165.684 457.768 165.872 455.551Z" fill="#F97300"/>
<path opacity="0.4" d="M177.836 473.143H160.906C155.371 473.143 153.266 473.143 148.819 473.143C148.665 473.145 148.512 473.126 148.364 473.087C147.799 472.936 147.403 472.117 147.277 471.363L147.289 470.656H181.542C181.086 471.969 179.938 473.143 177.836 473.143Z" fill="white"/>
<path d="M169.867 463.353C169.123 464.038 168.503 464.863 168.055 465.77C167.968 465.946 168.002 466.184 168.19 466.283C168.359 466.373 168.61 466.336 168.703 466.149C169.139 465.268 169.679 464.546 170.398 463.884C170.543 463.751 170.543 463.487 170.398 463.354C170.242 463.21 170.021 463.21 169.867 463.353Z" fill="#263238"/>
<path d="M167.2 461.733C166.516 462.386 165.933 463.147 165.483 463.978C165.389 464.15 165.435 464.394 165.617 464.491C165.792 464.583 166.03 464.541 166.13 464.356C166.345 463.96 166.59 463.58 166.862 463.221C166.873 463.207 166.897 463.177 166.872 463.208C166.888 463.188 166.903 463.169 166.919 463.149C166.954 463.105 166.99 463.061 167.026 463.018C167.098 462.931 167.172 462.846 167.247 462.762C167.402 462.589 167.563 462.423 167.731 462.263C167.873 462.127 167.878 461.867 167.731 461.733C167.578 461.593 167.352 461.588 167.2 461.733Z" fill="#263238"/>
<path d="M165.38 460.266C164.689 460.644 164.111 461.246 163.771 461.958C163.687 462.135 163.716 462.371 163.906 462.471C164.073 462.559 164.329 462.526 164.419 462.337C164.496 462.175 164.586 462.019 164.687 461.87C164.71 461.836 164.734 461.803 164.758 461.77C164.765 461.76 164.773 461.75 164.78 461.741C164.797 461.719 164.79 461.728 164.759 461.768C164.764 461.752 164.787 461.733 164.797 461.72C164.854 461.65 164.913 461.583 164.975 461.517C165.097 461.388 165.231 461.279 165.364 461.163C165.335 461.188 165.313 461.202 165.356 461.17C165.372 461.158 165.389 461.146 165.405 461.134C165.445 461.106 165.485 461.078 165.527 461.051C165.602 461.002 165.68 460.956 165.758 460.913C165.93 460.819 166 460.567 165.892 460.4C165.78 460.226 165.564 460.165 165.38 460.266Z" fill="#263238"/>
<path d="M165.567 457.263C164.756 457.273 163.948 457.433 163.199 457.744C163.019 457.819 162.869 457.996 162.937 458.205C162.993 458.379 163.204 458.547 163.398 458.467C164.116 458.169 164.819 458.023 165.567 458.013C165.763 458.01 165.951 457.842 165.942 457.638C165.933 457.437 165.777 457.261 165.567 457.263Z" fill="#263238"/>
<g opacity="0.3">
<path d="M156.996 458.054C156.951 458.884 156.659 459.795 155.922 460.181C155.465 460.42 154.924 460.41 154.409 460.395C152.869 460.35 151.329 460.306 149.79 460.261L149.771 460.217C149.528 458.03 148.875 452.693 150.784 452.695C152.286 452.693 153.864 455.757 157.005 454.863C156.98 456.02 157.026 457.495 156.996 458.054Z" fill="black"/>
</g>
<path d="M91.5356 436.606L88.2296 460.861L80.3256 461.26L77.7656 437.878L91.5356 436.606Z" fill="#FECA87"/>
<path d="M73.5943 472.122H91.2753C91.2753 472.122 91.6613 471.379 91.2203 469.402C91.1533 469.094 91.0653 468.755 90.9513 468.386C90.9453 468.368 90.9413 468.349 90.9353 468.331C90.7703 467.784 90.5803 467.111 90.3783 466.384C89.5683 463.424 89.0173 456.614 89.0173 456.614C89.0173 456.614 85.6743 453.258 82.2323 454.831C79.2133 456.21 79.6823 457.959 79.6823 457.959C79.6823 457.959 79.6333 462.475 77.3443 464.519C75.9283 465.782 74.5213 466.759 73.8433 468.33C73.7163 468.624 73.6163 468.936 73.5453 469.274C73.5373 469.315 73.5283 469.358 73.5233 469.4C73.3823 470.159 73.3903 471.047 73.5943 472.122Z" fill="#F97300"/>
<g opacity="0.4">
<path d="M91.2203 469.402C91.6613 471.379 91.2753 472.122 91.2753 472.122H73.5943C73.3903 471.047 73.3823 470.159 73.5233 469.402H91.2203Z" fill="white"/>
</g>
<path d="M80.6417 461.15C81.6357 460.375 82.9407 460.476 83.8357 461.348C84.0767 461.583 84.4457 461.214 84.2047 460.979C83.0887 459.89 81.4947 459.829 80.2727 460.781C80.0077 460.987 80.3797 461.354 80.6417 461.15Z" fill="#263238"/>
<path d="M80.1413 462.802C81.1363 462.027 82.4403 462.128 83.3353 463C83.5753 463.235 83.9453 462.866 83.7043 462.631C82.5883 461.542 80.9943 461.481 79.7723 462.433C79.5083 462.639 79.8793 463.006 80.1413 462.802Z" fill="#263238"/>
<path d="M79.6398 464.32C80.6338 463.545 81.9388 463.646 82.8338 464.518C83.0738 464.753 83.4437 464.384 83.2027 464.149C82.0857 463.06 80.4927 462.999 79.2707 463.951C79.0057 464.157 79.3778 464.524 79.6398 464.32Z" fill="#263238"/>
<path d="M73.2657 273.495L111.434 273.836L134.666 273.093C134.666 273.093 150.986 347.24 152.37 361.204C153.754 375.168 165.653 448.695 165.653 448.695L147.587 452.877C147.587 452.877 127.048 374.261 125.566 366.706C124.275 360.121 110.002 317.908 106.357 307.174C105.99 309.372 105.614 311.58 105.231 313.77C104.309 323.667 101.352 355.221 100.066 366.963C100.066 366.963 97.2697 434.038 94.0237 453.516L77.0227 453.547C74.7787 425.896 73.3387 328.768 73.3387 328.768L73.3417 328.766C72.0827 307.671 73.2657 273.495 73.2657 273.495Z" fill="#263238"/>
<g opacity="0.5">
<path d="M125.137 284.18C127.296 291.66 133.068 297.669 140.189 299.853C140.573 299.971 140.41 300.605 140.023 300.486C132.692 298.236 126.759 292.054 124.536 284.354C124.42 283.95 125.021 283.777 125.137 284.18Z" fill="black"/>
<path d="M105.75 284.179C106.17 290.723 106.581 297.278 107.002 303.822C107.022 304.244 107.643 304.244 107.623 303.822C107.403 300.466 107.192 297.098 106.982 293.731C108.514 294.977 110.306 293.467 110.807 291.799C111.628 289.097 111.318 285.888 110.677 283.186C110.577 282.774 109.976 282.954 110.076 283.355C110.526 285.255 110.717 287.197 110.587 289.15C110.527 290.142 110.437 291.282 109.996 292.19C109.506 293.203 108.264 294.058 107.273 293.14C107.163 293.045 107.043 293.034 106.943 293.087C106.753 290.121 106.563 287.145 106.372 284.178C106.35 283.757 105.73 283.757 105.75 284.179Z" fill="black"/>
<path d="M87.4947 285.294C87.5827 293.969 81.2477 301.235 73.0557 301.916C72.6627 301.949 72.6647 301.303 73.0557 301.271C80.9167 300.617 86.9667 293.596 86.8827 285.294C86.8777 284.879 87.4907 284.878 87.4947 285.294Z" fill="black"/>
<path d="M83.477 369.922C80.926 370.914 78.188 370.93 75.627 369.968C75.259 369.83 75.417 369.206 75.79 369.346C78.259 370.273 80.856 370.257 83.315 369.3C83.684 369.155 83.844 369.779 83.477 369.922Z" fill="black"/>
</g>
<path d="M137.725 171.988C141.051 170.373 144.392 168.818 147.574 167.035C139.505 161.867 126.837 155.86 119.707 151.837L122.374 144.912C129.272 146.753 136.005 148.869 142.703 151.404C147.86 153.385 152.976 155.437 157.886 158.299C160.581 159.95 163.336 161.791 164.521 165.177C166.269 170.514 162.421 173.728 158.662 176.526C148.166 184.079 136.589 189.359 124.694 194.179L119.088 180.284C125.265 177.627 131.62 174.831 137.725 171.988Z" fill="#FECA87"/>
<path d="M125.152 147.892L123.206 139.526C122.991 138.603 122.449 137.788 121.681 137.232L112.111 130.315C112.111 130.315 111.222 131.512 112.111 132.794L109.741 131.854C109.741 131.854 108.951 133.393 110.531 134.589C112.111 135.786 114.579 138.521 114.579 138.521L109.149 135.957C109.149 135.957 107.767 136.47 109.149 138.18C110.531 139.89 114.876 142.198 114.876 142.198C114.876 142.198 115.613 151.037 117.192 152.576C118.772 154.115 124.119 153.649 124.119 153.649L125.152 147.892Z" fill="#FECA87"/>
<path opacity="0.2" d="M143.499 169.036L150.114 182.074L148.465 183.037L142.24 169.776L143.499 169.036Z" fill="black"/>
<path d="M135.988 273.328L128.625 226.636L123.389 178.447L104.829 178.273L90.5437 177.92L75.1927 178.731L66.2227 203.105C66.2227 203.105 71.2967 237.181 71.4507 238.951C71.6397 241.12 72.7617 274.914 72.7617 274.914C91.1767 285.974 136.677 275.169 135.988 273.328Z" fill="#F97300"/>
<path d="M126.143 203.789C130.652 201.274 142.225 193.083 146.834 190.512C151.073 188.149 151.073 188.149 151.073 188.149L141.522 167.802C141.522 167.802 130.092 172.361 119.46 177.408C119.46 177.408 118.592 176.976 118.057 177.007C117.522 177.039 115.662 179.937 115.662 179.937L126.143 203.789Z" fill="#F97300"/>
<path opacity="0.2" d="M66.2227 203.104L73.5847 194.694C73.5847 194.694 74.4977 203.576 66.9707 208.134L66.2227 203.104Z" fill="black"/>
<path opacity="0.2" d="M116.031 238.95C109.433 249.092 99.5034 257.027 88.1562 261.225" stroke="black" stroke-width="0.5" stroke-miterlimit="10" stroke-linecap="round" stroke-linejoin="round"/>
<path opacity="0.2" d="M126.144 203.789L125.018 186.951L129.683 201.641L126.144 203.789Z" fill="black"/>
<path d="M88.4008 178.266C88.4008 178.266 89.3128 171.726 85.4838 160.39C85.4838 160.378 86.0768 160.083 86.0768 160.071C85.5488 158.485 84.9948 157.023 84.4788 155.757C84.4668 155.72 84.4668 155.708 84.4668 155.708L100.594 164.73C100.385 168.418 102.012 175.455 102.928 178.417C102.928 178.417 106.342 184.931 99.1348 185.482C93.8688 185.884 88.4008 178.266 88.4008 178.266Z" fill="#FECA87"/>
<path opacity="0.2" d="M101.088 169.88L91.9609 168.236C92.9039 171.011 95.5359 174.235 101.838 174.233C101.838 174.233 101.073 171.114 101.088 169.88Z" fill="black"/>
<path d="M110.267 137.122C112.274 140.675 113.277 148.637 107.418 147.223C101.559 145.81 106.818 131.015 110.267 137.122Z" fill="#263238"/>
<path d="M84.0125 148.083C85.5055 157.994 86.1465 163.613 91.6375 168.236C99.8955 175.19 111.534 169.675 113.037 159.489C114.389 150.32 111.721 135.653 101.606 132.645C91.6405 129.681 82.5205 138.173 84.0125 148.083Z" fill="#FECA87"/>
<path d="M80.901 135.077C81.784 129.465 88.62 125.81 92.712 128.276C93.323 128.644 89.113 130.521 89.592 130.297L90.003 138.418C89.4 138.339 88.3 139.133 87.861 141.022C87.861 141.022 90.257 151.443 86.319 156.248C75.102 152.227 73.712 138.041 80.901 135.077Z" fill="#263238"/>
<path d="M80.8119 156.737C81.8349 159.232 83.9189 161.01 85.9829 161.818C89.0869 163.032 91.0009 160.324 90.4419 157.209C89.9389 154.406 87.7169 150.396 84.4559 150.513C81.2429 150.628 79.6419 153.885 80.8119 156.737Z" fill="#FECA87"/>
<path d="M98.5306 149.7C98.6206 150.72 99.2346 151.493 99.9016 151.428C100.569 151.363 101.037 150.483 100.947 149.463C100.857 148.443 100.243 147.67 99.5766 147.735C98.9076 147.8 98.4406 148.68 98.5306 149.7Z" fill="#263238"/>
<path d="M108.548 149.016C108.638 150.036 109.251 150.809 109.918 150.744C110.585 150.679 111.053 149.799 110.963 148.779C110.873 147.759 110.259 146.986 109.593 147.051C108.925 147.116 108.458 147.996 108.548 149.016Z" fill="#263238"/>
<path d="M105.244 148.738C105.244 148.738 108.92 153.52 110.136 155.491C108.83 156.898 106.333 156.523 106.333 156.523L105.244 148.738Z" fill="#FECA87"/>
<path d="M99.6137 143.68C99.4467 143.669 99.2787 143.745 99.1787 143.896C97.9897 145.682 96.2247 145.699 96.2077 145.699C95.9437 145.699 95.7257 145.912 95.7227 146.177C95.7197 146.441 95.9327 146.656 96.1957 146.657C96.2887 146.658 98.5007 146.637 99.9757 144.421C100.123 144.2 100.064 143.903 99.8447 143.758C99.7717 143.71 99.6927 143.685 99.6137 143.68Z" fill="#263238"/>
<path d="M108.727 142.121C108.637 142.131 108.548 142.167 108.472 142.23C108.268 142.4 108.238 142.703 108.406 142.906C110.087 144.945 112.275 144.69 112.375 144.692C112.637 144.66 112.827 144.421 112.798 144.158C112.769 143.896 112.535 143.709 112.274 143.738C112.183 143.752 110.495 143.927 109.146 142.29C109.04 142.162 108.881 142.104 108.727 142.121Z" fill="#263238"/>
<path d="M117.155 132.223C116.672 129.671 113.916 127.661 111.408 128.334C112.217 126.671 111.49 124.43 109.86 123.558C108.229 122.686 105.962 123.326 105.028 124.921C104.936 123.372 103.278 122.23 101.731 122.352C100.184 122.473 98.8519 123.587 98.0679 124.926C97.5869 125.747 97.2379 126.701 96.4679 127.26C95.2609 128.135 93.6029 127.684 92.1159 127.572C89.6179 127.383 87.0549 128.333 85.2849 130.105C83.5139 131.878 82.5669 134.441 82.7589 136.939C81.3779 137.314 80.6939 138.427 79.7969 139.542L87.4369 140.764C89.5789 136.764 95.3599 139.858 98.2529 140.958C100.332 141.748 102.385 141.807 103.964 141.748C105.544 141.689 106.261 140.532 106.282 138.951C108.704 139.887 111.546 139.948 113.824 138.703C116.101 137.457 117.637 134.774 117.155 132.223Z" fill="#263238"/>
<path d="M81.3564 135.294C79.7994 134.229 78.0024 133.584 76.6094 133.56" stroke="#263238" stroke-width="0.5" stroke-miterlimit="10" stroke-linecap="round" stroke-linejoin="round"/>
<path d="M81.1674 135.187C80.0774 133.566 79.6134 131.535 79.8914 129.602" stroke="#263238" stroke-width="0.5" stroke-miterlimit="10" stroke-linecap="round" stroke-linejoin="round"/>
<path d="M105.407 162.939C105.778 161.748 105.734 160.396 104.969 159.41C104.204 158.425 102.935 157.879 101.688 157.914C100.441 157.949 99.2371 158.537 98.3731 159.436C97.9431 159.884 97.5761 160.457 97.6051 161.078C97.6391 161.792 98.2031 162.393 98.8561 162.682C99.5091 162.971 100.242 163.006 100.956 163.029C101.67 163.052 102.401 163.07 103.067 163.329C103.386 163.453 103.693 163.633 104.035 163.653C104.035 163.655 105.158 163.737 105.407 162.939Z" fill="#263238"/>
<path d="M99.4043 158.61C99.7033 158.675 104.369 159.677 104.593 159.596C104.786 159.526 104.755 159.229 104.739 159.128C104.616 158.996 104.497 158.86 104.355 158.748C104.319 158.719 104.276 158.688 104.234 158.658C103.506 158.124 102.593 157.835 101.687 157.86C100.872 157.883 100.101 158.181 99.4043 158.61Z" fill="white"/>
<path d="M102.617 161.789C100.867 160.958 97.7869 161.631 97.7539 161.638C97.9659 162.098 98.3849 162.474 98.8579 162.683C99.5109 162.972 100.244 163.007 100.958 163.03C101.672 163.053 102.403 163.071 103.069 163.33C103.388 163.454 103.696 163.634 104.037 163.654C104.037 163.654 104.307 163.673 104.611 163.599C104.387 163.165 103.841 162.37 102.617 161.789Z" fill="#DE5753"/>
<path opacity="0.2" d="M82.8457 153.781C83.1947 153.151 83.9937 152.86 84.7057 152.969C85.4177 153.079 86.0407 153.526 86.5167 154.067C87.0887 154.716 87.4867 155.516 87.6587 156.364" stroke="black" stroke-width="0.5" stroke-miterlimit="10" stroke-linecap="round" stroke-linejoin="round"/>
<path d="M33.5111 175.773C33.6881 175.902 34.1951 176.29 34.3801 176.425C37.4731 178.734 40.4111 180.508 43.4051 182.223C52.2471 187.242 61.2821 191.513 70.6761 195.369L76.4931 181.561C68.5801 177.905 57.6201 173.354 48.7311 168.838C55.9541 164.013 65.7671 158.362 71.5441 154.639L68.4611 147.889C58.7851 150.997 49.4531 154.549 40.3631 159.238C36.3191 161.567 30.9401 163.865 30.5061 169.557C30.3081 171.7 31.6211 174.515 33.5111 175.773Z" fill="#FECA87"/>
<path opacity="0.2" d="M48.7204 168.842L42.9434 167.344L50.4314 167.719L48.7204 168.842Z" fill="black"/>
<path d="M68.0332 148.835L71.2232 138.226C71.4082 137.611 71.8002 137.074 72.3362 136.703L81.0742 130.649C81.0742 130.649 81.9632 131.887 81.0742 133.214L83.4442 132.241C83.4442 132.241 84.2342 133.833 82.6542 135.071C81.0742 136.309 78.6062 139.14 78.6062 139.14L84.0362 136.487C84.0362 136.487 85.4182 137.018 84.0362 138.787C82.6542 140.556 78.3102 142.944 78.3102 142.944C78.3102 142.944 77.3272 151.209 75.7472 152.801C74.1672 154.393 69.0672 154.792 69.0672 154.792L68.0332 148.835Z" fill="#FECA87"/>
<path d="M66.2222 203.104L42.8262 191.072L53.2132 170.799C53.0092 170.707 68.0332 174.776 79.5802 179.213C87.0112 182.069 75.7852 200.054 66.2222 203.104Z" fill="#F97300"/>
<path d="M377.041 121.488L326.556 202.943C322.707 209.154 327.173 217.178 334.481 217.178H439.374C446.824 217.178 451.265 208.871 447.127 202.676L392.718 121.221C388.951 115.581 380.614 115.723 377.041 121.488Z" fill="#976EFF"/>
<path opacity="0.4" d="M377.041 121.488L326.556 202.943C322.707 209.154 327.173 217.178 334.481 217.178H439.374C446.824 217.178 451.265 208.871 447.127 202.676L392.718 121.221C388.951 115.581 380.614 115.723 377.041 121.488Z" fill="black"/>
<path d="M382.216 127.346L335.118 203.335C333.718 205.594 335.342 208.512 338 208.512H435.855C438.564 208.512 440.179 205.491 438.674 203.238L387.916 127.248C386.548 125.198 383.516 125.25 382.216 127.346Z" fill="#976EFF"/>
<path opacity="0.3" d="M402.538 149.139L351.749 176.502L338.055 198.598L410.886 161.637L402.538 149.139Z" fill="white"/>
<path d="M381.502 197.502C380.418 196.443 379.877 195.135 379.877 193.581C379.877 192.026 380.418 190.731 381.502 189.695C382.585 188.659 383.95 188.141 385.6 188.141C387.202 188.141 388.533 188.66 389.592 189.695C390.652 190.732 391.182 192.027 391.182 193.581C391.182 195.135 390.653 196.443 389.592 197.502C388.532 198.562 387.201 199.092 385.6 199.092C383.95 199.092 382.585 198.563 381.502 197.502ZM380.371 149.138H390.828L389.062 182.205H382.067L380.371 149.138Z" fill="white"/>
<path d="M167.639 114.955C175.023 102.958 171.284 87.2467 159.288 79.8622C147.291 72.4777 131.579 76.2166 124.195 88.2132C116.811 100.21 120.549 115.921 132.546 123.306C144.543 130.69 160.254 126.951 167.639 114.955Z" fill="#976EFF"/>
<path d="M135.814 118.831L137.543 125.166L130.212 129.024L129.365 120.919L135.814 118.831Z" fill="#976EFF"/>
<path d="M145.215 114.011C144.29 114.011 143.517 113.712 142.896 113.114C142.275 112.516 141.965 111.788 141.965 110.93C141.965 110.072 142.27 109.355 142.879 108.78C143.488 108.204 144.267 107.917 145.216 107.917C146.164 107.917 146.943 108.205 147.552 108.78C148.162 109.356 148.467 110.072 148.467 110.93C148.467 111.788 148.157 112.516 147.536 113.114C146.914 113.712 146.141 114.011 145.215 114.011ZM147.314 105.511H143.115L142.066 90.0361H148.364L147.314 105.511Z" fill="white"/>
<path d="M129.354 76.1514C121.936 79.8594 116.637 87.5074 115.77 95.7554" stroke="#976EFF" stroke-width="0.5" stroke-miterlimit="10" stroke-linecap="round" stroke-linejoin="round"/>
<path d="M115.508 99.5508C115.283 100.796 115.318 102.087 115.611 103.317" stroke="#976EFF" stroke-width="0.5" stroke-miterlimit="10" stroke-linecap="round" stroke-linejoin="round"/>
<path d="M278.371 140.203L278.078 151.117H275.94L275.648 140.203H278.371ZM277.088 156C276.623 156 276.233 155.842 275.918 155.527C275.603 155.212 275.445 154.822 275.445 154.357C275.445 153.892 275.603 153.502 275.918 153.187C276.233 152.872 276.623 152.714 277.088 152.714C277.538 152.714 277.921 152.872 278.236 153.187C278.551 153.502 278.708 153.892 278.708 154.357C278.708 154.822 278.551 155.212 278.236 155.527C277.921 155.842 277.538 156 277.088 156Z" fill="black"/>
<path d="M271.334 155.842H268.768L261.05 144.163V155.842H258.484V140.18H261.05L268.768 151.837V140.18H271.334V155.842Z" fill="black"/>
<path d="M251.773 152.647H245.225L244.1 155.842H241.422L247.025 140.18H249.996L255.599 155.842H252.899L251.773 152.647ZM251.053 150.554L248.51 143.286L245.945 150.554H251.053Z" fill="black"/>
<path d="M234.458 153.772H239.746V155.842H231.893V140.203H234.458V153.772Z" fill="black"/>
<path d="M228.997 144.861C228.997 145.656 228.81 146.406 228.435 147.111C228.06 147.816 227.459 148.394 226.634 148.844C225.809 149.279 224.752 149.497 223.461 149.497H220.626V155.842H218.061V140.203H223.461C224.662 140.203 225.674 140.413 226.499 140.833C227.339 141.238 227.962 141.793 228.367 142.498C228.787 143.203 228.997 143.991 228.997 144.861ZM223.461 147.404C224.436 147.404 225.164 147.186 225.644 146.751C226.124 146.301 226.364 145.671 226.364 144.861C226.364 143.151 225.397 142.295 223.461 142.295H220.626V147.404H223.461Z" fill="black"/>
<path d="M200.801 156C199.346 156 198.003 155.662 196.773 154.987C195.558 154.297 194.59 153.344 193.87 152.129C193.165 150.899 192.812 149.519 192.812 147.989C192.812 146.458 193.165 145.086 193.87 143.871C194.59 142.655 195.558 141.71 196.773 141.035C198.003 140.345 199.346 140 200.801 140C202.271 140 203.614 140.345 204.829 141.035C206.059 141.71 207.027 142.655 207.732 143.871C208.437 145.086 208.79 146.458 208.79 147.989C208.79 149.519 208.437 150.899 207.732 152.129C207.027 153.344 206.059 154.297 204.829 154.987C203.614 155.662 202.271 156 200.801 156ZM200.801 153.772C201.836 153.772 202.76 153.539 203.57 153.074C204.38 152.594 205.01 151.919 205.46 151.049C205.925 150.164 206.158 149.144 206.158 147.989C206.158 146.834 205.925 145.821 205.46 144.951C205.01 144.081 204.38 143.413 203.57 142.948C202.76 142.483 201.836 142.25 200.801 142.25C199.766 142.25 198.844 142.483 198.034 142.948C197.224 143.413 196.586 144.081 196.12 144.951C195.67 145.821 195.446 146.834 195.446 147.989C195.446 149.144 195.67 150.164 196.12 151.049C196.586 151.919 197.224 152.594 198.034 153.074C198.844 153.539 199.766 153.772 200.801 153.772Z" fill="black"/>
<path d="M189.849 155.842H187.284L179.565 144.163V155.842H177V140.18H179.565L187.284 151.837V140.18H189.849V155.842Z" fill="black"/>
</svg>
