<svg width="149" height="149" viewBox="0 0 149 149" fill="none" xmlns="http://www.w3.org/2000/svg">
<path d="M116.524 89.5335C118.648 90.8968 118.804 90.3753 116.331 93.5863C115.876 94.1748 116.286 94.1674 112.852 91.8132C111.429 90.8447 111.749 92.0739 113.269 88.4979C113.269 88.4309 113.269 88.4979 113.649 87.7529C114.602 88.2893 115.914 89.1237 116.524 89.5335Z" fill="white"/>
<path d="M141.75 105.469C142.252 105.824 142.616 106.344 142.777 106.938C142.939 107.532 142.889 108.163 142.636 108.725C142.239 109.57 141.697 110.339 141.034 110.997C138.314 112.837 138.963 112.852 131.841 107.331C118.193 96.7447 115.123 95.4111 115.838 95.2398C116.673 95.0535 117.328 94.1223 118.073 93.1985C118.677 92.5754 119.106 91.8046 119.318 90.9635C119.481 89.846 118.573 89.2425 130.344 97.9143C134.791 101.178 131.036 98.5625 141.75 105.469Z" fill="#976EFF"/>
<path d="M115.688 70.7525C117.506 80.2431 111.218 92.3568 99.9168 96.5362C95.3629 98.238 90.359 98.3039 85.7618 96.7225C83.7082 96.3259 81.7409 95.5692 79.9508 94.4875C78.5609 93.7103 77.2722 92.7645 76.1141 91.6714C71.0779 87.3504 68.2171 82.3812 68.083 75.7507C68.0159 72.726 67.9116 71.9587 68.1277 70.8412C68.4504 67.7548 69.385 64.7638 70.8767 62.0427C79.2878 47.1427 100.596 45.0642 112.27 61.3424C114.028 63.8456 115.107 67.7576 115.688 70.7525ZM93.3832 93.5488C104.141 92.9602 115.041 81.6288 110.839 68.3678C109.141 63.041 106.942 61.3201 105.162 59.6885C95.2755 50.6368 79.3183 54.3245 74.5056 64.4565C71.8832 69.977 72.0695 73.9255 72.9635 79.3565C73.108 80.027 73.3196 80.6811 73.5967 81.3084C73.945 82.2911 74.418 83.225 75.004 84.0873C78.3044 90.01 86.6186 93.9213 93.3832 93.5488Z" fill="#976EFF"/>
<path d="M111.95 92.9675C112.062 96.2231 112.651 120.533 112.516 121.889C112.516 122.127 112.412 122.254 112.174 122.291C107.257 123.118 106.772 122.827 103.331 123.036C103.07 123.036 62.7951 124.936 62.7728 124.928C57.4162 124.846 43.6412 126.418 43.6114 124.601C43.5667 121.978 43.5294 122.537 43.5294 121.904C43.5294 121.27 43.3283 121.524 45.7644 121.069C45.7644 121.069 54.3915 119.319 57.1108 119.184C59.681 119.058 58.0271 118.626 80.0195 115.377C84.4895 114.714 103.241 111.965 108.754 109.745C109.782 109.336 109.119 107.995 107.018 94.0105C106.966 93.6603 108.56 92.7589 109.872 91.3285C110.095 91.0826 110.177 91.2167 111.31 91.9915C111.764 92.297 111.928 92.2597 111.95 92.9675Z" fill="white"/>
<path d="M110.705 56.2996C110.705 57.3724 111.07 57.8939 109.781 56.5231C109.118 55.8228 109.14 56.0761 108.455 55.4131C107.3 54.3754 106.053 53.4453 104.73 52.6342C104.447 52.4405 104.409 52.3437 101.891 51.1889C100.997 50.7717 100.729 50.876 100.677 50.3992C100.677 50.28 99.7083 44.7 99.0006 39.3583C98.9261 38.7549 99.1347 39.8053 98.3003 34.0688C98.1215 32.8023 97.9725 32.7502 98.4046 32.698C99.008 32.6235 106.555 32.2212 107.531 32.2287C109.58 32.2436 110.176 29.6659 110.705 56.2996Z" fill="white"/>
<path d="M86.3055 22.2601C92.5337 27.274 97.6891 29.6207 95.6776 30.6414C95.5286 30.7159 89.7176 32.7721 88.3617 33.1371C87.3634 33.4053 85.7095 33.681 85.6573 32.638C85.599 30.1429 85.3775 27.6542 84.9943 25.188C84.9631 24.1399 84.866 23.0949 84.7037 22.059C84.4877 20.4423 84.3461 20.6882 86.3055 22.2601Z" fill="white"/>
<path d="M105.937 94.9494C106.474 99.3598 108.515 108.248 107.874 108.725C104.76 111.071 54.5992 117.888 46.434 119.765C44.9887 120.093 38.1422 120.756 37.8591 120.555C37.7771 120.488 37.7399 119.289 37.4866 118.417C37.2333 117.545 36.7788 113.753 36.7416 113.537C33.1954 95.5901 31.169 81.9715 29.5896 69.895C29.001 65.425 28.2411 63.0708 27.8388 59.1596C27.4663 55.591 27.0938 55.5761 26.8778 53.0729C26.1328 45.2281 24.166 40.0429 23.8978 31.6989C23.8382 29.747 23.2198 30.8123 37.941 28.0335C46.5979 26.4019 46.9928 27.0277 56.0967 25.4632C68.7617 23.2804 65.7817 23.9732 67.6144 23.6827C67.6144 23.6827 82.3505 20.7846 83.0359 20.6356C83.8703 20.4494 83.7809 24.1744 84.1012 26.8862C84.3485 28.8992 84.4908 30.9234 84.5259 32.9505C84.5598 33.2004 84.6439 33.4408 84.7732 33.6573C84.9026 33.8738 85.0744 34.0618 85.2784 34.2101C85.4823 34.3584 85.7142 34.4638 85.9601 34.5201C86.2059 34.5763 86.4605 34.5822 86.7087 34.5373C87.6702 34.4945 88.6197 34.3061 89.5248 33.9786C96.6097 31.8404 96.5427 31.2668 96.6544 31.7436C97.2057 34.0978 98.5319 45.3175 99.0683 48.2453C99.4333 50.2345 99.5823 50.2866 98.7851 50.0184C88.601 46.6361 74.9899 51.3073 69.6929 61.484C65.0367 70.424 65.8934 84.2735 73.485 90.9264C77.8134 94.7184 79.6685 96.5884 87.7666 98.5179C89.9822 98.877 92.2314 98.9873 94.4716 98.8457C103.464 97.8251 105.803 93.7872 105.937 94.9494ZM58.4732 45.2132C64.4854 43.2166 60.9168 41.4882 59.9632 41.9501C59.4641 42.1736 58.9724 42.3971 58.4732 42.6429C57.7729 43.0005 57.7282 42.3524 57.2663 42.2481C55.8285 41.9128 55.6944 42.0991 53.7127 43.2687C52.4089 44.0137 52.2897 44.4309 51.6863 43.8424C50.4272 42.628 48.8553 42.8143 47.3057 43.671C44.3257 45.31 45.3612 45.1089 43.1635 45.0865C41.9789 45.0865 40.9285 44.647 39.3193 45.6527C37.0843 47.0384 39.1181 45.4814 36.3393 45.2057C35.5123 45.1238 33.8063 46.2115 33.1954 46.6436C32.3312 47.2545 31.5266 47.8132 31.616 48.7966C31.6238 48.966 31.6817 49.1293 31.7824 49.2657C31.8831 49.4022 32.022 49.5057 32.1816 49.5631C32.3411 49.6205 32.5141 49.6293 32.6787 49.5884C32.8432 49.5474 32.9919 49.4586 33.106 49.333C33.9194 48.5482 34.8718 47.9216 35.9146 47.4854C36.6075 47.18 35.9966 48.5955 37.5983 48.8339C38.5743 48.9754 38.8425 48.5061 40.9508 47.4556C41.599 47.1353 42.1801 47.4556 43.5658 47.5599C46.5458 47.8579 48.7808 44.0212 50.4496 45.6006C52.8932 47.9548 55.8657 43.7902 56.4766 44.5948C56.7039 44.8926 57.0183 45.1121 57.3762 45.2229C57.734 45.3337 58.1174 45.3303 58.4732 45.2132ZM52.3419 36.8319C52.3419 36.0869 51.5075 36.005 51.3436 35.9379C50.7997 35.7219 50.3751 36.1242 49.9057 36.2732C48.6765 36.6606 48.6616 35.9752 46.8736 36.4669C44.2512 37.2119 44.2139 37.9569 43.6626 37.5099C43.3125 37.2268 43.2231 37.048 42.709 37.0256C42.4399 36.9482 42.1579 36.926 41.8801 36.9606C41.6022 36.9952 41.3342 37.0857 41.0924 37.2268C39.133 38.1804 38.8574 38.7987 37.9187 38.9701C37.725 38.9701 37.6579 38.8136 37.5387 38.7093C35.6986 37.0331 34.0968 37.9643 32.1673 39.1042C31.6651 39.3343 31.2287 39.6868 30.898 40.1293C30.5674 40.5719 30.3532 41.0904 30.275 41.6372C30.1409 42.628 31.6011 42.8888 31.832 42.0991C32.063 41.3094 33.9925 40.3483 34.9834 39.9386C35.9742 39.5288 35.7284 40.3185 37.129 41.0188C39.0511 41.9799 41.9044 38.7168 42.2546 39.4171C42.4826 39.7182 42.7992 39.9405 43.1599 40.0527C43.5206 40.1649 43.9074 40.1615 44.2661 40.0429C46.5681 38.9999 47.03 38.7913 48.0507 38.6125C48.6616 38.5082 49.2427 38.985 50.6656 38.456C51.6341 38.1282 52.3195 37.8675 52.3419 36.8319ZM48.9298 53.5348C49.2054 52.5142 47.9389 52.2534 47.2163 52.4024C45.9274 52.6706 45.3389 53.4305 44.2363 53.058C43.4814 52.8973 42.6944 52.9944 42.0013 53.3337C40.3399 54.0191 40.5113 54.2649 40.2356 53.7658C39.2969 51.8437 36.086 53.4827 34.3874 54.779C33.9933 55.0773 33.7271 55.5139 33.6424 56.0008C33.6184 56.2008 33.6615 56.403 33.765 56.5758C33.8684 56.7486 34.0263 56.8822 34.2139 56.9555C34.4015 57.0288 34.6081 57.0378 34.8013 56.9809C34.9945 56.9241 35.1634 56.8047 35.2814 56.6415C36.1276 55.9927 37.067 55.4753 38.0677 55.1068C38.6413 54.9131 38.1869 55.7326 38.9542 56.2839C40.2356 57.2002 40.9136 56.1796 43.3199 55.3228C43.6999 55.1887 43.9606 55.3973 44.3331 55.4569C45.8231 55.7177 46.1435 55.2632 48.3859 54.5108C48.8329 54.3394 48.7808 54.0936 48.9298 53.5348Z" fill="white"/>
<path d="M110.624 72.9804C110.624 73.2486 110.788 73.4051 110.766 73.4647C110.743 73.5243 111.391 85.6373 99.5906 90.9789C96.4539 92.3228 93.0082 92.779 89.6299 92.2976C83.9381 91.195 83.7817 90.2786 82.545 89.8986C82.4854 89.8986 78.075 86.9708 76.6967 84.7284C75.0859 82.6174 74.0329 80.1346 73.6348 77.5093C72.8898 73.3597 73.9477 69.6198 73.9551 69.0089C75.1993 66.4312 76.436 60.5382 83.5358 57.4614C91.8053 53.8705 98.7711 55.5616 105.26 61.2832C107.905 63.5927 110.021 67.2812 110.624 72.9804Z" fill="white"/>
<path d="M61.9818 98.2721C62.1085 98.7787 59.4488 100.507 59.0987 100.768C57.6087 101.722 57.2511 102.094 56.4465 100.835C55.0533 98.6521 54.6957 98.1529 54.3828 97.1099C54.3828 96.3053 55.7387 95.4113 58.0706 93.7947C58.2054 93.7452 58.3517 93.7357 58.4918 93.7674C58.6319 93.7992 58.7599 93.8707 58.8603 93.9735C59.6127 94.7855 61.7285 97.2142 61.9818 98.2721Z" fill="#976EFF"/>
<path d="M58.8157 66.1558C60.1716 67.7501 60.7378 70.4694 60.6037 72.5703C60.2387 77.9708 53.0196 82.5749 54.4873 86.583C55.6644 89.8088 57.7429 88.7509 53.1463 92.0736C52.2895 92.6845 51.5967 93.3997 50.9113 92.5951C46.0539 86.7916 48.2963 81.0701 53.0941 75.2218C57.065 70.3868 52.1107 65.9912 46.7467 69.1053C45.1226 70.044 43.3644 70.9082 42.3736 74.6257C42.2298 75.2143 42.1449 75.8164 42.1203 76.4213C42.0635 76.7385 41.9362 77.0388 41.7478 77.3003C41.5913 77.6355 38.8721 77.0545 37.5609 76.9055C35.0726 76.6224 36.8159 64.2404 49.0562 62.2513C54.2861 61.4169 56.6701 63.6303 58.8157 66.1558Z" fill="#976EFF"/>
<path d="M110.838 68.369C115.04 81.6143 104.133 92.9532 93.383 93.5492C86.6184 93.9217 78.3042 90.0105 75.0038 84.0952C74.4174 83.233 73.9442 82.2991 73.5958 81.3163C73.3228 80.6874 73.1107 80.0338 72.9625 79.3644C72.0536 73.9334 71.8823 69.9774 74.5047 64.4644C81.1277 50.5031 105.296 50.9285 110.838 68.369ZM110.622 72.9805C109.132 59.1459 95.7223 52.1205 83.5564 57.4622C76.464 60.5614 75.2199 66.4022 73.9757 69.0097C73.9757 69.6206 72.9327 73.3605 73.6554 77.5094C74.0534 80.1347 75.1065 82.6175 76.7173 84.7284C78.0732 86.9634 82.506 89.8838 82.5656 89.8987C83.8023 90.2787 83.9587 91.195 89.6505 92.2976C93.0291 92.7789 96.4747 92.323 99.6112 90.979C107.478 87.4104 111.308 79.4546 110.622 72.9805Z" fill="black"/>
<path d="M94.2393 76.8685C95.3195 77.4719 94.7384 78.5224 94.135 78.1797C92.0862 77.01 90.842 76.3693 88.607 77.3229C86.8935 78.0679 86.3721 80.0571 86.1262 80.5935C86.0219 80.8244 85.3812 81.1671 85.1875 80.221C85.4035 77.7327 88.8157 73.8289 94.2393 76.8685Z" fill="black"/>
<path d="M87.0739 60.8587C89.7708 58.43 92.6316 59.7338 92.0803 61.1344C91.9909 61.3579 91.5141 61.3504 91.3353 61.1344C90.3966 60.0169 88.6756 60.8066 87.7444 61.7006C85.785 63.578 84.8538 61.6111 86.0085 61.4844C86.53 61.4174 86.3438 61.5218 87.0739 60.8587Z" fill="black"/>
<path d="M89.5547 69.6794C88.8693 69.6794 88.683 68.2862 88.7575 67.6306C88.832 66.975 90.0464 66.5951 90.2848 68.1074C90.4487 68.8822 90.3891 69.657 89.5547 69.6794Z" fill="black"/>
<path d="M84.0945 69.0689C84.4 69.65 84.6458 71.207 83.9008 71.3039C83.1558 71.4007 82.7602 70.0001 82.9167 69.1955C83.0359 68.5846 83.8785 68.674 84.0945 69.0689Z" fill="black"/>
<path d="M83.3257 64.4722C83.6609 65.5748 81.6345 64.8298 81.3142 66.7519C81.0981 67.6757 80.3382 67.5639 80.219 67.1095C80.2112 66.5311 80.3805 65.9643 80.704 65.4849C81.0276 65.0055 81.4901 64.6365 82.0294 64.4275C82.2007 64.3679 83.1469 63.8836 83.3257 64.4722Z" fill="black"/>
<path d="M57.3992 102.198C56.7361 102.198 56.3115 101.677 55.9539 101.118C52.9739 96.4618 52.7504 96.7822 57.727 93.303C57.9774 93.1699 58.2646 93.1226 58.5445 93.1683C58.8244 93.2141 59.0816 93.3504 59.2766 93.5563C59.2766 93.5563 62.1895 96.6481 62.5397 98.1008C62.6663 98.6074 62.2789 99.1215 61.0497 100.053C60.4909 100.53 58.1889 102.198 57.3992 102.198ZM54.9705 97.0504C55.261 97.9369 55.7155 98.5404 56.9298 100.492C57.3843 101.237 57.3321 101.178 58.4198 100.492C59.4792 99.8566 60.4659 99.1072 61.3626 98.2573C60.5425 96.8058 59.5133 95.4829 58.3081 94.3311C54.3521 97.1249 55.0077 97.1547 54.9705 97.0802V97.0504Z" fill="black"/>
<path d="M51.5513 93.5492C50.3518 93.5492 47.3271 89.7348 47.6251 85.0115C48.1466 76.891 56.5651 73.7099 53.2797 69.8657C51.7897 68.0777 49.063 68.4427 46.9174 69.6869C45.3752 70.5734 43.8554 71.4004 42.9391 74.7901C42.5666 76.1758 42.8944 76.593 42.3952 77.3529C41.7396 78.5151 40.9499 77.8595 37.508 77.4796C34.0661 77.0996 36.2266 63.7269 48.9661 61.6781C50.5255 61.3699 52.1352 61.4283 53.6682 61.8487C55.2012 62.2691 56.6155 63.0399 57.7996 64.1005C58.9836 65.161 59.9051 66.4822 60.4911 67.9598C61.0772 69.4374 61.3119 71.0309 61.1767 72.6147C60.983 75.4308 59.2397 77.8297 58.152 79.2378C56.8184 80.9438 54.2705 84.3559 55.023 86.3898C56.1777 89.5039 58.517 88.9302 53.4808 92.5509C52.9512 93.0681 52.2794 93.4157 51.5513 93.5492ZM51.3725 92.2231C51.6183 92.5211 51.7524 92.3796 52.8178 91.6048C56.8482 88.662 55.1645 90.1148 53.9502 86.7846C52.3484 82.4264 59.6941 77.6435 60.0368 72.5328C60.3199 68.249 58.219 66.5281 58.3904 66.5281C56.2671 64.0398 54.1066 62.0581 49.1747 62.8031C37.5825 64.6581 36.1596 76.1311 37.6496 76.3025C42.8124 76.8761 40.9797 77.5615 41.8365 74.44C42.8869 70.6032 44.7494 69.5751 46.3437 68.6513C52.4825 65.0828 57.9136 70.2605 53.5628 75.5649C48.9885 81.1673 46.7088 86.6431 51.3725 92.2231Z" fill="black"/>
<path d="M59.9706 41.9505C60.9168 41.5109 64.4853 43.217 58.4806 45.2136C58.1259 45.3301 57.7437 45.3332 57.3872 45.2224C57.0307 45.1115 56.7176 44.8923 56.4915 44.5952C55.888 43.7906 52.908 47.9552 50.4644 45.601C48.8254 44.0216 46.5681 47.836 43.5806 47.5603C42.1949 47.4262 41.6138 47.1357 40.9657 47.456C38.8573 48.5065 38.5891 48.9461 37.6132 48.8343C36.0114 48.5959 36.6223 47.1804 35.9295 47.4858C34.8772 47.9118 33.9125 48.528 33.0836 49.3036C32.9697 49.4295 32.821 49.5187 32.6563 49.5599C32.4917 49.601 32.3185 49.5923 32.1588 49.5348C31.9991 49.4773 31.8601 49.3737 31.7595 49.237C31.6588 49.1003 31.6011 48.9368 31.5936 48.7672C31.4967 47.8062 32.3386 47.2251 33.173 46.6142C34.7822 45.4669 37.1513 44.2972 38.0304 46.0554C38.1347 46.2491 38.0304 46.413 39.3192 45.6233C40.9433 44.6176 41.9789 45.0497 43.1634 45.0571C45.3612 45.0571 44.3331 45.2806 47.3056 43.6417C48.8552 42.7849 50.4272 42.5986 51.6862 43.813C52.2971 44.409 52.4312 44.0067 53.7126 43.2393C55.7018 42.0697 55.8284 41.8909 57.2663 42.2187C57.7133 42.323 57.7654 42.9637 58.4732 42.6135C58.9872 42.3975 59.4789 42.174 59.9706 41.9505Z" fill="black"/>
<path d="M51.3436 35.9393C51.5075 36.0138 52.3568 36.0734 52.3419 36.8333C52.3419 37.8614 51.6416 38.1072 50.6805 38.4648C49.2576 39.0012 48.6765 38.517 48.0656 38.6213C47.0449 38.7926 46.5756 39.0087 44.281 40.0442C43.923 40.1625 43.5371 40.1665 43.1767 40.0557C42.8163 39.9449 42.4992 39.7248 42.2695 39.4259C41.9193 38.6809 39.066 41.9887 37.1439 41.0202C35.7507 40.3199 35.937 39.5749 34.9983 39.9474C34.0596 40.3199 32.0704 41.3256 31.8469 42.1079C31.6234 42.8901 30.1558 42.6368 30.2899 41.6385C30.3707 41.0926 30.586 40.5753 30.9163 40.1331C31.2466 39.691 31.6816 39.3379 32.1822 39.1055C34.1117 37.9508 35.7135 37.0344 37.5536 38.7107C37.6728 38.8224 37.7399 39.0087 37.9336 38.9789C38.9021 38.8075 39.1479 38.1817 41.1073 37.2281C41.35 37.0892 41.6182 37.0004 41.8959 36.9671C42.1737 36.9338 42.4552 36.9567 42.7239 37.0344C43.238 37.0344 43.3274 37.2281 43.6775 37.5112C44.2363 37.9657 44.2735 37.1983 46.8885 36.4682C48.6765 35.9765 48.6914 36.6768 49.9206 36.282C50.3825 36.1255 50.8072 35.7158 51.3436 35.9393Z" fill="black"/>
<path d="M47.238 52.403C47.983 52.254 49.2271 52.5148 48.9515 53.5354C48.8025 54.0942 48.8546 54.34 48.3555 54.5114C46.1205 55.2564 45.8299 55.7183 44.3027 55.4576C43.9302 55.398 43.6694 55.1894 43.2895 55.3235C40.8831 56.1802 40.2052 57.2009 38.9238 56.2845C38.1788 55.7332 38.6109 54.9137 38.0372 55.1074C37.0366 55.4759 36.0972 55.9933 35.2509 56.6421C35.1329 56.8053 34.9641 56.9247 34.7709 56.9815C34.5776 57.0384 34.371 57.0294 34.1835 56.9561C33.9959 56.8828 33.838 56.7492 33.7345 56.5764C33.6311 56.4036 33.588 56.2014 33.6119 56.0014C33.6966 55.5145 33.9629 55.0779 34.3569 54.7796C36.0481 53.4833 39.259 51.8517 40.2052 53.7664C40.451 54.2655 40.3095 54.0271 41.9708 53.3343C42.6638 52.9944 43.451 52.8973 44.2058 53.0587C45.3382 53.4311 45.9268 52.6712 47.238 52.403Z" fill="black"/>
<path d="M29.8644 79.893C28.0392 67.9134 28.4788 70.208 28.1137 67.8911C26.9515 60.6497 27.1527 63.2423 26.8249 60.1431C26.1767 54.0862 26.0798 57.2152 25.6478 51.5532C25.3795 48.0517 24.575 46.7778 23.0626 34.6939C22.8317 32.8388 22.258 29.7024 23.5618 29.5683C23.9119 29.5683 26.4524 28.7711 27.8306 28.6147C29.2088 28.4582 47.4613 24.8897 51.9686 24.9567C53.1904 24.9567 52.9296 24.5619 61.7803 23.2581C83.1103 20.1068 83.0135 18.6466 84.6897 19.5331C85.0399 19.7119 90.1804 23.7275 91.5884 24.6885C96.9673 28.3688 97.0411 28.5774 97.6594 31.0657C97.7488 31.4382 97.7645 31.4531 98.137 31.5127C99.0682 31.6468 107.636 31.0136 107.651 31.0136C110.139 30.7826 110.287 31.5947 110.704 33.6658C111.293 36.528 111.571 39.4455 111.532 42.3674C111.532 42.7324 111.822 49.877 111.837 50.7933C111.837 51.583 111.718 51.5383 111.837 55.5762C111.837 56.6565 112.045 57.6101 112.008 58.5562C111.971 59.5024 121.038 69.7312 115.272 83.4839C113.782 86.9705 112.962 85.9499 115.033 87.3877C118.132 89.5482 118.014 89.5482 118.282 89.3992C119.727 88.6021 120.994 89.8164 122.141 90.5987C123.646 91.5345 125.081 92.5803 126.432 93.7277C136.408 101.349 141.622 103.606 143.351 105.327C145.914 107.875 142.032 113.433 138.933 113.522C135.834 113.612 133.904 109.052 116.62 97.5272C116.433 97.4005 115.719 96.7226 115.294 96.3799C114.646 95.8435 114.273 94.8899 114.444 94.5174C114.526 94.3386 114.526 94.3833 113.327 93.4669C113.103 93.303 113.081 93.8171 113.118 93.9363C113.401 94.8675 113.282 101.543 113.282 101.565C113.282 102.392 113.395 102.042 113.432 105.022C113.405 106.514 113.46 108.006 113.596 109.492C113.722 112.181 113.469 112.397 113.789 117.277C113.789 117.352 113.722 121.241 113.677 121.918C113.632 122.596 113.462 123.408 112.679 123.468C102.994 124.504 51.2616 126.776 45.0557 126.262C42.4706 126.046 42.6866 125.614 42.5227 123.2C42.3812 121.136 43.074 121.449 40.392 121.613C36.369 121.851 37.0172 122.097 36.4584 119.222C35.8997 116.346 36.0263 116.175 35.5793 113.478C33.2177 99.2183 34.3493 109.328 29.8644 79.893ZM28.8811 72.6963C28.8811 72.6218 27.6667 65.0899 28.8811 72.6963ZM142.636 108.725C142.887 108.163 142.936 107.532 142.774 106.938C142.612 106.345 142.25 105.826 141.749 105.469C131.036 98.5627 134.784 101.178 130.314 97.8773C118.557 89.1981 119.451 89.809 119.287 90.9265C119.075 91.7676 118.647 92.5384 118.043 93.1615C117.298 94.0853 116.673 95.0091 115.808 95.2028C115.063 95.3667 118.163 96.6928 131.811 107.294C138.933 112.815 138.285 112.807 141.004 110.96C141.674 110.315 142.226 109.558 142.636 108.725ZM116.329 93.5712C118.803 90.3603 118.654 90.8818 116.523 89.5184C115.912 89.1236 114.593 88.2892 113.647 87.7677C113.252 88.468 113.267 88.4158 113.267 88.5127C111.777 92.0812 111.428 90.852 112.851 91.8279C116.278 94.1523 115.875 94.1598 116.329 93.5712ZM114.154 82.7613C115.824 78.9927 116.357 74.819 115.688 70.7519C115.107 67.7719 114.028 63.8457 112.247 61.3798C100.461 45.0345 79.1983 47.2844 70.8551 62.0726C69.3557 64.8043 68.4184 67.8086 68.0986 70.9083C67.8825 72.0258 67.9868 72.7932 68.0539 75.8179C68.3519 90.107 84.5184 102.161 100.707 96.2309C101.629 95.9262 102.498 95.4815 103.284 94.9122C108.181 92.2121 112.014 87.9273 114.154 82.7613ZM112.515 121.889C112.65 120.503 112.061 96.2234 111.949 92.9678C111.949 92.2228 111.762 92.3047 111.308 91.9918C110.168 91.2468 110.094 91.0829 109.871 91.3288C108.567 92.7741 106.964 93.6681 107.017 94.0182C109.065 107.682 109.811 109.328 108.753 109.753C103.21 111.988 84.5102 114.722 80.0178 115.385C58.0254 118.633 59.6794 119.058 57.1017 119.192C54.3824 119.326 45.7851 121.077 45.7627 121.077C43.334 121.524 43.5277 121.196 43.5277 121.904C43.5277 122.611 43.5278 121.986 43.6097 124.608C43.6097 126.411 57.4071 124.846 62.7711 124.936L103.33 123.043C106.772 122.842 107.255 123.125 112.172 122.298C112.574 122.216 112.441 121.963 112.515 121.889ZM110.704 56.3287C110.168 29.6949 109.579 32.2652 107.501 32.2577C107.129 32.2246 106.755 32.2246 106.383 32.2577C104.595 32.5706 100.468 32.5036 98.3746 32.7569C97.9351 32.809 98.0915 32.8612 98.2703 34.1277C99.1048 39.8642 98.8887 38.8137 98.9706 39.4172C99.6709 44.7588 100.632 50.3389 100.647 50.4506C100.706 50.9349 100.968 50.8306 101.862 51.2403C102.854 51.6251 103.805 52.1093 104.7 52.6856C106.022 53.5009 107.269 54.4334 108.425 55.4719C109.118 56.135 109.103 55.8742 109.751 56.5745C109.997 56.8427 110.265 57.0886 110.496 57.3195C110.548 57.3642 110.63 57.3195 110.697 57.3791C110.719 57.02 110.722 56.6587 110.704 56.2989V56.3287ZM107.873 108.754C108.514 108.278 106.474 99.3897 105.937 94.9793C105.803 93.8171 103.448 97.8326 94.4932 98.8905C92.2527 99.0298 90.0036 98.9174 87.7882 98.5553C79.7124 96.5512 77.8357 94.7632 73.514 90.9712C65.9224 84.3109 65.0657 70.4837 69.7219 61.5288C75.0114 51.3446 88.63 46.6809 98.7769 50.0632C99.5741 50.3314 99.4258 50.2867 99.0682 48.2901C98.5318 45.3548 97.2057 34.1351 96.6544 31.7884C96.5352 31.2892 96.6023 31.8554 89.5248 34.0234C88.6174 34.3549 87.6653 34.5449 86.7005 34.5896C86.3135 34.6618 85.9136 34.6104 85.5575 34.4426C85.2014 34.2747 84.9072 33.999 84.7166 33.6546C84.5897 33.4261 84.5119 33.1736 84.4878 32.9133C84.46 30.888 84.3182 28.8659 84.0632 26.8565C83.7801 24.1447 83.833 20.4197 83.006 20.5985C82.3132 20.7549 67.592 23.6455 67.5771 23.6455C65.722 23.9659 68.7467 23.2507 56.0594 25.4335C46.9555 26.9906 46.5681 26.3722 37.9037 28.0038C23.1825 30.7752 23.8009 29.7098 23.8679 31.6692C24.1361 40.0132 26.1029 45.1984 26.8479 53.0432C27.0863 55.539 27.4365 55.5613 27.8015 59.1299C28.2113 63.0411 28.9712 65.3879 29.5597 69.8653C31.0497 81.3383 33.1432 95.62 36.6968 113.515C36.7415 113.731 37.196 117.553 37.4418 118.395C37.6877 119.236 37.7324 120.466 37.8143 120.533C38.0974 120.734 44.9514 120.071 46.3893 119.743C54.5992 117.895 104.759 111.071 107.873 108.725V108.754ZM95.6628 30.6783C97.6743 29.6577 92.5189 27.3109 86.2907 22.2971C84.3314 20.7251 84.4364 20.4867 84.6897 22.0661C84.8514 23.1021 84.9482 24.1471 84.9795 25.1951C85.3498 27.6633 85.5718 30.1509 85.6433 32.6451C85.6955 33.6881 87.3412 33.3901 88.3469 33.1443C89.7028 32.7792 95.5287 30.7156 95.6628 30.6783Z" fill="black"/>
</svg>
