<svg width="30" height="29" viewBox="0 0 30 29" fill="none" xmlns="http://www.w3.org/2000/svg">
<g clip-path="url(#clip0_994_1736)">
<path d="M29.4062 0.5H0.5V28.5H29.4062V0.5Z" stroke="black"/>
<path d="M27.6407 15.8594H3.17188V19.0313H27.6407V15.8594Z" fill="black" fill-opacity="0.5"/>
<path d="M29.4531 0.453125H0.453125V4.98438H29.4531V0.453125Z" fill="black"/>
<path d="M2.49219 3.17188C2.86757 3.17188 3.17188 2.86757 3.17188 2.49219C3.17188 2.11681 2.86757 1.8125 2.49219 1.8125C2.11681 1.8125 1.8125 2.11681 1.8125 2.49219C1.8125 2.86757 2.11681 3.17188 2.49219 3.17188Z" fill="black" fill-opacity="0.5"/>
<path d="M4.75781 3.17188C5.13319 3.17188 5.4375 2.86757 5.4375 2.49219C5.4375 2.11681 5.13319 1.8125 4.75781 1.8125C4.38243 1.8125 4.07812 2.11681 4.07812 2.49219C4.07812 2.86757 4.38243 3.17188 4.75781 3.17188Z" fill="black" fill-opacity="0.5"/>
<path d="M7.02344 3.17188C7.39882 3.17188 7.70313 2.86757 7.70313 2.49219C7.70313 2.11681 7.39882 1.8125 7.02344 1.8125C6.64806 1.8125 6.34375 2.11681 6.34375 2.49219C6.34375 2.86757 6.64806 3.17188 7.02344 3.17188Z" fill="black" fill-opacity="0.5"/>
<path d="M9.51562 8.15625H3.17188V13.5938H9.51562V8.15625Z" fill="#976EFF"/>
<path d="M18.5781 8.15625H12.2344V13.5938H18.5781V8.15625Z" fill="black" fill-opacity="0.5"/>
<path d="M27.6406 8.15625H20.8438V13.5938H27.6406V8.15625Z" fill="black" fill-opacity="0.5"/>
</g>
<defs>
<clipPath id="clip0_994_1736">
<rect width="30" height="29" fill="white"/>
</clipPath>
</defs>
</svg>
