<svg width="50" height="50" viewBox="0 0 50 50" fill="none" xmlns="http://www.w3.org/2000/svg">
<path d="M4.16797 24.9993C4.16797 30.5247 6.3629 35.8237 10.2699 39.7307C14.1769 43.6377 19.4759 45.8327 25.0013 45.8327C30.5266 45.8327 35.8256 43.6377 39.7326 39.7307C43.6397 35.8237 45.8346 30.5247 45.8346 24.9993C45.8346 19.474 43.6397 14.175 39.7326 10.2679C35.8256 6.36096 30.5266 4.16602 25.0013 4.16602C19.4759 4.16602 14.1769 6.36096 10.2699 10.2679C6.3629 14.175 4.16797 19.474 4.16797 24.9993Z" fill="#976EFF"/>
<path d="M4.16797 24.9993C4.16797 30.5247 6.3629 35.8237 10.2699 39.7307C14.1769 43.6377 19.4759 45.8327 25.0013 45.8327C30.5266 45.8327 35.8256 43.6377 39.7326 39.7307C43.6397 35.8237 45.8346 30.5247 45.8346 24.9993C45.8346 19.474 43.6397 14.175 39.7326 10.2679C35.8256 6.36096 30.5266 4.16602 25.0013 4.16602C19.4759 4.16602 14.1769 6.36096 10.2699 10.2679C6.3629 14.175 4.16797 19.474 4.16797 24.9993Z" stroke="black" stroke-width="1.5"/>
<path d="M15.1055 26.5625L22.3972 32.8125L34.8972 17.1875" stroke="black" stroke-width="1.5"/>
</svg>
