<svg width="30" height="30" viewBox="0 0 30 30" fill="none" xmlns="http://www.w3.org/2000/svg">
<g clip-path="url(#clip0_994_1748)">
<path d="M29.5 0.5H0.5V28.5909H29.5V0.5Z" stroke="black"/>
<path d="M27.2721 3.18164H2.72656V9.54528H27.2721V3.18164Z" fill="black" fill-opacity="0.5"/>
<path d="M27.2721 11.3643H2.72656V17.7279H27.2721V11.3643Z" fill="black" fill-opacity="0.5"/>
<path d="M27.2721 19.0908H2.72656V25.4545H27.2721V19.0908Z" fill="black" fill-opacity="0.5"/>
<path d="M7.7262 4.54492H4.08984V8.18128H7.7262V4.54492Z" fill="#888888"/>
<path d="M7.7262 12.7275H4.08984V16.3639H7.7262V12.7275Z" fill="#888888"/>
<path d="M7.7262 20.4551H4.08984V24.0914H7.7262V20.4551Z" fill="#888888"/>
<path d="M2.90274 15.6591C2.6462 15.4087 2.64122 14.9977 2.89163 14.7412L6.12536 11.4281C6.37576 11.1716 6.78672 11.1666 7.04326 11.417C7.29981 11.6674 7.30478 12.0784 7.05438 12.3349L3.82065 15.6479C3.57025 15.9045 3.15929 15.9095 2.90274 15.6591Z" fill="#976EFF"/>
</g>
<defs>
<clipPath id="clip0_994_1748">
<rect width="30" height="30" fill="white"/>
</clipPath>
</defs>
</svg>
