<svg width="30" height="29" viewBox="0 0 30 29" fill="none" xmlns="http://www.w3.org/2000/svg">
<g clip-path="url(#clip0_994_2016)">
<path d="M29.4062 0.5H0.5V28.5H29.4062V0.5Z" stroke="black"/>
<path d="M29.4531 0.453125H0.453125V4.98438H29.4531V0.453125Z" fill="black"/>
<path d="M2.49219 3.17188C2.86757 3.17188 3.17188 2.86757 3.17188 2.49219C3.17188 2.11681 2.86757 1.8125 2.49219 1.8125C2.11681 1.8125 1.8125 2.11681 1.8125 2.49219C1.8125 2.86757 2.11681 3.17188 2.49219 3.17188Z" fill="black" fill-opacity="0.5"/>
<path d="M4.75781 3.17188C5.13319 3.17188 5.4375 2.86757 5.4375 2.49219C5.4375 2.11681 5.13319 1.8125 4.75781 1.8125C4.38243 1.8125 4.07812 2.11681 4.07812 2.49219C4.07812 2.86757 4.38243 3.17188 4.75781 3.17188Z" fill="black" fill-opacity="0.5"/>
<path d="M7.02344 3.17188C7.39882 3.17188 7.70313 2.86757 7.70313 2.49219C7.70313 2.11681 7.39882 1.8125 7.02344 1.8125C6.64806 1.8125 6.34375 2.11681 6.34375 2.49219C6.34375 2.86757 6.64806 3.17188 7.02344 3.17188Z" fill="black" fill-opacity="0.5"/>
<mask id="mask0_994_2016" style="mask-type:luminance" maskUnits="userSpaceOnUse" x="6" y="8" width="17" height="17">
<path d="M23 8H6V25H23V8Z" fill="white"/>
</mask>
<g mask="url(#mask0_994_2016)">
<path d="M14.501 23.8291C16.4448 23.8291 18.309 23.0569 19.6834 21.6824C21.0579 20.308 21.8301 18.4438 21.8301 16.5C21.8301 14.5562 21.0579 12.692 19.6834 11.3175C18.309 9.94307 16.4448 9.1709 14.501 9.1709C12.5572 9.1709 10.693 9.94307 9.31852 11.3175C7.94405 12.692 7.17188 14.5562 7.17188 16.5C7.17188 18.4438 7.94405 20.308 9.31852 21.6824C10.693 23.0569 12.5572 23.8291 14.501 23.8291Z" fill="#976EFF" fill-opacity="0.8"/>
<path d="M14.501 23.8291C16.4448 23.8291 18.309 23.0569 19.6834 21.6824C21.0579 20.308 21.8301 18.4438 21.8301 16.5C21.8301 14.5562 21.0579 12.692 19.6834 11.3175C18.309 9.94307 16.4448 9.1709 14.501 9.1709C12.5572 9.1709 10.693 9.94307 9.31852 11.3175C7.94405 12.692 7.17188 14.5562 7.17188 16.5C7.17188 18.4438 7.94405 20.308 9.31852 21.6824C10.693 23.0569 12.5572 23.8291 14.501 23.8291Z" stroke="black" stroke-linecap="round" stroke-linejoin="round"/>
<path d="M7.17188 16.5H21.8301" stroke="black" stroke-linecap="round" stroke-linejoin="round"/>
<path d="M17.3213 16.5C17.1828 19.1802 16.1957 21.7469 14.5024 23.8291C12.8092 21.7469 11.822 19.1802 11.6836 16.5C11.822 13.8198 12.8092 11.2531 14.5024 9.1709C16.1957 11.2531 17.1828 13.8198 17.3213 16.5Z" stroke="black" stroke-linecap="round" stroke-linejoin="round"/>
</g>
</g>
<defs>
<clipPath id="clip0_994_2016">
<rect width="30" height="29" fill="white"/>
</clipPath>
</defs>
</svg>
